  0
SECTION
  2
HEADER
  9
$ACADVER
  1
AC1032
  9
$ACADMAINTVER
 90
       55
  9
$DWGCODEPAGE
  3
ANSI_1252
  9
$LASTSAVEDBY
  1
cipulot
  9
$REQUIREDVERSIONS
160
                 0
  9
$INSBASE
 10
0.0
 20
0.0
 30
0.0
  9
$EXTMIN
 10
1.000000000000000E+20
 20
1.000000000000000E+20
 30
1.000000000000000E+20
  9
$EXTMAX
 10
-1.000000000000000E+20
 20
-1.000000000000000E+20
 30
-1.000000000000000E+20
  9
$LIMMIN
 10
0.0
 20
0.0
  9
$LIMMAX
 10
12.0
 20
9.0
  9
$ORTHOMODE
 70
     0
  9
$REGENMODE
 70
     1
  9
$FILLMODE
 70
     1
  9
$QTEXTMODE
 70
     0
  9
$MIRRTEXT
 70
     1
  9
$LTSCALE
 40
1.0
  9
$ATTMODE
 70
     1
  9
$TEXTSIZE
 40
0.2
  9
$TRACEWID
 40
0.05
  9
$TEXTSTYLE
  7
Standard
  9
$CLAYER
  8
0
  9
$CELTYPE
  6
ByBlock
  9
$CECOLOR
 62
   256
  9
$CELTSCALE
 40
1.0
  9
$DISPSILH
 70
     0
  9
$DIMSCALE
 40
1.0
  9
$DIMASZ
 40
0.18
  9
$DIMEXO
 40
0.0625
  9
$DIMDLI
 40
0.38
  9
$DIMRND
 40
0.0
  9
$DIMDLE
 40
0.0
  9
$DIMEXE
 40
0.18
  9
$DIMTP
 40
0.0
  9
$DIMTM
 40
0.0
  9
$DIMTXT
 40
0.18
  9
$DIMCEN
 40
0.09
  9
$DIMTSZ
 40
0.0
  9
$DIMTOL
 70
     0
  9
$DIMLIM
 70
     0
  9
$DIMTIH
 70
     1
  9
$DIMTOH
 70
     1
  9
$DIMSE1
 70
     0
  9
$DIMSE2
 70
     0
  9
$DIMTAD
 70
     0
  9
$DIMZIN
 70
     0
  9
$DIMBLK
  1

  9
$DIMASO
 70
     1
  9
$DIMSHO
 70
     1
  9
$DIMPOST
  1

  9
$DIMAPOST
  1

  9
$DIMALT
 70
     0
  9
$DIMALTD
 70
     2
  9
$DIMALTF
 40
25.4
  9
$DIMLFAC
 40
1.0
  9
$DIMTOFL
 70
     0
  9
$DIMTVP
 40
0.0
  9
$DIMTIX
 70
     0
  9
$DIMSOXD
 70
     0
  9
$DIMSAH
 70
     0
  9
$DIMBLK1
  1

  9
$DIMBLK2
  1

  9
$DIMSTYLE
  2
ISO-25
  9
$DIMCLRD
 70
     0
  9
$DIMCLRE
 70
     0
  9
$DIMCLRT
 70
     0
  9
$DIMTFAC
 40
1.0
  9
$DIMGAP
 40
0.09
  9
$DIMJUST
 70
     0
  9
$DIMSD1
 70
     0
  9
$DIMSD2
 70
     0
  9
$DIMTOLJ
 70
     1
  9
$DIMTZIN
 70
     0
  9
$DIMALTZ
 70
     0
  9
$DIMALTTZ
 70
     0
  9
$DIMUPT
 70
     0
  9
$DIMDEC
 70
     4
  9
$DIMTDEC
 70
     4
  9
$DIMALTU
 70
     2
  9
$DIMALTTD
 70
     2
  9
$DIMTXSTY
  7
Standard
  9
$DIMAUNIT
 70
     0
  9
$DIMADEC
 70
     0
  9
$DIMALTRND
 40
0.0
  9
$DIMAZIN
 70
     0
  9
$DIMDSEP
 70
    46
  9
$DIMATFIT
 70
     3
  9
$DIMFRAC
 70
     0
  9
$DIMLDRBLK
  1

  9
$DIMLUNIT
 70
     2
  9
$DIMLWD
 70
    -2
  9
$DIMLWE
 70
    -2
  9
$DIMTMOVE
 70
     2
  9
$DIMFXL
 40
1.0
  9
$DIMFXLON
 70
     0
  9
$DIMJOGANG
 40
0.7853981633974483
  9
$DIMTFILL
 70
     0
  9
$DIMTFILLCLR
 70
     0
  9
$DIMARCSYM
 70
     0
  9
$DIMLTYPE
  6

  9
$DIMLTEX1
  6

  9
$DIMLTEX2
  6

  9
$DIMTXTDIRECTION
 70
     0
  9
$LUNITS
 70
     2
  9
$LUPREC
 70
     4
  9
$SKETCHINC
 40
0.1
  9
$FILLETRAD
 40
0.0
  9
$AUNITS
 70
     0
  9
$AUPREC
 70
     0
  9
$MENU
  1
.
  9
$ELEVATION
 40
0.0
  9
$PELEVATION
 40
0.0
  9
$THICKNESS
 40
0.0
  9
$LIMCHECK
 70
     0
  9
$CHAMFERA
 40
0.0
  9
$CHAMFERB
 40
0.0
  9
$CHAMFERC
 40
0.0
  9
$CHAMFERD
 40
0.0
  9
$SKPOLY
 70
     0
  9
$TDCREATE
 40
2460965.023061378
  9
$TDUCREATE
 40
2460964.648061378
  9
$TDUPDATE
 40
2460965.023601401
  9
$TDUUPDATE
 40
2460964.648601401
  9
$TDINDWG
 40
0.0000000116
  9
$TDUSRTIMER
 40
0.0000000116
  9
$USRTIMER
 70
     1
  9
$ANGBASE
 50
0.0
  9
$ANGDIR
 70
     1
  9
$PDMODE
 70
     0
  9
$PDSIZE
 40
0.0
  9
$PLINEWID
 40
0.0
  9
$SPLFRAME
 70
     0
  9
$SPLINETYPE
 70
     6
  9
$SPLINESEGS
 70
     8
  9
$HANDSEED
  5
778
  9
$SURFTAB1
 70
     6
  9
$SURFTAB2
 70
     6
  9
$SURFTYPE
 70
     6
  9
$SURFU
 70
     6
  9
$SURFV
 70
     6
  9
$UCSBASE
  2

  9
$UCSNAME
  2

  9
$UCSORG
 10
0.0
 20
0.0
 30
0.0
  9
$UCSXDIR
 10
1.0
 20
0.0
 30
0.0
  9
$UCSYDIR
 10
0.0
 20
1.0
 30
0.0
  9
$UCSORTHOREF
  2

  9
$UCSORTHOVIEW
 70
     0
  9
$UCSORGTOP
 10
0.0
 20
0.0
 30
0.0
  9
$UCSORGBOTTOM
 10
0.0
 20
0.0
 30
0.0
  9
$UCSORGLEFT
 10
0.0
 20
0.0
 30
0.0
  9
$UCSORGRIGHT
 10
0.0
 20
0.0
 30
0.0
  9
$UCSORGFRONT
 10
0.0
 20
0.0
 30
0.0
  9
$UCSORGBACK
 10
0.0
 20
0.0
 30
0.0
  9
$PUCSBASE
  2

  9
$PUCSNAME
  2

  9
$PUCSORG
 10
0.0
 20
0.0
 30
0.0
  9
$PUCSXDIR
 10
1.0
 20
0.0
 30
0.0
  9
$PUCSYDIR
 10
0.0
 20
1.0
 30
0.0
  9
$PUCSORTHOREF
  2

  9
$PUCSORTHOVIEW
 70
     0
  9
$PUCSORGTOP
 10
0.0
 20
0.0
 30
0.0
  9
$PUCSORGBOTTOM
 10
0.0
 20
0.0
 30
0.0
  9
$PUCSORGLEFT
 10
0.0
 20
0.0
 30
0.0
  9
$PUCSORGRIGHT
 10
0.0
 20
0.0
 30
0.0
  9
$PUCSORGFRONT
 10
0.0
 20
0.0
 30
0.0
  9
$PUCSORGBACK
 10
0.0
 20
0.0
 30
0.0
  9
$USERI1
 70
     0
  9
$USERI2
 70
     0
  9
$USERI3
 70
     0
  9
$USERI4
 70
     0
  9
$USERI5
 70
     0
  9
$USERR1
 40
0.0
  9
$USERR2
 40
0.0
  9
$USERR3
 40
0.0
  9
$USERR4
 40
0.0
  9
$USERR5
 40
0.0
  9
$WORLDVIEW
 70
     1
  9
$SHADEDGE
 70
     3
  9
$SHADEDIF
 70
    70
  9
$TILEMODE
 70
     1
  9
$MAXACTVP
 70
    64
  9
$PINSBASE
 10
0.0
 20
0.0
 30
0.0
  9
$PLIMCHECK
 70
     0
  9
$PEXTMIN
 10
1.000000000000000E+20
 20
1.000000000000000E+20
 30
1.000000000000000E+20
  9
$PEXTMAX
 10
-1.000000000000000E+20
 20
-1.000000000000000E+20
 30
-1.000000000000000E+20
  9
$PLIMMIN
 10
0.0
 20
0.0
  9
$PLIMMAX
 10
12.0
 20
9.0
  9
$UNITMODE
 70
     0
  9
$VISRETAIN
 70
     1
  9
$PLINEGEN
 70
     0
  9
$PSLTSCALE
 70
     1
  9
$TREEDEPTH
 70
  3020
  9
$CMLSTYLE
  2
Standard
  9
$CMLJUST
 70
     0
  9
$CMLSCALE
 40
1.0
  9
$PROXYGRAPHICS
 70
     1
  9
$MEASUREMENT
 70
     1
  9
$CELWEIGHT
370
    -1
  9
$ENDCAPS
280
     0
  9
$JOINSTYLE
280
     0
  9
$LWDISPLAY
290
     0
  9
$INSUNITS
 70
     0
  9
$HYPERLINKBASE
  1

  9
$STYLESHEET
  1

  9
$XEDIT
290
     1
  9
$CEPSNTYPE
380
     0
  9
$PSTYLEMODE
290
     1
  9
$FINGERPRINTGUID
  2
{f5854968-8f66-ff4b-bc23-6af13fe38ac9}
  9
$VERSIONGUID
  2
{CD50239B-4BD3-4B93-9093-B3B99BD4231C}
  9
$EXTNAMES
290
     1
  9
$PSVPSCALE
 40
0.0
  9
$OLESTARTUP
290
     0
  9
$SORTENTS
280
   127
  9
$INDEXCTL
280
     0
  9
$HIDETEXT
280
     1
  9
$XCLIPFRAME
280
     2
  9
$HALOGAP
280
     0
  9
$OBSCOLOR
 70
   257
  9
$OBSLTYPE
280
     0
  9
$INTERSECTIONDISPLAY
280
     0
  9
$INTERSECTIONCOLOR
 70
   257
  9
$DIMASSOC
280
     2
  9
$PROJECTNAME
  1

  9
$CAMERADISPLAY
290
     0
  9
$LENSLENGTH
 40
50.0
  9
$CAMERAHEIGHT
 40
0.0
  9
$STEPSPERSEC
 40
2.0
  9
$STEPSIZE
 40
6.0
  9
$3DDWFPREC
 40
2.0
  9
$PSOLWIDTH
 40
0.25
  9
$PSOLHEIGHT
 40
4.0
  9
$LOFTANG1
 40
1.570796326794897
  9
$LOFTANG2
 40
1.570796326794897
  9
$LOFTMAG1
 40
0.0
  9
$LOFTMAG2
 40
0.0
  9
$LOFTPARAM
 70
     7
  9
$LOFTNORMALS
280
     1
  9
$LATITUDE
 40
37.795
  9
$LONGITUDE
 40
-122.394
  9
$NORTHDIRECTION
 40
0.0
  9
$TIMEZONE
 70
 -8000
  9
$LIGHTGLYPHDISPLAY
280
     1
  9
$TILEMODELIGHTSYNCH
280
     1
  9
$CMATERIAL
347
6FA
  9
$SOLIDHIST
280
     0
  9
$SHOWHIST
280
     1
  9
$DWFFRAME
280
     2
  9
$DGNFRAME
280
     2
  9
$REALWORLDSCALE
290
     1
  9
$INTERFERECOLOR
 62
   256
  9
$CSHADOW
280
     0
  9
$SHADOWPLANELOCATION
 40
0.0
  0
ENDSEC
  0
SECTION
  2
CLASSES
  0
CLASS
  1
ACDBDICTIONARYWDFLT
  2
AcDbDictionaryWithDefault
  3
ObjectDBX Classes
 90
        0
 91
        3
280
     0
281
     0
  0
CLASS
  1
SCALE
  2
AcDbScale
  3
ObjectDBX Classes
 90
     1153
 91
        3
280
     0
281
     0
  0
CLASS
  1
VISUALSTYLE
  2
AcDbVisualStyle
  3
ObjectDBX Classes
 90
     4095
 91
        3
280
     0
281
     0
  0
CLASS
  1
MATERIAL
  2
AcDbMaterial
  3
ObjectDBX Classes
 90
     1153
 91
        3
280
     0
281
     0
  0
CLASS
  1
TABLESTYLE
  2
AcDbTableStyle
  3
ObjectDBX Classes
 90
     4095
 91
        3
280
     0
281
     0
  0
CLASS
  1
MLEADERSTYLE
  2
AcDbMLeaderStyle
  3
ACDB_MLEADERSTYLE_CLASS
 90
     4095
 91
        3
280
     0
281
     0
  0
CLASS
  1
DICTIONARYVAR
  2
AcDbDictionaryVar
  3
ObjectDBX Classes
 90
        0
 91
        3
280
     0
281
     0
  0
CLASS
  1
CELLSTYLEMAP
  2
AcDbCellStyleMap
  3
ObjectDBX Classes
 90
     1152
 91
        3
280
     0
281
     0
  0
CLASS
  1
SUN
  2
AcDbSun
  3
SCENEOE
 90
     1153
 91
        3
280
     0
281
     0
  0
CLASS
  1
MENTALRAYRENDERSETTINGS
  2
AcDbMentalRayRenderSettings
  3
SCENEOE
 90
     1024
 91
        3
280
     0
281
     0
  0
CLASS
  1
ACDBDETAILVIEWSTYLE
  2
AcDbDetailViewStyle
  3
ObjectDBX Classes
 90
     1025
 91
        3
280
     0
281
     0
  0
CLASS
  1
ACDBSECTIONVIEWSTYLE
  2
AcDbSectionViewStyle
  3
ObjectDBX Classes
 90
     1025
 91
        3
280
     0
281
     0
  0
CLASS
  1
RASTERVARIABLES
  2
AcDbRasterVariables
  3
ISM
 90
        0
 91
        3
280
     0
281
     0
  0
CLASS
  1
LAYOUT
  2
AcDbLayout
  3
ObjectDBX Classes
 90
        0
 91
        1
280
     0
281
     0
  0
CLASS
  1
ACDBPLACEHOLDER
  2
AcDbPlaceHolder
  3
ObjectDBX Classes
 90
        0
 91
        1
280
     0
281
     0
  0
ENDSEC
  0
SECTION
  2
TABLES
  0
TABLE
  2
VPORT
  5
8
330
0
100
AcDbSymbolTable
 70
     1
  0
VPORT
  5
442
330
8
100
AcDbSymbolTableRecord
100
AcDbViewportTableRecord
  2
*Active
 70
     0
 10
0.0
 20
0.0
 11
1.0
 21
1.0
 12
344.1869158878504
 22
148.5
 13
0.0
 23
0.0
 14
10.0
 24
10.0
 15
10.0
 25
10.0
 16
0.0
 26
0.0
 36
1.0
 17
0.0
 27
0.0
 37
0.0
 40
297.0
 41
1.972972972850329
 42
50.0
 43
0.0
 44
0.0
 50
0.0
 51
0.0
 71
     0
 72
   100
 73
     1
 74
     3
 75
     0
 76
     0
 77
     0
 78
     0
281
     0
 65
     1
110
0.0
120
0.0
130
0.0
111
1.0
121
0.0
131
0.0
112
0.0
122
1.0
132
0.0
 79
     0
146
0.0
348
6E5
 60
     3
 61
     5
292
     1
282
     1
141
0.0
142
0.0
 63
   250
  0
ENDTAB
  0
TABLE
  2
LTYPE
  5
5
330
0
100
AcDbSymbolTable
 70
     4
  0
LTYPE
  5
14
330
5
100
AcDbSymbolTableRecord
100
AcDbLinetypeTableRecord
  2
ByBlock
 70
     0
  3

 72
    65
 73
     0
 40
0.0
  0
LTYPE
  5
15
330
5
100
AcDbSymbolTableRecord
100
AcDbLinetypeTableRecord
  2
ByLayer
 70
     0
  3

 72
    65
 73
     0
 40
0.0
  0
LTYPE
  5
16
330
5
100
AcDbSymbolTableRecord
100
AcDbLinetypeTableRecord
  2
CONTINUOUS
 70
     0
  3
Solid line
 72
    65
 73
     0
 40
0.0
  0
LTYPE
  5
410
330
5
100
AcDbSymbolTableRecord
100
AcDbLinetypeTableRecord
  2
DASHDOT
 70
     0
  3
Dash Dot ____ _ ____ _
 72
    65
 73
     4
 40
2.0
 49
1.25
 74
     0
 49
-0.25
 74
     0
 49
0.25
 74
     0
 49
-0.25
 74
     0
  0
LTYPE
  5
411
330
5
100
AcDbSymbolTableRecord
100
AcDbLinetypeTableRecord
  2
DASHED
 70
     0
  3
Dashed __ __ __ __ __
 72
    65
 73
     2
 40
0.75
 49
0.5
 74
     0
 49
-0.25
 74
     0
  0
LTYPE
  5
43B
330
5
100
AcDbSymbolTableRecord
100
AcDbLinetypeTableRecord
  2
DOTTED
 70
     0
  3
Dotted .  .  .  .
 72
    65
 73
     2
 40
0.2
 49
0.0
 74
     0
 49
-0.2
 74
     0
  0
ENDTAB
  0
TABLE
  2
LAYER
  5
2
330
0
100
AcDbSymbolTable
 70
     3
  0
LAYER
  5
10
330
2
100
AcDbSymbolTableRecord
100
AcDbLayerTableRecord
  2
0
 70
     0
 62
     7
  6
CONTINUOUS
370
    -3
390
F
347
6FC
348
0
  0
LAYER
  5
440
330
2
100
AcDbSymbolTableRecord
100
AcDbLayerTableRecord
  2
BLACK
 70
     0
 62
     7
  6
CONTINUOUS
370
    -3
390
F
347
6FC
348
0
  0
LAYER
  5
70C
330
2
100
AcDbSymbolTableRecord
100
AcDbLayerTableRecord
  2
Defpoints
 70
     0
 62
     7
  6
CONTINUOUS
290
     0
370
    -3
390
F
347
6FC
348
0
  0
ENDTAB
  0
TABLE
  2
STYLE
  5
3
330
0
100
AcDbSymbolTable
 70
     5
  0
STYLE
  5
11
330
3
100
AcDbSymbolTableRecord
100
AcDbTextStyleTableRecord
  2
Standard
 70
     0
 40
0.0
 41
1.0
 50
0.0
 71
     0
 42
0.2
  3
txt
  4

  0
STYLE
  5
43C
330
3
100
AcDbSymbolTableRecord
100
AcDbTextStyleTableRecord
  2
KICAD
 70
     0
 40
0.0
 41
1.0
 50
0.0
 71
     0
 42
1.0
  3
isocp.shx
  4

  0
STYLE
  5
43D
330
3
100
AcDbSymbolTableRecord
100
AcDbTextStyleTableRecord
  2
KICADB
 70
     0
 40
0.0
 41
1.0
 50
0.0
 71
     0
 42
1.0
  3
isocp.shx
  4

  0
STYLE
  5
43E
330
3
100
AcDbSymbolTableRecord
100
AcDbTextStyleTableRecord
  2
KICADI
 70
     0
 40
0.0
 41
1.0
 50
15.0
 71
     0
 42
1.0
  3
isocp.shx
  4

  0
STYLE
  5
43F
330
3
100
AcDbSymbolTableRecord
100
AcDbTextStyleTableRecord
  2
KICADBI
 70
     0
 40
0.0
 41
1.0
 50
15.0
 71
     0
 42
1.0
  3
isocp.shx
  4

  0
ENDTAB
  0
TABLE
  2
VIEW
  5
6
330
0
100
AcDbSymbolTable
 70
     0
  0
ENDTAB
  0
TABLE
  2
UCS
  5
7
330
0
100
AcDbSymbolTable
 70
     0
  0
ENDTAB
  0
TABLE
  2
APPID
  5
9
330
0
100
AcDbSymbolTable
 70
     3
  0
APPID
  5
12
330
9
100
AcDbSymbolTableRecord
100
AcDbRegAppTableRecord
  2
ACAD
 70
     0
  0
APPID
  5
70E
330
9
100
AcDbSymbolTableRecord
100
AcDbRegAppTableRecord
  2
HATCHBACKGROUNDCOLOR
 70
     0
  0
APPID
  5
70F
330
9
100
AcDbSymbolTableRecord
100
AcDbRegAppTableRecord
  2
EZDXF
 70
     0
  0
ENDTAB
  0
TABLE
  2
DIMSTYLE
  5
A
330
0
100
AcDbSymbolTable
 70
     2
100
AcDbDimStyleTable
  0
DIMSTYLE
105
441
330
A
100
AcDbSymbolTableRecord
100
AcDbDimStyleTableRecord
  2
ISO-25
 70
     0
 41
2.5
 42
0.625
 43
3.75
 44
1.25
 49
2.5
 73
     0
 74
     0
 77
     1
 78
     8
 79
     3
140
2.5
141
2.5
143
0.03937007874016
147
0.625
171
     3
172
     1
178
     0
179
     2
271
     2
272
     2
274
     3
278
    44
283
     0
284
     8
340
11
  0
DIMSTYLE
105
70D
330
A
100
AcDbSymbolTableRecord
100
AcDbDimStyleTableRecord
  2
Standard
 70
     0
 41
2.5
 42
0.625
 43
3.75
 44
1.25
 49
2.5
 73
     0
 74
     0
 77
     1
 78
     8
 79
     3
140
2.5
141
2.5
143
0.03937007874
147
0.625
171
     3
172
     1
178
     0
179
     2
271
     2
272
     2
274
     3
278
    44
283
     0
284
     8
340
11
  0
ENDTAB
  0
TABLE
  2
BLOCK_RECORD
  5
1
330
0
100
AcDbSymbolTable
 70
     0
  0
BLOCK_RECORD
  5
1D
330
1
100
AcDbSymbolTableRecord
100
AcDbBlockTableRecord
  2
*Model_Space
340
1E
 70
     0
280
     1
281
     0
  0
BLOCK_RECORD
  5
1B
330
1
100
AcDbSymbolTableRecord
100
AcDbBlockTableRecord
  2
*Paper_Space
340
1C
 70
     0
280
     1
281
     0
  0
ENDTAB
  0
ENDSEC
  0
SECTION
  2
BLOCKS
  0
BLOCK
  5
6DC
330
1D
100
AcDbEntity
  8
0
100
AcDbBlockBegin
  2
*Model_Space
 70
     0
 10
0.0
 20
0.0
 30
0.0
  3
*Model_Space
  1

  0
ENDBLK
  5
6DD
330
1D
100
AcDbEntity
  8
0
100
AcDbBlockEnd
  0
BLOCK
  5
6DE
330
1B
100
AcDbEntity
 67
     1
  8
0
100
AcDbBlockBegin
  2
*Paper_Space
 70
     0
 10
0.0
 20
0.0
 30
0.0
  3
*Paper_Space
  1

  0
ENDBLK
  5
6DF
330
1B
100
AcDbEntity
 67
     1
  8
0
100
AcDbBlockEnd
  0
ENDSEC
  0
SECTION
  2
ENTITIES
  0
LINE
  5
443
330
1D
100
AcDbEntity
  8
BLACK
  6
Continuous
100
AcDbLine
 10
13.938725
 20
-45.09995
 30
0.0
 11
13.938725
 21
-45.1
 31
0.0
  0
LINE
  5
444
330
1D
100
AcDbEntity
  8
BLACK
  6
Continuous
100
AcDbLine
 10
247.301225
 20
-64.14999999999999
 30
0.0
 11
247.301225
 21
-64.14995
 31
0.0
  0
LINE
  5
445
330
1D
100
AcDbEntity
  8
BLACK
  6
Continuous
100
AcDbLine
 10
233.701225
 20
-50.15
 30
0.0
 11
233.701225
 21
-50.15005
 31
0.0
  0
LINE
  5
446
330
1D
100
AcDbEntity
  8
BLACK
  6
Continuous
100
AcDbLine
 10
57.181307
 20
-92.641508
 30
0.0
 11
57.181302
 21
-92.641509
 31
0.0
  0
LINE
  5
447
330
1D
100
AcDbEntity
  8
BLACK
  6
Continuous
100
AcDbLine
 10
-41.49369799999999
 20
-92.641508
 30
0.0
 11
-41.493699
 21
-92.641508
 31
0.0
  0
LINE
  5
448
330
1D
100
AcDbEntity
  8
BLACK
  6
Continuous
100
AcDbLine
 10
31.958644
 20
16.398107
 30
0.0
 11
31.958647
 21
16.398108
 31
0.0
  0
LINE
  5
449
330
1D
100
AcDbEntity
  8
BLACK
  6
Continuous
100
AcDbLine
 10
122.446144
 20
16.398107
 30
0.0
 11
122.446147
 21
16.398108
 31
0.0
  0
LINE
  5
44A
330
1D
100
AcDbEntity
  8
BLACK
  6
Continuous
100
AcDbLine
 10
222.458644
 20
16.398107
 30
0.0
 11
222.458647
 21
16.398108
 31
0.0
  0
LINE
  5
44B
330
1D
100
AcDbEntity
  8
BLACK
  6
Continuous
100
AcDbLine
 10
282.108644
 20
16.398107
 30
0.0
 11
282.108647
 21
16.398108
 31
0.0
  0
LINE
  5
44C
330
1D
100
AcDbEntity
  8
BLACK
  6
Continuous
100
AcDbLine
 10
300.244998
 20
-33.182977
 30
0.0
 11
300.244975
 21
-33.182977
 31
0.0
  0
LINE
  5
44D
330
1D
100
AcDbEntity
  8
BLACK
  6
Continuous
100
AcDbLine
 10
301.510873
 20
-41.578866
 30
0.0
 11
301.510864
 21
-41.578805
 31
0.0
  0
LINE
  5
44E
330
1D
100
AcDbEntity
  8
BLACK
  6
Continuous
100
AcDbLine
 10
296.244974
 20
-91.527065
 30
0.0
 11
296.244974
 21
-91.527
 31
0.0
  0
LINE
  5
44F
330
1D
100
AcDbEntity
  8
BLACK
  6
Continuous
100
AcDbLine
 10
272.831306
 20
-92.641508
 30
0.0
 11
272.831302
 21
-92.641509
 31
0.0
  0
LINE
  5
450
330
1D
100
AcDbEntity
  8
BLACK
  6
Continuous
100
AcDbLine
 10
192.856307
 20
-92.641508
 30
0.0
 11
192.856302
 21
-92.641509
 31
0.0
  0
LINE
  5
451
330
1D
100
AcDbEntity
  8
BLACK
  6
Continuous
100
AcDbLine
 10
-62.130025
 20
11.283663
 30
0.0
 11
-62.130025
 21
-33.182976
 31
0.0
  0
ARC
  5
452
330
1D
100
AcDbEntity
  8
BLACK
100
AcDbCircle
 10
-63.630027
 20
-33.182976
 30
0.0
 40
1.500002
100
AcDbArc
 50
278.97911613
 51
0.0
  0
ARC
  5
453
330
1D
100
AcDbEntity
  8
BLACK
100
AcDbCircle
 10
-62.849659
 20
-38.121705
 30
0.0
 40
3.499999750773848
100
AcDbArc
 50
98.97904096000002
 51
261.02095904
  0
ARC
  5
454
330
1D
100
AcDbEntity
  8
BLACK
100
AcDbCircle
 10
-63.63002299999999
 20
-43.060431
 30
0.0
 40
1.49999849678358
100
AcDbArc
 50
0.0
 51
81.02101691
  0
LINE
  5
455
330
1D
100
AcDbEntity
  8
BLACK
  6
Continuous
100
AcDbLine
 10
-62.130025
 20
-43.060431
 30
0.0
 11
-62.130025
 21
-87.52706599999999
 31
0.0
  0
ARC
  5
456
330
1D
100
AcDbEntity
  8
BLACK
100
AcDbCircle
 10
-58.130025
 20
-87.527065
 30
0.0
 40
4.000000000000124
100
AcDbArc
 50
180.00001432
 51
270.00001432
  0
LINE
  5
457
330
1D
100
AcDbEntity
  8
BLACK
  6
Continuous
100
AcDbLine
 10
-58.130024
 20
-91.527065
 30
0.0
 11
-47.105025
 21
-91.52706099999999
 31
0.0
  0
LINE
  5
458
330
1D
100
AcDbEntity
  8
BLACK
  6
Continuous
100
AcDbLine
 10
-47.105025
 20
-91.52706099999999
 30
0.0
 11
-42.943302
 21
-91.52706099999999
 31
0.0
  0
ARC
  5
459
330
1D
100
AcDbEntity
  8
BLACK
100
AcDbCircle
 10
-42.943302
 20
-93.027063
 30
0.0
 40
1.500002
100
AcDbArc
 50
14.89428585
 51
90.0
  0
ARC
  5
45A
330
1D
100
AcDbEntity
  8
BLACK
100
AcDbCircle
 10
-38.105025
 20
-91.740218
 30
0.0
 40
3.506484727241229
100
AcDbArc
 50
194.89421379
 51
345.10578621
  0
ARC
  5
45B
330
1D
100
AcDbEntity
  8
BLACK
100
AcDbCircle
 10
-33.266748
 20
-93.02705999999999
 30
0.0
 40
1.49999973410431
100
AcDbArc
 50
89.99996179999998
 51
165.10581507
  0
LINE
  5
45C
330
1D
100
AcDbEntity
  8
BLACK
  6
Continuous
100
AcDbLine
 10
-33.266747
 20
-91.52706099999999
 30
0.0
 11
55.731675
 21
-91.527062
 31
0.0
  0
ARC
  5
45D
330
1D
100
AcDbEntity
  8
BLACK
100
AcDbCircle
 10
55.731675
 20
-93.02709999999999
 30
0.0
 40
1.500038
100
AcDbArc
 50
14.89537673
 51
90.0
  0
ARC
  5
45E
330
1D
100
AcDbEntity
  8
BLACK
100
AcDbCircle
 10
60.569975
 20
-91.740218
 30
0.0
 40
3.5064840178746
100
AcDbArc
 50
194.89423378
 51
345.10576622
  0
ARC
  5
45F
330
1D
100
AcDbEntity
  8
BLACK
100
AcDbCircle
 10
65.408275
 20
-93.02709999999999
 30
0.0
 40
1.500032952441379
100
AcDbArc
 50
90.0
 51
165.10461109
  0
LINE
  5
460
330
1D
100
AcDbEntity
  8
BLACK
  6
Continuous
100
AcDbLine
 10
65.408275
 20
-91.527062
 30
0.0
 11
191.406675
 21
-91.527062
 31
0.0
  0
ARC
  5
461
330
1D
100
AcDbEntity
  8
BLACK
100
AcDbCircle
 10
191.406675
 20
-93.02709999999999
 30
0.0
 40
1.500038
100
AcDbArc
 50
14.89537673
 51
90.0
  0
ARC
  5
462
330
1D
100
AcDbEntity
  8
BLACK
100
AcDbCircle
 10
196.244975
 20
-91.740218
 30
0.0
 40
3.5064840178746
100
AcDbArc
 50
194.89423378
 51
345.10576622
  0
ARC
  5
463
330
1D
100
AcDbEntity
  8
BLACK
100
AcDbCircle
 10
201.083275
 20
-93.02709999999999
 30
0.0
 40
1.500032952441379
100
AcDbArc
 50
90.0
 51
165.10461109
  0
LINE
  5
464
330
1D
100
AcDbEntity
  8
BLACK
  6
Continuous
100
AcDbLine
 10
201.083275
 20
-91.527063
 30
0.0
 11
271.381675
 21
-91.527063
 31
0.0
  0
ARC
  5
465
330
1D
100
AcDbEntity
  8
BLACK
100
AcDbCircle
 10
271.381675
 20
-93.02709999999999
 30
0.0
 40
1.500037
100
AcDbArc
 50
14.89538655
 51
90.0
  0
ARC
  5
466
330
1D
100
AcDbEntity
  8
BLACK
100
AcDbCircle
 10
276.219975
 20
-91.740218
 30
0.0
 40
3.5064840178746
100
AcDbArc
 50
194.89423378
 51
345.10576622
  0
ARC
  5
467
330
1D
100
AcDbEntity
  8
BLACK
100
AcDbCircle
 10
281.058275
 20
-93.02709999999999
 30
0.0
 40
1.500032952441379
100
AcDbArc
 50
90.0
 51
165.10461109
  0
LINE
  5
468
330
1D
100
AcDbEntity
  8
BLACK
  6
Continuous
100
AcDbLine
 10
281.058275
 20
-91.527063
 30
0.0
 11
285.219975
 21
-91.527063
 31
0.0
  0
LINE
  5
469
330
1D
100
AcDbEntity
  8
BLACK
  6
Continuous
100
AcDbLine
 10
285.219975
 20
-91.527063
 30
0.0
 11
296.244974
 21
-91.527065
 31
0.0
  0
ARC
  5
46A
330
1D
100
AcDbEntity
  8
BLACK
100
AcDbCircle
 10
296.245075
 20
-87.52709999999999
 30
0.0
 40
3.9999
100
AcDbArc
 50
269.99855325
 51
0.0
  0
LINE
  5
46B
330
1D
100
AcDbEntity
  8
BLACK
  6
Continuous
100
AcDbLine
 10
300.244975
 20
-87.52709999999999
 30
0.0
 11
300.244975
 21
-43.0604
 31
0.0
  0
ARC
  5
46C
330
1D
100
AcDbEntity
  8
BLACK
100
AcDbCircle
 10
301.744875
 20
-43.0604
 30
0.0
 40
1.4999
100
AcDbArc
 50
98.97547838
 51
180.0
  0
ARC
  5
46D
330
1D
100
AcDbEntity
  8
BLACK
100
AcDbCircle
 10
300.964575
 20
-38.1217
 30
0.0
 40
3.500001106446253
100
AcDbArc
 50
278.97958478
 51
81.02039905
  0
ARC
  5
46E
330
1D
100
AcDbEntity
  8
BLACK
100
AcDbCircle
 10
301.744975
 20
-33.183
 30
0.0
 40
1.499977078533202
100
AcDbArc
 50
179.99912145
 51
261.02081029
  0
LINE
  5
46F
330
1D
100
AcDbEntity
  8
BLACK
  6
Continuous
100
AcDbLine
 10
300.244975
 20
-33.182977
 30
0.0
 11
300.244975
 21
11.261229
 31
0.0
  0
ARC
  5
470
330
1D
100
AcDbEntity
  8
BLACK
100
AcDbCircle
 10
296.244875
 20
11.2835
 30
0.0
 40
4.000163
100
AcDbArc
 50
359.68100269
 51
90.0
  0
LINE
  5
471
330
1D
100
AcDbEntity
  8
BLACK
  6
Continuous
100
AcDbLine
 10
296.244875
 20
15.283663
 30
0.0
 11
283.558275
 21
15.283663
 31
0.0
  0
ARC
  5
472
330
1D
100
AcDbEntity
  8
BLACK
100
AcDbCircle
 10
283.558275
 20
16.7837
 30
0.0
 40
1.500037
100
AcDbArc
 50
194.89542346
 51
270.0
  0
ARC
  5
473
330
1D
100
AcDbEntity
  8
BLACK
100
AcDbCircle
 10
278.719975
 20
15.496812
 30
0.0
 40
3.506484336654022
100
AcDbArc
 50
14.89431694
 51
165.10568306
  0
ARC
  5
474
330
1D
100
AcDbEntity
  8
BLACK
100
AcDbCircle
 10
273.881675
 20
16.7837
 30
0.0
 40
1.500034175893336
100
AcDbArc
 50
270.0
 51
345.104584
  0
LINE
  5
475
330
1D
100
AcDbEntity
  8
BLACK
  6
Continuous
100
AcDbLine
 10
273.881675
 20
15.283663
 30
0.0
 11
223.908275
 21
15.283663
 31
0.0
  0
ARC
  5
476
330
1D
100
AcDbEntity
  8
BLACK
100
AcDbCircle
 10
223.908275
 20
16.7837
 30
0.0
 40
1.500037
100
AcDbArc
 50
194.89542346
 51
270.0
  0
ARC
  5
477
330
1D
100
AcDbEntity
  8
BLACK
100
AcDbCircle
 10
219.069975
 20
15.496812
 30
0.0
 40
3.506484336654022
100
AcDbArc
 50
14.89431694
 51
165.10568306
  0
ARC
  5
478
330
1D
100
AcDbEntity
  8
BLACK
100
AcDbCircle
 10
214.231675
 20
16.7837
 30
0.0
 40
1.500034175893336
100
AcDbArc
 50
270.0
 51
345.104584
  0
LINE
  5
479
330
1D
100
AcDbEntity
  8
BLACK
  6
Continuous
100
AcDbLine
 10
214.231675
 20
15.283663
 30
0.0
 11
123.895775
 21
15.283663
 31
0.0
  0
ARC
  5
47A
330
1D
100
AcDbEntity
  8
BLACK
100
AcDbCircle
 10
123.895775
 20
16.7837
 30
0.0
 40
1.500037
100
AcDbArc
 50
194.89542346
 51
270.0
  0
ARC
  5
47B
330
1D
100
AcDbEntity
  8
BLACK
100
AcDbCircle
 10
119.057475
 20
15.496812
 30
0.0
 40
3.506484336654022
100
AcDbArc
 50
14.89431694
 51
165.10568306
  0
ARC
  5
47C
330
1D
100
AcDbEntity
  8
BLACK
100
AcDbCircle
 10
114.219175
 20
16.7837
 30
0.0
 40
1.500034175893336
100
AcDbArc
 50
270.0
 51
345.104584
  0
LINE
  5
47D
330
1D
100
AcDbEntity
  8
BLACK
  6
Continuous
100
AcDbLine
 10
114.219175
 20
15.283663
 30
0.0
 11
33.408275
 21
15.283663
 31
0.0
  0
ARC
  5
47E
330
1D
100
AcDbEntity
  8
BLACK
100
AcDbCircle
 10
33.408275
 20
16.7837
 30
0.0
 40
1.500037
100
AcDbArc
 50
194.89542346
 51
270.0
  0
ARC
  5
47F
330
1D
100
AcDbEntity
  8
BLACK
100
AcDbCircle
 10
28.569975
 20
15.496812
 30
0.0
 40
3.506484336654022
100
AcDbArc
 50
14.89431694
 51
165.10568306
  0
ARC
  5
480
330
1D
100
AcDbEntity
  8
BLACK
100
AcDbCircle
 10
23.731675
 20
16.7837
 30
0.0
 40
1.500034175893336
100
AcDbArc
 50
270.0
 51
345.104584
  0
LINE
  5
481
330
1D
100
AcDbEntity
  8
BLACK
  6
Continuous
100
AcDbLine
 10
23.731675
 20
15.283663
 30
0.0
 11
-33.266751
 21
15.283663
 31
0.0
  0
ARC
  5
482
330
1D
100
AcDbEntity
  8
BLACK
100
AcDbCircle
 10
-33.26675
 20
16.783664
 30
0.0
 40
1.500001000000333
100
AcDbArc
 50
194.8943325799999
 51
269.9999618
  0
ARC
  5
483
330
1D
100
AcDbEntity
  8
BLACK
100
AcDbCircle
 10
-38.105025
 20
15.496812
 30
0.0
 40
3.506484336654022
100
AcDbArc
 50
14.89431694
 51
165.10568306
  0
ARC
  5
484
330
1D
100
AcDbEntity
  8
BLACK
100
AcDbCircle
 10
-42.9433
 20
16.783664
 30
0.0
 40
1.500000762248139
100
AcDbArc
 50
270.0000382
 51
345.10566742
  0
LINE
  5
485
330
1D
100
AcDbEntity
  8
BLACK
  6
Continuous
100
AcDbLine
 10
-42.943299
 20
15.283663
 30
0.0
 11
-58.130025
 21
15.283663
 31
0.0
  0
ARC
  5
486
330
1D
100
AcDbEntity
  8
BLACK
100
AcDbCircle
 10
-58.130025
 20
11.283663
 30
0.0
 40
4.0
100
AcDbArc
 50
90.0
 51
180.0
  0
CIRCLE
  5
487
330
1D
100
AcDbEntity
  8
BLACK
100
AcDbCircle
 10
278.719975
 20
15.503296
 30
0.0
 40
1.75
  0
CIRCLE
  5
488
330
1D
100
AcDbEntity
  8
BLACK
100
AcDbCircle
 10
300.964609
 20
-38.121705
 30
0.0
 40
1.75
  0
CIRCLE
  5
489
330
1D
100
AcDbEntity
  8
BLACK
100
AcDbCircle
 10
276.219975
 20
-91.746702
 30
0.0
 40
1.75
  0
CIRCLE
  5
48A
330
1D
100
AcDbEntity
  8
BLACK
100
AcDbCircle
 10
196.244975
 20
-91.746702
 30
0.0
 40
1.75
  0
CIRCLE
  5
48B
330
1D
100
AcDbEntity
  8
BLACK
100
AcDbCircle
 10
-62.849659
 20
-38.121705
 30
0.0
 40
1.75
  0
CIRCLE
  5
48C
330
1D
100
AcDbEntity
  8
BLACK
100
AcDbCircle
 10
219.069975
 20
15.496811
 30
0.0
 40
1.75
  0
CIRCLE
  5
48D
330
1D
100
AcDbEntity
  8
BLACK
100
AcDbCircle
 10
-38.105025
 20
-91.746702
 30
0.0
 40
1.75
  0
CIRCLE
  5
48E
330
1D
100
AcDbEntity
  8
BLACK
100
AcDbCircle
 10
60.569975
 20
-91.746702
 30
0.0
 40
1.75
  0
CIRCLE
  5
48F
330
1D
100
AcDbEntity
  8
BLACK
100
AcDbCircle
 10
-38.105025
 20
15.496811
 30
0.0
 40
1.75
  0
CIRCLE
  5
490
330
1D
100
AcDbEntity
  8
BLACK
100
AcDbCircle
 10
119.057475
 20
15.503296
 30
0.0
 40
1.75
  0
CIRCLE
  5
491
330
1D
100
AcDbEntity
  8
BLACK
100
AcDbCircle
 10
28.569975
 20
15.496811
 30
0.0
 40
1.75
  0
LINE
  5
492
330
1D
100
AcDbEntity
  8
BLACK
  6
Continuous
100
AcDbLine
 10
136.069975
 20
-26.05
 30
0.0
 11
149.669975
 21
-26.05
 31
0.0
  0
ARC
  5
493
330
1D
100
AcDbEntity
  8
BLACK
100
AcDbCircle
 10
149.669975
 20
-25.55
 30
0.0
 40
0.5
100
AcDbArc
 50
270.0
 51
0.0
  0
LINE
  5
494
330
1D
100
AcDbEntity
  8
BLACK
  6
Continuous
100
AcDbLine
 10
150.169975
 20
-25.55
 30
0.0
 11
150.169975
 21
-12.55
 31
0.0
  0
ARC
  5
495
330
1D
100
AcDbEntity
  8
BLACK
100
AcDbCircle
 10
149.669975
 20
-12.55
 30
0.0
 40
0.5
100
AcDbArc
 50
0.0
 51
90.0
  0
LINE
  5
496
330
1D
100
AcDbEntity
  8
BLACK
  6
Continuous
100
AcDbLine
 10
149.669975
 20
-12.05
 30
0.0
 11
136.069975
 21
-12.05
 31
0.0
  0
ARC
  5
497
330
1D
100
AcDbEntity
  8
BLACK
100
AcDbCircle
 10
136.069975
 20
-12.55
 30
0.0
 40
0.5
100
AcDbArc
 50
90.0
 51
180.0
  0
LINE
  5
498
330
1D
100
AcDbEntity
  8
BLACK
  6
Continuous
100
AcDbLine
 10
135.569975
 20
-12.55
 30
0.0
 11
135.569975
 21
-25.55
 31
0.0
  0
ARC
  5
499
330
1D
100
AcDbEntity
  8
BLACK
100
AcDbCircle
 10
136.069975
 20
-25.55
 30
0.0
 40
0.5
100
AcDbArc
 50
180.0
 51
270.0
  0
ARC
  5
49A
330
1D
100
AcDbEntity
  8
BLACK
100
AcDbCircle
 10
292.544975
 20
-6.5
 30
0.0
 40
0.5
100
AcDbArc
 50
270.0
 51
0.0
  0
LINE
  5
49B
330
1D
100
AcDbEntity
  8
BLACK
  6
Continuous
100
AcDbLine
 10
293.044975
 20
-6.5
 30
0.0
 11
293.044975
 21
6.5
 31
0.0
  0
ARC
  5
49C
330
1D
100
AcDbEntity
  8
BLACK
100
AcDbCircle
 10
292.544975
 20
6.5
 30
0.0
 40
0.5
100
AcDbArc
 50
0.0
 51
90.0
  0
LINE
  5
49D
330
1D
100
AcDbEntity
  8
BLACK
  6
Continuous
100
AcDbLine
 10
292.544975
 20
7.0
 30
0.0
 11
278.944975
 21
7.0
 31
0.0
  0
ARC
  5
49E
330
1D
100
AcDbEntity
  8
BLACK
100
AcDbCircle
 10
278.944975
 20
6.5
 30
0.0
 40
0.5
100
AcDbArc
 50
90.0
 51
180.0
  0
LINE
  5
49F
330
1D
100
AcDbEntity
  8
BLACK
  6
Continuous
100
AcDbLine
 10
278.444975
 20
6.5
 30
0.0
 11
278.444975
 21
-6.5
 31
0.0
  0
ARC
  5
4A0
330
1D
100
AcDbEntity
  8
BLACK
100
AcDbCircle
 10
278.944975
 20
-6.5
 30
0.0
 40
0.5
100
AcDbArc
 50
180.0
 51
270.0
  0
LINE
  5
4A1
330
1D
100
AcDbEntity
  8
BLACK
  6
Continuous
100
AcDbLine
 10
278.944975
 20
-7.0
 30
0.0
 11
292.544975
 21
-7.0
 31
0.0
  0
LINE
  5
4A2
330
1D
100
AcDbEntity
  8
BLACK
  6
Continuous
100
AcDbLine
 10
231.319975
 20
-26.05
 30
0.0
 11
244.919975
 21
-26.05
 31
0.0
  0
ARC
  5
4A3
330
1D
100
AcDbEntity
  8
BLACK
100
AcDbCircle
 10
244.919975
 20
-25.55
 30
0.0
 40
0.5
100
AcDbArc
 50
270.0
 51
0.0
  0
LINE
  5
4A4
330
1D
100
AcDbEntity
  8
BLACK
  6
Continuous
100
AcDbLine
 10
245.419975
 20
-25.55
 30
0.0
 11
245.419975
 21
-12.55
 31
0.0
  0
ARC
  5
4A5
330
1D
100
AcDbEntity
  8
BLACK
100
AcDbCircle
 10
244.919975
 20
-12.55
 30
0.0
 40
0.5
100
AcDbArc
 50
0.0
 51
90.0
  0
LINE
  5
4A6
330
1D
100
AcDbEntity
  8
BLACK
  6
Continuous
100
AcDbLine
 10
244.919975
 20
-12.05
 30
0.0
 11
231.319975
 21
-12.05
 31
0.0
  0
ARC
  5
4A7
330
1D
100
AcDbEntity
  8
BLACK
100
AcDbCircle
 10
231.319975
 20
-12.55
 30
0.0
 40
0.5
100
AcDbArc
 50
90.0
 51
180.0
  0
LINE
  5
4A8
330
1D
100
AcDbEntity
  8
BLACK
  6
Continuous
100
AcDbLine
 10
230.819975
 20
-12.55
 30
0.0
 11
230.819975
 21
-25.55
 31
0.0
  0
ARC
  5
4A9
330
1D
100
AcDbEntity
  8
BLACK
100
AcDbCircle
 10
231.319975
 20
-25.55
 30
0.0
 40
0.5
100
AcDbArc
 50
180.0
 51
270.0
  0
LINE
  5
4AA
330
1D
100
AcDbEntity
  8
BLACK
  6
Continuous
100
AcDbLine
 10
59.682475
 20
-44.6
 30
0.0
 11
59.682475
 21
-31.6
 31
0.0
  0
ARC
  5
4AB
330
1D
100
AcDbEntity
  8
BLACK
100
AcDbCircle
 10
59.182475
 20
-31.6
 30
0.0
 40
0.5
100
AcDbArc
 50
0.0
 51
90.0
  0
LINE
  5
4AC
330
1D
100
AcDbEntity
  8
BLACK
  6
Continuous
100
AcDbLine
 10
59.182475
 20
-31.1
 30
0.0
 11
45.582475
 21
-31.1
 31
0.0
  0
ARC
  5
4AD
330
1D
100
AcDbEntity
  8
BLACK
100
AcDbCircle
 10
45.582475
 20
-31.6
 30
0.0
 40
0.5
100
AcDbArc
 50
90.0
 51
180.0
  0
LINE
  5
4AE
330
1D
100
AcDbEntity
  8
BLACK
  6
Continuous
100
AcDbLine
 10
45.082475
 20
-31.6
 30
0.0
 11
45.082475
 21
-44.6
 31
0.0
  0
ARC
  5
4AF
330
1D
100
AcDbEntity
  8
BLACK
100
AcDbCircle
 10
45.582475
 20
-44.6
 30
0.0
 40
0.5
100
AcDbArc
 50
180.0
 51
270.0
  0
LINE
  5
4B0
330
1D
100
AcDbEntity
  8
BLACK
  6
Continuous
100
AcDbLine
 10
45.582475
 20
-45.1
 30
0.0
 11
59.182475
 21
-45.1
 31
0.0
  0
ARC
  5
4B1
330
1D
100
AcDbEntity
  8
BLACK
100
AcDbCircle
 10
59.182475
 20
-44.6
 30
0.0
 40
0.5
100
AcDbArc
 50
270.0
 51
0.0
  0
LINE
  5
4B2
330
1D
100
AcDbEntity
  8
BLACK
  6
Continuous
100
AcDbLine
 10
35.369975
 20
-12.05
 30
0.0
 11
21.769975
 21
-12.05
 31
0.0
  0
ARC
  5
4B3
330
1D
100
AcDbEntity
  8
BLACK
100
AcDbCircle
 10
21.769975
 20
-12.55
 30
0.0
 40
0.5
100
AcDbArc
 50
90.0
 51
180.0
  0
LINE
  5
4B4
330
1D
100
AcDbEntity
  8
BLACK
  6
Continuous
100
AcDbLine
 10
21.269975
 20
-12.55
 30
0.0
 11
21.269975
 21
-25.55
 31
0.0
  0
ARC
  5
4B5
330
1D
100
AcDbEntity
  8
BLACK
100
AcDbCircle
 10
21.769975
 20
-25.55
 30
0.0
 40
0.5
100
AcDbArc
 50
180.0
 51
270.0
  0
LINE
  5
4B6
330
1D
100
AcDbEntity
  8
BLACK
  6
Continuous
100
AcDbLine
 10
21.769975
 20
-26.05
 30
0.0
 11
35.369975
 21
-26.05
 31
0.0
  0
ARC
  5
4B7
330
1D
100
AcDbEntity
  8
BLACK
100
AcDbCircle
 10
35.369975
 20
-25.55
 30
0.0
 40
0.5
100
AcDbArc
 50
270.0
 51
0.0
  0
LINE
  5
4B8
330
1D
100
AcDbEntity
  8
BLACK
  6
Continuous
100
AcDbLine
 10
35.869975
 20
-25.55
 30
0.0
 11
35.869975
 21
-12.55
 31
0.0
  0
ARC
  5
4B9
330
1D
100
AcDbEntity
  8
BLACK
100
AcDbCircle
 10
35.369975
 20
-12.55
 30
0.0
 40
0.5
100
AcDbArc
 50
0.0
 51
90.0
  0
LINE
  5
4BA
330
1D
100
AcDbEntity
  8
BLACK
  6
Continuous
100
AcDbLine
 10
178.932475
 20
-45.1
 30
0.0
 11
192.532475
 21
-45.1
 31
0.0
  0
ARC
  5
4BB
330
1D
100
AcDbEntity
  8
BLACK
100
AcDbCircle
 10
192.532475
 20
-44.6
 30
0.0
 40
0.5
100
AcDbArc
 50
270.0
 51
0.0
  0
LINE
  5
4BC
330
1D
100
AcDbEntity
  8
BLACK
  6
Continuous
100
AcDbLine
 10
193.032475
 20
-44.6
 30
0.0
 11
193.032475
 21
-31.6
 31
0.0
  0
ARC
  5
4BD
330
1D
100
AcDbEntity
  8
BLACK
100
AcDbCircle
 10
192.532475
 20
-31.6
 30
0.0
 40
0.5
100
AcDbArc
 50
0.0
 51
90.0
  0
LINE
  5
4BE
330
1D
100
AcDbEntity
  8
BLACK
  6
Continuous
100
AcDbLine
 10
192.532475
 20
-31.1
 30
0.0
 11
178.932475
 21
-31.1
 31
0.0
  0
ARC
  5
4BF
330
1D
100
AcDbEntity
  8
BLACK
100
AcDbCircle
 10
178.932475
 20
-31.6
 30
0.0
 40
0.5
100
AcDbArc
 50
90.0
 51
180.0
  0
LINE
  5
4C0
330
1D
100
AcDbEntity
  8
BLACK
  6
Continuous
100
AcDbLine
 10
178.432475
 20
-31.6
 30
0.0
 11
178.432475
 21
-44.6
 31
0.0
  0
ARC
  5
4C1
330
1D
100
AcDbEntity
  8
BLACK
100
AcDbCircle
 10
178.932475
 20
-44.6
 30
0.0
 40
0.5
100
AcDbArc
 50
180.0
 51
270.0
  0
LINE
  5
4C2
330
1D
100
AcDbEntity
  8
BLACK
  6
Continuous
100
AcDbLine
 10
174.169975
 20
-26.05
 30
0.0
 11
187.769975
 21
-26.05
 31
0.0
  0
ARC
  5
4C3
330
1D
100
AcDbEntity
  8
BLACK
100
AcDbCircle
 10
187.769975
 20
-25.55
 30
0.0
 40
0.5
100
AcDbArc
 50
270.0
 51
0.0
  0
LINE
  5
4C4
330
1D
100
AcDbEntity
  8
BLACK
  6
Continuous
100
AcDbLine
 10
188.269975
 20
-25.55
 30
0.0
 11
188.269975
 21
-12.55
 31
0.0
  0
ARC
  5
4C5
330
1D
100
AcDbEntity
  8
BLACK
100
AcDbCircle
 10
187.769975
 20
-12.55
 30
0.0
 40
0.5
100
AcDbArc
 50
0.0
 51
90.0
  0
LINE
  5
4C6
330
1D
100
AcDbEntity
  8
BLACK
  6
Continuous
100
AcDbLine
 10
187.769975
 20
-12.05
 30
0.0
 11
174.169975
 21
-12.05
 31
0.0
  0
ARC
  5
4C7
330
1D
100
AcDbEntity
  8
BLACK
100
AcDbCircle
 10
174.169975
 20
-12.55
 30
0.0
 40
0.5
100
AcDbArc
 50
90.0
 51
180.0
  0
LINE
  5
4C8
330
1D
100
AcDbEntity
  8
BLACK
  6
Continuous
100
AcDbLine
 10
173.669975
 20
-12.55
 30
0.0
 11
173.669975
 21
-25.55
 31
0.0
  0
ARC
  5
4C9
330
1D
100
AcDbEntity
  8
BLACK
100
AcDbCircle
 10
174.169975
 20
-25.55
 30
0.0
 40
0.5
100
AcDbArc
 50
180.0
 51
270.0
  0
LINE
  5
4CA
330
1D
100
AcDbEntity
  8
BLACK
  6
Continuous
100
AcDbLine
 10
31.294975
 20
-7.0
 30
0.0
 11
44.894975
 21
-7.0
 31
0.0
  0
ARC
  5
4CB
330
1D
100
AcDbEntity
  8
BLACK
100
AcDbCircle
 10
44.894975
 20
-6.5
 30
0.0
 40
0.5
100
AcDbArc
 50
270.0
 51
0.0
  0
LINE
  5
4CC
330
1D
100
AcDbEntity
  8
BLACK
  6
Continuous
100
AcDbLine
 10
45.394975
 20
-6.5
 30
0.0
 11
45.394975
 21
6.5
 31
0.0
  0
ARC
  5
4CD
330
1D
100
AcDbEntity
  8
BLACK
100
AcDbCircle
 10
44.894975
 20
6.5
 30
0.0
 40
0.5
100
AcDbArc
 50
0.0
 51
90.0
  0
LINE
  5
4CE
330
1D
100
AcDbEntity
  8
BLACK
  6
Continuous
100
AcDbLine
 10
44.894975
 20
7.0
 30
0.0
 11
31.294975
 21
7.0
 31
0.0
  0
ARC
  5
4CF
330
1D
100
AcDbEntity
  8
BLACK
100
AcDbCircle
 10
31.294975
 20
6.5
 30
0.0
 40
0.5
100
AcDbArc
 50
90.0
 51
180.0
  0
LINE
  5
4D0
330
1D
100
AcDbEntity
  8
BLACK
  6
Continuous
100
AcDbLine
 10
30.794975
 20
6.5
 30
0.0
 11
30.794975
 21
-6.5
 31
0.0
  0
ARC
  5
4D1
330
1D
100
AcDbEntity
  8
BLACK
100
AcDbCircle
 10
31.294975
 20
-6.5
 30
0.0
 40
0.5
100
AcDbArc
 50
180.0
 51
270.0
  0
ARC
  5
4D2
330
1D
100
AcDbEntity
  8
BLACK
100
AcDbCircle
 10
221.794975
 20
6.5
 30
0.0
 40
0.5
100
AcDbArc
 50
90.0
 51
180.0
  0
LINE
  5
4D3
330
1D
100
AcDbEntity
  8
BLACK
  6
Continuous
100
AcDbLine
 10
221.294975
 20
6.5
 30
0.0
 11
221.294975
 21
-6.5
 31
0.0
  0
ARC
  5
4D4
330
1D
100
AcDbEntity
  8
BLACK
100
AcDbCircle
 10
221.794975
 20
-6.5
 30
0.0
 40
0.5
100
AcDbArc
 50
180.0
 51
270.0
  0
LINE
  5
4D5
330
1D
100
AcDbEntity
  8
BLACK
  6
Continuous
100
AcDbLine
 10
221.794975
 20
-7.0
 30
0.0
 11
235.394975
 21
-7.0
 31
0.0
  0
ARC
  5
4D6
330
1D
100
AcDbEntity
  8
BLACK
100
AcDbCircle
 10
235.394975
 20
-6.5
 30
0.0
 40
0.5
100
AcDbArc
 50
270.0
 51
0.0
  0
LINE
  5
4D7
330
1D
100
AcDbEntity
  8
BLACK
  6
Continuous
100
AcDbLine
 10
235.894975
 20
-6.5
 30
0.0
 11
235.894975
 21
6.5
 31
0.0
  0
ARC
  5
4D8
330
1D
100
AcDbEntity
  8
BLACK
100
AcDbCircle
 10
235.394975
 20
6.5
 30
0.0
 40
0.5
100
AcDbArc
 50
0.0
 51
90.0
  0
LINE
  5
4D9
330
1D
100
AcDbEntity
  8
BLACK
  6
Continuous
100
AcDbLine
 10
235.394975
 20
7.0
 30
0.0
 11
221.794975
 21
7.0
 31
0.0
  0
LINE
  5
4DA
330
1D
100
AcDbEntity
  8
BLACK
  6
Continuous
100
AcDbLine
 10
40.132475
 20
-31.1
 30
0.0
 11
26.532475
 21
-31.1
 31
0.0
  0
ARC
  5
4DB
330
1D
100
AcDbEntity
  8
BLACK
100
AcDbCircle
 10
26.532475
 20
-31.6
 30
0.0
 40
0.5
100
AcDbArc
 50
90.0
 51
180.0
  0
LINE
  5
4DC
330
1D
100
AcDbEntity
  8
BLACK
  6
Continuous
100
AcDbLine
 10
26.032475
 20
-31.6
 30
0.0
 11
26.032475
 21
-44.6
 31
0.0
  0
ARC
  5
4DD
330
1D
100
AcDbEntity
  8
BLACK
100
AcDbCircle
 10
26.532475
 20
-44.6
 30
0.0
 40
0.5
100
AcDbArc
 50
180.0
 51
270.0
  0
LINE
  5
4DE
330
1D
100
AcDbEntity
  8
BLACK
  6
Continuous
100
AcDbLine
 10
26.532475
 20
-45.1
 30
0.0
 11
40.132475
 21
-45.1
 31
0.0
  0
ARC
  5
4DF
330
1D
100
AcDbEntity
  8
BLACK
100
AcDbCircle
 10
40.132475
 20
-44.6
 30
0.0
 40
0.5
100
AcDbArc
 50
270.0
 51
0.0
  0
LINE
  5
4E0
330
1D
100
AcDbEntity
  8
BLACK
  6
Continuous
100
AcDbLine
 10
40.632475
 20
-44.6
 30
0.0
 11
40.632475
 21
-31.6
 31
0.0
  0
ARC
  5
4E1
330
1D
100
AcDbEntity
  8
BLACK
100
AcDbCircle
 10
40.132475
 20
-31.6
 30
0.0
 40
0.5
100
AcDbArc
 50
0.0
 51
90.0
  0
LINE
  5
4E2
330
1D
100
AcDbEntity
  8
BLACK
  6
Continuous
100
AcDbLine
 10
212.082475
 20
-44.6
 30
0.0
 11
212.082475
 21
-31.6
 31
0.0
  0
ARC
  5
4E3
330
1D
100
AcDbEntity
  8
BLACK
100
AcDbCircle
 10
211.582475
 20
-31.6
 30
0.0
 40
0.5
100
AcDbArc
 50
0.0
 51
90.0
  0
LINE
  5
4E4
330
1D
100
AcDbEntity
  8
BLACK
  6
Continuous
100
AcDbLine
 10
211.582475
 20
-31.1
 30
0.0
 11
197.982475
 21
-31.1
 31
0.0
  0
ARC
  5
4E5
330
1D
100
AcDbEntity
  8
BLACK
100
AcDbCircle
 10
197.982475
 20
-31.6
 30
0.0
 40
0.5
100
AcDbArc
 50
90.0
 51
180.0
  0
LINE
  5
4E6
330
1D
100
AcDbEntity
  8
BLACK
  6
Continuous
100
AcDbLine
 10
197.482475
 20
-31.6
 30
0.0
 11
197.482475
 21
-44.6
 31
0.0
  0
ARC
  5
4E7
330
1D
100
AcDbEntity
  8
BLACK
100
AcDbCircle
 10
197.982475
 20
-44.6
 30
0.0
 40
0.5
100
AcDbArc
 50
180.0
 51
270.0
  0
LINE
  5
4E8
330
1D
100
AcDbEntity
  8
BLACK
  6
Continuous
100
AcDbLine
 10
197.982475
 20
-45.1
 30
0.0
 11
211.582475
 21
-45.1
 31
0.0
  0
ARC
  5
4E9
330
1D
100
AcDbEntity
  8
BLACK
100
AcDbCircle
 10
211.582475
 20
-44.6
 30
0.0
 40
0.5
100
AcDbArc
 50
270.0
 51
0.0
  0
LINE
  5
4EA
330
1D
100
AcDbEntity
  8
BLACK
  6
Continuous
100
AcDbLine
 10
230.632475
 20
-31.1
 30
0.0
 11
217.032475
 21
-31.1
 31
0.0
  0
ARC
  5
4EB
330
1D
100
AcDbEntity
  8
BLACK
100
AcDbCircle
 10
217.032475
 20
-31.6
 30
0.0
 40
0.5
100
AcDbArc
 50
90.0
 51
180.0
  0
LINE
  5
4EC
330
1D
100
AcDbEntity
  8
BLACK
  6
Continuous
100
AcDbLine
 10
216.532475
 20
-31.6
 30
0.0
 11
216.532475
 21
-44.6
 31
0.0
  0
ARC
  5
4ED
330
1D
100
AcDbEntity
  8
BLACK
100
AcDbCircle
 10
217.032475
 20
-44.6
 30
0.0
 40
0.5
100
AcDbArc
 50
180.0
 51
270.0
  0
LINE
  5
4EE
330
1D
100
AcDbEntity
  8
BLACK
  6
Continuous
100
AcDbLine
 10
217.032475
 20
-45.1
 30
0.0
 11
230.632475
 21
-45.1
 31
0.0
  0
ARC
  5
4EF
330
1D
100
AcDbEntity
  8
BLACK
100
AcDbCircle
 10
230.632475
 20
-44.6
 30
0.0
 40
0.5
100
AcDbArc
 50
270.0
 51
0.0
  0
LINE
  5
4F0
330
1D
100
AcDbEntity
  8
BLACK
  6
Continuous
100
AcDbLine
 10
231.132475
 20
-44.6
 30
0.0
 11
231.132475
 21
-31.6
 31
0.0
  0
ARC
  5
4F1
330
1D
100
AcDbEntity
  8
BLACK
100
AcDbCircle
 10
230.632475
 20
-31.6
 30
0.0
 40
0.5
100
AcDbArc
 50
0.0
 51
90.0
  0
LINE
  5
4F3
330
1D
100
AcDbEntity
  8
BLACK
  6
Continuous
100
AcDbLine
 10
183.007475
 20
-50.15
 30
0.0
 11
169.407475
 21
-50.15
 31
0.0
  0
ARC
  5
4F4
330
1D
100
AcDbEntity
  8
BLACK
100
AcDbCircle
 10
169.407475
 20
-50.65
 30
0.0
 40
0.5
100
AcDbArc
 50
90.0
 51
180.0
  0
LINE
  5
4F5
330
1D
100
AcDbEntity
  8
BLACK
  6
Continuous
100
AcDbLine
 10
168.907475
 20
-50.65
 30
0.0
 11
168.907475
 21
-63.65
 31
0.0
  0
ARC
  5
4F6
330
1D
100
AcDbEntity
  8
BLACK
100
AcDbCircle
 10
169.407475
 20
-63.65
 30
0.0
 40
0.5
100
AcDbArc
 50
180.0
 51
270.0
  0
LINE
  5
4F7
330
1D
100
AcDbEntity
  8
BLACK
  6
Continuous
100
AcDbLine
 10
169.407475
 20
-64.14999999999999
 30
0.0
 11
183.007475
 21
-64.14999999999999
 31
0.0
  0
ARC
  5
4F8
330
1D
100
AcDbEntity
  8
BLACK
100
AcDbCircle
 10
183.007475
 20
-63.65
 30
0.0
 40
0.5
100
AcDbArc
 50
270.0
 51
0.0
  0
LINE
  5
4F9
330
1D
100
AcDbEntity
  8
BLACK
  6
Continuous
100
AcDbLine
 10
183.507475
 20
-63.65
 30
0.0
 11
183.507475
 21
-50.65
 31
0.0
  0
ARC
  5
4FA
330
1D
100
AcDbEntity
  8
BLACK
100
AcDbCircle
 10
183.007475
 20
-50.65
 30
0.0
 40
0.5
100
AcDbArc
 50
0.0
 51
90.0
  0
ARC
  5
4FB
330
1D
100
AcDbEntity
  8
BLACK
100
AcDbCircle
 10
216.344975
 20
6.5
 30
0.0
 40
0.5
100
AcDbArc
 50
0.0
 51
90.0
  0
LINE
  5
4FC
330
1D
100
AcDbEntity
  8
BLACK
  6
Continuous
100
AcDbLine
 10
216.344975
 20
7.0
 30
0.0
 11
202.744975
 21
7.0
 31
0.0
  0
ARC
  5
4FD
330
1D
100
AcDbEntity
  8
BLACK
100
AcDbCircle
 10
202.744975
 20
6.5
 30
0.0
 40
0.5
100
AcDbArc
 50
90.0
 51
180.0
  0
LINE
  5
4FE
330
1D
100
AcDbEntity
  8
BLACK
  6
Continuous
100
AcDbLine
 10
202.244975
 20
6.5
 30
0.0
 11
202.244975
 21
-6.5
 31
0.0
  0
ARC
  5
4FF
330
1D
100
AcDbEntity
  8
BLACK
100
AcDbCircle
 10
202.744975
 20
-6.5
 30
0.0
 40
0.5
100
AcDbArc
 50
180.0
 51
270.0
  0
LINE
  5
500
330
1D
100
AcDbEntity
  8
BLACK
  6
Continuous
100
AcDbLine
 10
202.744975
 20
-7.0
 30
0.0
 11
216.344975
 21
-7.0
 31
0.0
  0
ARC
  5
501
330
1D
100
AcDbEntity
  8
BLACK
100
AcDbCircle
 10
216.344975
 20
-6.5
 30
0.0
 40
0.5
100
AcDbArc
 50
270.0
 51
0.0
  0
LINE
  5
502
330
1D
100
AcDbEntity
  8
BLACK
  6
Continuous
100
AcDbLine
 10
216.844975
 20
-6.5
 30
0.0
 11
216.844975
 21
6.5
 31
0.0
  0
ARC
  5
503
330
1D
100
AcDbEntity
  8
BLACK
100
AcDbCircle
 10
188.457475
 20
-50.65
 30
0.0
 40
0.5
100
AcDbArc
 50
90.0
 51
180.0
  0
LINE
  5
504
330
1D
100
AcDbEntity
  8
BLACK
  6
Continuous
100
AcDbLine
 10
187.957475
 20
-50.65
 30
0.0
 11
187.957475
 21
-63.65
 31
0.0
  0
ARC
  5
505
330
1D
100
AcDbEntity
  8
BLACK
100
AcDbCircle
 10
188.457475
 20
-63.65
 30
0.0
 40
0.5
100
AcDbArc
 50
180.0
 51
270.0
  0
LINE
  5
506
330
1D
100
AcDbEntity
  8
BLACK
  6
Continuous
100
AcDbLine
 10
188.457475
 20
-64.14999999999999
 30
0.0
 11
202.057475
 21
-64.14999999999999
 31
0.0
  0
ARC
  5
507
330
1D
100
AcDbEntity
  8
BLACK
100
AcDbCircle
 10
202.057475
 20
-63.65
 30
0.0
 40
0.5
100
AcDbArc
 50
270.0
 51
0.0
  0
LINE
  5
508
330
1D
100
AcDbEntity
  8
BLACK
  6
Continuous
100
AcDbLine
 10
202.557475
 20
-63.65
 30
0.0
 11
202.557475
 21
-50.65
 31
0.0
  0
ARC
  5
509
330
1D
100
AcDbEntity
  8
BLACK
100
AcDbCircle
 10
202.057475
 20
-50.65
 30
0.0
 40
0.5
100
AcDbArc
 50
0.0
 51
90.0
  0
LINE
  5
50A
330
1D
100
AcDbEntity
  8
BLACK
  6
Continuous
100
AcDbLine
 10
202.057475
 20
-50.15
 30
0.0
 11
188.457475
 21
-50.15
 31
0.0
  0
LINE
  5
50C
330
1D
100
AcDbEntity
  8
BLACK
  6
Continuous
100
AcDbLine
 10
49.657475
 20
-50.15
 30
0.0
 11
36.057475
 21
-50.15
 31
0.0
  0
ARC
  5
50D
330
1D
100
AcDbEntity
  8
BLACK
100
AcDbCircle
 10
36.057475
 20
-50.65
 30
0.0
 40
0.5
100
AcDbArc
 50
90.0
 51
180.0
  0
LINE
  5
50E
330
1D
100
AcDbEntity
  8
BLACK
  6
Continuous
100
AcDbLine
 10
35.557475
 20
-50.65
 30
0.0
 11
35.557475
 21
-63.65
 31
0.0
  0
ARC
  5
50F
330
1D
100
AcDbEntity
  8
BLACK
100
AcDbCircle
 10
36.057475
 20
-63.65
 30
0.0
 40
0.5
100
AcDbArc
 50
180.0
 51
270.0
  0
LINE
  5
510
330
1D
100
AcDbEntity
  8
BLACK
  6
Continuous
100
AcDbLine
 10
36.057475
 20
-64.14999999999999
 30
0.0
 11
49.657475
 21
-64.14999999999999
 31
0.0
  0
ARC
  5
511
330
1D
100
AcDbEntity
  8
BLACK
100
AcDbCircle
 10
49.657475
 20
-63.65
 30
0.0
 40
0.5
100
AcDbArc
 50
270.0
 51
0.0
  0
LINE
  5
512
330
1D
100
AcDbEntity
  8
BLACK
  6
Continuous
100
AcDbLine
 10
50.157475
 20
-63.65
 30
0.0
 11
50.157475
 21
-50.65
 31
0.0
  0
ARC
  5
513
330
1D
100
AcDbEntity
  8
BLACK
100
AcDbCircle
 10
49.657475
 20
-50.65
 30
0.0
 40
0.5
100
AcDbArc
 50
0.0
 51
90.0
  0
LINE
  5
514
330
1D
100
AcDbEntity
  8
BLACK
  6
Continuous
100
AcDbLine
 10
278.944975
 20
-26.05
 30
0.0
 11
292.544975
 21
-26.05
 31
0.0
  0
ARC
  5
515
330
1D
100
AcDbEntity
  8
BLACK
100
AcDbCircle
 10
292.544975
 20
-25.55
 30
0.0
 40
0.5
100
AcDbArc
 50
270.0
 51
0.0
  0
LINE
  5
516
330
1D
100
AcDbEntity
  8
BLACK
  6
Continuous
100
AcDbLine
 10
293.044975
 20
-25.55
 30
0.0
 11
293.044975
 21
-12.55
 31
0.0
  0
ARC
  5
517
330
1D
100
AcDbEntity
  8
BLACK
100
AcDbCircle
 10
292.544975
 20
-12.55
 30
0.0
 40
0.5
100
AcDbArc
 50
0.0
 51
90.0
  0
LINE
  5
518
330
1D
100
AcDbEntity
  8
BLACK
  6
Continuous
100
AcDbLine
 10
292.544975
 20
-12.05
 30
0.0
 11
278.944975
 21
-12.05
 31
0.0
  0
ARC
  5
519
330
1D
100
AcDbEntity
  8
BLACK
100
AcDbCircle
 10
278.944975
 20
-12.55
 30
0.0
 40
0.5
100
AcDbArc
 50
90.0
 51
180.0
  0
LINE
  5
51A
330
1D
100
AcDbEntity
  8
BLACK
  6
Continuous
100
AcDbLine
 10
278.444975
 20
-12.55
 30
0.0
 11
278.444975
 21
-25.55
 31
0.0
  0
ARC
  5
51B
330
1D
100
AcDbEntity
  8
BLACK
100
AcDbCircle
 10
278.944975
 20
-25.55
 30
0.0
 40
0.5
100
AcDbArc
 50
180.0
 51
270.0
  0
LINE
  5
51C
330
1D
100
AcDbEntity
  8
BLACK
  6
Continuous
100
AcDbLine
 10
64.132475
 20
-31.6
 30
0.0
 11
64.132475
 21
-44.6
 31
0.0
  0
ARC
  5
51D
330
1D
100
AcDbEntity
  8
BLACK
100
AcDbCircle
 10
64.632475
 20
-44.6
 30
0.0
 40
0.5
100
AcDbArc
 50
180.0
 51
270.0
  0
LINE
  5
51E
330
1D
100
AcDbEntity
  8
BLACK
  6
Continuous
100
AcDbLine
 10
64.632475
 20
-45.1
 30
0.0
 11
78.232475
 21
-45.1
 31
0.0
  0
ARC
  5
51F
330
1D
100
AcDbEntity
  8
BLACK
100
AcDbCircle
 10
78.232475
 20
-44.6
 30
0.0
 40
0.5
100
AcDbArc
 50
270.0
 51
0.0
  0
LINE
  5
520
330
1D
100
AcDbEntity
  8
BLACK
  6
Continuous
100
AcDbLine
 10
78.732475
 20
-44.6
 30
0.0
 11
78.732475
 21
-31.6
 31
0.0
  0
ARC
  5
521
330
1D
100
AcDbEntity
  8
BLACK
100
AcDbCircle
 10
78.232475
 20
-31.6
 30
0.0
 40
0.5
100
AcDbArc
 50
0.0
 51
90.0
  0
LINE
  5
522
330
1D
100
AcDbEntity
  8
BLACK
  6
Continuous
100
AcDbLine
 10
78.232475
 20
-31.1
 30
0.0
 11
64.632475
 21
-31.1
 31
0.0
  0
ARC
  5
523
330
1D
100
AcDbEntity
  8
BLACK
100
AcDbCircle
 10
64.632475
 20
-31.6
 30
0.0
 40
0.5
100
AcDbArc
 50
90.0
 51
180.0
  0
ARC
  5
526
330
1D
100
AcDbEntity
  8
BLACK
100
AcDbCircle
 10
292.544975
 20
-31.6
 30
0.0
 40
0.5
100
AcDbArc
 50
0.0
 51
90.0
  0
LINE
  5
527
330
1D
100
AcDbEntity
  8
BLACK
  6
Continuous
100
AcDbLine
 10
292.544975
 20
-31.1
 30
0.0
 11
278.944975
 21
-31.1
 31
0.0
  0
ARC
  5
528
330
1D
100
AcDbEntity
  8
BLACK
100
AcDbCircle
 10
278.944975
 20
-31.6
 30
0.0
 40
0.5
100
AcDbArc
 50
90.0
 51
180.0
  0
LINE
  5
529
330
1D
100
AcDbEntity
  8
BLACK
  6
Continuous
100
AcDbLine
 10
278.444975
 20
-31.6
 30
0.0
 11
278.444975
 21
-44.6
 31
0.0
  0
ARC
  5
52A
330
1D
100
AcDbEntity
  8
BLACK
100
AcDbCircle
 10
278.944975
 20
-44.6
 30
0.0
 40
0.5
100
AcDbArc
 50
180.0
 51
270.0
  0
LINE
  5
52B
330
1D
100
AcDbEntity
  8
BLACK
  6
Continuous
100
AcDbLine
 10
278.944975
 20
-45.1
 30
0.0
 11
292.544975
 21
-45.1
 31
0.0
  0
ARC
  5
52C
330
1D
100
AcDbEntity
  8
BLACK
100
AcDbCircle
 10
292.544975
 20
-44.6
 30
0.0
 40
0.5
100
AcDbArc
 50
270.0
 51
0.0
  0
LINE
  5
52D
330
1D
100
AcDbEntity
  8
BLACK
  6
Continuous
100
AcDbLine
 10
293.044975
 20
-44.6
 30
0.0
 11
293.044975
 21
-31.6
 31
0.0
  0
ARC
  5
530
330
1D
100
AcDbEntity
  8
BLACK
100
AcDbCircle
 10
68.707475
 20
-63.65
 30
0.0
 40
0.5
100
AcDbArc
 50
270.0
 51
0.0
  0
LINE
  5
531
330
1D
100
AcDbEntity
  8
BLACK
  6
Continuous
100
AcDbLine
 10
69.207475
 20
-63.65
 30
0.0
 11
69.207475
 21
-50.65
 31
0.0
  0
ARC
  5
532
330
1D
100
AcDbEntity
  8
BLACK
100
AcDbCircle
 10
68.707475
 20
-50.65
 30
0.0
 40
0.5
100
AcDbArc
 50
0.0
 51
90.0
  0
LINE
  5
533
330
1D
100
AcDbEntity
  8
BLACK
  6
Continuous
100
AcDbLine
 10
68.707475
 20
-50.15
 30
0.0
 11
55.107475
 21
-50.15
 31
0.0
  0
ARC
  5
534
330
1D
100
AcDbEntity
  8
BLACK
100
AcDbCircle
 10
55.107475
 20
-50.65
 30
0.0
 40
0.5
100
AcDbArc
 50
90.0
 51
180.0
  0
LINE
  5
535
330
1D
100
AcDbEntity
  8
BLACK
  6
Continuous
100
AcDbLine
 10
54.607475
 20
-50.65
 30
0.0
 11
54.607475
 21
-63.65
 31
0.0
  0
ARC
  5
536
330
1D
100
AcDbEntity
  8
BLACK
100
AcDbCircle
 10
55.107475
 20
-63.65
 30
0.0
 40
0.5
100
AcDbArc
 50
180.0
 51
270.0
  0
LINE
  5
537
330
1D
100
AcDbEntity
  8
BLACK
  6
Continuous
100
AcDbLine
 10
55.107475
 20
-64.14999999999999
 30
0.0
 11
68.707475
 21
-64.14999999999999
 31
0.0
  0
ARC
  5
538
330
1D
100
AcDbEntity
  8
BLACK
100
AcDbCircle
 10
207.507475
 20
-63.65
 30
0.0
 40
0.5
100
AcDbArc
 50
180.0
 51
270.0
  0
LINE
  5
539
330
1D
100
AcDbEntity
  8
BLACK
  6
Continuous
100
AcDbLine
 10
207.507475
 20
-64.14999999999999
 30
0.0
 11
221.107475
 21
-64.14999999999999
 31
0.0
  0
ARC
  5
53A
330
1D
100
AcDbEntity
  8
BLACK
100
AcDbCircle
 10
221.107475
 20
-63.65
 30
0.0
 40
0.5
100
AcDbArc
 50
270.0
 51
0.0
  0
LINE
  5
53B
330
1D
100
AcDbEntity
  8
BLACK
  6
Continuous
100
AcDbLine
 10
221.607475
 20
-63.65
 30
0.0
 11
221.607475
 21
-50.65
 31
0.0
  0
ARC
  5
53C
330
1D
100
AcDbEntity
  8
BLACK
100
AcDbCircle
 10
221.107475
 20
-50.65
 30
0.0
 40
0.5
100
AcDbArc
 50
0.0
 51
90.0
  0
LINE
  5
53D
330
1D
100
AcDbEntity
  8
BLACK
  6
Continuous
100
AcDbLine
 10
221.107475
 20
-50.15
 30
0.0
 11
207.507475
 21
-50.15
 31
0.0
  0
ARC
  5
53E
330
1D
100
AcDbEntity
  8
BLACK
100
AcDbCircle
 10
207.507475
 20
-50.65
 30
0.0
 40
0.5
100
AcDbArc
 50
90.0
 51
180.0
  0
LINE
  5
53F
330
1D
100
AcDbEntity
  8
BLACK
  6
Continuous
100
AcDbLine
 10
207.007475
 20
-50.65
 30
0.0
 11
207.007475
 21
-63.65
 31
0.0
  0
LINE
  5
540
330
1D
100
AcDbEntity
  8
BLACK
  6
Continuous
100
AcDbLine
 10
14.438725
 20
-44.6
 30
0.0
 11
14.438725
 21
-31.593128
 31
0.0
  0
ARC
  5
541
330
1D
100
AcDbEntity
  8
BLACK
100
AcDbCircle
 10
13.938575
 20
-31.6002
 30
0.0
 40
0.5002
100
AcDbArc
 50
0.8100944800000001
 51
90.0
  0
LINE
  5
542
330
1D
100
AcDbEntity
  8
BLACK
  6
Continuous
100
AcDbLine
 10
13.938575
 20
-31.1
 30
0.0
 11
-4.423674
 21
-31.1
 31
0.0
  0
ARC
  5
543
330
1D
100
AcDbEntity
  8
BLACK
100
AcDbCircle
 10
-4.423674
 20
-31.600001
 30
0.0
 40
0.500001
100
AcDbArc
 50
90.0
 51
180.0
  0
LINE
  5
544
330
1D
100
AcDbEntity
  8
BLACK
  6
Continuous
100
AcDbLine
 10
-4.923674999999999
 20
-31.600001
 30
0.0
 11
-4.923674999999999
 21
-44.599999
 31
0.0
  0
ARC
  5
545
330
1D
100
AcDbEntity
  8
BLACK
100
AcDbCircle
 10
-4.423674
 20
-44.599999
 30
0.0
 40
0.500001000001
100
AcDbArc
 50
180.0
 51
269.99988541
  0
LINE
  5
546
330
1D
100
AcDbEntity
  8
BLACK
  6
Continuous
100
AcDbLine
 10
-4.423674999999999
 20
-45.1
 30
0.0
 11
13.938725
 21
-45.1
 31
0.0
  0
ARC
  5
547
330
1D
100
AcDbEntity
  8
BLACK
100
AcDbCircle
 10
13.938775
 20
-44.6
 30
0.0
 40
0.4999499999999999
100
AcDbArc
 50
269.99426985
 51
0.0
  0
LINE
  5
549
330
1D
100
AcDbEntity
  8
BLACK
  6
Continuous
100
AcDbLine
 10
178.244975
 20
7.0
 30
0.0
 11
164.644975
 21
7.0
 31
0.0
  0
ARC
  5
54A
330
1D
100
AcDbEntity
  8
BLACK
100
AcDbCircle
 10
164.644975
 20
6.5
 30
0.0
 40
0.5
100
AcDbArc
 50
90.0
 51
180.0
  0
LINE
  5
54B
330
1D
100
AcDbEntity
  8
BLACK
  6
Continuous
100
AcDbLine
 10
164.144975
 20
6.5
 30
0.0
 11
164.144975
 21
-6.5
 31
0.0
  0
ARC
  5
54C
330
1D
100
AcDbEntity
  8
BLACK
100
AcDbCircle
 10
164.644975
 20
-6.5
 30
0.0
 40
0.5
100
AcDbArc
 50
180.0
 51
270.0
  0
LINE
  5
54D
330
1D
100
AcDbEntity
  8
BLACK
  6
Continuous
100
AcDbLine
 10
164.644975
 20
-7.0
 30
0.0
 11
178.244975
 21
-7.0
 31
0.0
  0
ARC
  5
54E
330
1D
100
AcDbEntity
  8
BLACK
100
AcDbCircle
 10
178.244975
 20
-6.5
 30
0.0
 40
0.5
100
AcDbArc
 50
270.0
 51
0.0
  0
LINE
  5
54F
330
1D
100
AcDbEntity
  8
BLACK
  6
Continuous
100
AcDbLine
 10
178.744975
 20
-6.5
 30
0.0
 11
178.744975
 21
6.5
 31
0.0
  0
ARC
  5
550
330
1D
100
AcDbEntity
  8
BLACK
100
AcDbCircle
 10
178.244975
 20
6.5
 30
0.0
 40
0.5
100
AcDbArc
 50
0.0
 51
90.0
  0
LINE
  5
552
330
1D
100
AcDbEntity
  8
BLACK
  6
Continuous
100
AcDbLine
 10
226.369975
 20
-25.55
 30
0.0
 11
226.369975
 21
-12.55
 31
0.0
  0
ARC
  5
553
330
1D
100
AcDbEntity
  8
BLACK
100
AcDbCircle
 10
225.869975
 20
-12.55
 30
0.0
 40
0.5
100
AcDbArc
 50
0.0
 51
90.0
  0
LINE
  5
554
330
1D
100
AcDbEntity
  8
BLACK
  6
Continuous
100
AcDbLine
 10
225.869975
 20
-12.05
 30
0.0
 11
212.269975
 21
-12.05
 31
0.0
  0
ARC
  5
555
330
1D
100
AcDbEntity
  8
BLACK
100
AcDbCircle
 10
212.269975
 20
-12.55
 30
0.0
 40
0.5
100
AcDbArc
 50
90.0
 51
180.0
  0
LINE
  5
556
330
1D
100
AcDbEntity
  8
BLACK
  6
Continuous
100
AcDbLine
 10
211.769975
 20
-12.55
 30
0.0
 11
211.769975
 21
-25.55
 31
0.0
  0
ARC
  5
557
330
1D
100
AcDbEntity
  8
BLACK
100
AcDbCircle
 10
212.269975
 20
-25.55
 30
0.0
 40
0.5
100
AcDbArc
 50
180.0
 51
270.0
  0
LINE
  5
558
330
1D
100
AcDbEntity
  8
BLACK
  6
Continuous
100
AcDbLine
 10
212.269975
 20
-26.05
 30
0.0
 11
225.869975
 21
-26.05
 31
0.0
  0
ARC
  5
559
330
1D
100
AcDbEntity
  8
BLACK
100
AcDbCircle
 10
225.869975
 20
-25.55
 30
0.0
 40
0.5
100
AcDbArc
 50
270.0
 51
0.0
  0
ARC
  5
55A
330
1D
100
AcDbEntity
  8
BLACK
100
AcDbCircle
 10
50.344975
 20
-6.5
 30
0.0
 40
0.5
100
AcDbArc
 50
180.0
 51
270.0
  0
LINE
  5
55B
330
1D
100
AcDbEntity
  8
BLACK
  6
Continuous
100
AcDbLine
 10
50.344975
 20
-7.0
 30
0.0
 11
63.944975
 21
-7.0
 31
0.0
  0
ARC
  5
55C
330
1D
100
AcDbEntity
  8
BLACK
100
AcDbCircle
 10
63.944975
 20
-6.5
 30
0.0
 40
0.5
100
AcDbArc
 50
270.0
 51
0.0
  0
LINE
  5
55D
330
1D
100
AcDbEntity
  8
BLACK
  6
Continuous
100
AcDbLine
 10
64.444975
 20
-6.5
 30
0.0
 11
64.444975
 21
6.5
 31
0.0
  0
ARC
  5
55E
330
1D
100
AcDbEntity
  8
BLACK
100
AcDbCircle
 10
63.944975
 20
6.5
 30
0.0
 40
0.5
100
AcDbArc
 50
0.0
 51
90.0
  0
LINE
  5
55F
330
1D
100
AcDbEntity
  8
BLACK
  6
Continuous
100
AcDbLine
 10
63.944975
 20
7.0
 30
0.0
 11
50.344975
 21
7.0
 31
0.0
  0
ARC
  5
560
330
1D
100
AcDbEntity
  8
BLACK
100
AcDbCircle
 10
50.344975
 20
6.5
 30
0.0
 40
0.5
100
AcDbArc
 50
90.0
 51
180.0
  0
LINE
  5
561
330
1D
100
AcDbEntity
  8
BLACK
  6
Continuous
100
AcDbLine
 10
49.844975
 20
6.5
 30
0.0
 11
49.844975
 21
-6.5
 31
0.0
  0
ARC
  5
562
330
1D
100
AcDbEntity
  8
BLACK
100
AcDbCircle
 10
-6.805024
 20
6.499999
 30
0.0
 40
0.500001000001
100
AcDbArc
 50
90.0
 51
179.99988541
  0
LINE
  5
563
330
1D
100
AcDbEntity
  8
BLACK
  6
Continuous
100
AcDbLine
 10
-7.305025
 20
6.5
 30
0.0
 11
-7.305025
 21
-6.499999
 31
0.0
  0
ARC
  5
564
330
1D
100
AcDbEntity
  8
BLACK
100
AcDbCircle
 10
-6.805024
 20
-6.499999
 30
0.0
 40
0.500001000001
100
AcDbArc
 50
180.0
 51
269.99988541
  0
LINE
  5
565
330
1D
100
AcDbEntity
  8
BLACK
  6
Continuous
100
AcDbLine
 10
-6.805025
 20
-7.0
 30
0.0
 11
6.794975
 21
-7.0
 31
0.0
  0
ARC
  5
566
330
1D
100
AcDbEntity
  8
BLACK
100
AcDbCircle
 10
6.794975
 20
-6.5
 30
0.0
 40
0.5
100
AcDbArc
 50
270.0
 51
0.0
  0
LINE
  5
567
330
1D
100
AcDbEntity
  8
BLACK
  6
Continuous
100
AcDbLine
 10
7.294975
 20
-6.5
 30
0.0
 11
7.294975
 21
6.5
 31
0.0
  0
ARC
  5
568
330
1D
100
AcDbEntity
  8
BLACK
100
AcDbCircle
 10
6.794975
 20
6.5
 30
0.0
 40
0.5
100
AcDbArc
 50
0.0
 51
90.0
  0
LINE
  5
569
330
1D
100
AcDbEntity
  8
BLACK
  6
Continuous
100
AcDbLine
 10
6.794975
 20
7.0
 30
0.0
 11
-6.805024
 21
7.0
 31
0.0
  0
LINE
  5
56A
330
1D
100
AcDbEntity
  8
BLACK
  6
Continuous
100
AcDbLine
 10
197.794975
 20
-6.5
 30
0.0
 11
197.794975
 21
6.5
 31
0.0
  0
ARC
  5
56B
330
1D
100
AcDbEntity
  8
BLACK
100
AcDbCircle
 10
197.294975
 20
6.5
 30
0.0
 40
0.5
100
AcDbArc
 50
0.0
 51
90.0
  0
LINE
  5
56C
330
1D
100
AcDbEntity
  8
BLACK
  6
Continuous
100
AcDbLine
 10
197.294975
 20
7.0
 30
0.0
 11
183.694975
 21
7.0
 31
0.0
  0
ARC
  5
56D
330
1D
100
AcDbEntity
  8
BLACK
100
AcDbCircle
 10
183.694975
 20
6.5
 30
0.0
 40
0.5
100
AcDbArc
 50
90.0
 51
180.0
  0
LINE
  5
56E
330
1D
100
AcDbEntity
  8
BLACK
  6
Continuous
100
AcDbLine
 10
183.194975
 20
6.5
 30
0.0
 11
183.194975
 21
-6.5
 31
0.0
  0
ARC
  5
56F
330
1D
100
AcDbEntity
  8
BLACK
100
AcDbCircle
 10
183.694975
 20
-6.5
 30
0.0
 40
0.5
100
AcDbArc
 50
180.0
 51
270.0
  0
LINE
  5
570
330
1D
100
AcDbEntity
  8
BLACK
  6
Continuous
100
AcDbLine
 10
183.694975
 20
-7.0
 30
0.0
 11
197.294975
 21
-7.0
 31
0.0
  0
ARC
  5
571
330
1D
100
AcDbEntity
  8
BLACK
100
AcDbCircle
 10
197.294975
 20
-6.5
 30
0.0
 40
0.5
100
AcDbArc
 50
270.0
 51
0.0
  0
ARC
  5
572
330
1D
100
AcDbEntity
  8
BLACK
100
AcDbCircle
 10
155.119975
 20
-12.55
 30
0.0
 40
0.5
100
AcDbArc
 50
90.0
 51
180.0
  0
LINE
  5
573
330
1D
100
AcDbEntity
  8
BLACK
  6
Continuous
100
AcDbLine
 10
154.619975
 20
-12.55
 30
0.0
 11
154.619975
 21
-25.55
 31
0.0
  0
ARC
  5
574
330
1D
100
AcDbEntity
  8
BLACK
100
AcDbCircle
 10
155.119975
 20
-25.55
 30
0.0
 40
0.5
100
AcDbArc
 50
180.0
 51
270.0
  0
LINE
  5
575
330
1D
100
AcDbEntity
  8
BLACK
  6
Continuous
100
AcDbLine
 10
155.119975
 20
-26.05
 30
0.0
 11
168.719975
 21
-26.05
 31
0.0
  0
ARC
  5
576
330
1D
100
AcDbEntity
  8
BLACK
100
AcDbCircle
 10
168.719975
 20
-25.55
 30
0.0
 40
0.5
100
AcDbArc
 50
270.0
 51
0.0
  0
LINE
  5
577
330
1D
100
AcDbEntity
  8
BLACK
  6
Continuous
100
AcDbLine
 10
169.219975
 20
-25.55
 30
0.0
 11
169.219975
 21
-12.55
 31
0.0
  0
ARC
  5
578
330
1D
100
AcDbEntity
  8
BLACK
100
AcDbCircle
 10
168.719975
 20
-12.55
 30
0.0
 40
0.5
100
AcDbArc
 50
0.0
 51
90.0
  0
LINE
  5
579
330
1D
100
AcDbEntity
  8
BLACK
  6
Continuous
100
AcDbLine
 10
168.719975
 20
-12.05
 30
0.0
 11
155.119975
 21
-12.05
 31
0.0
  0
LINE
  5
57A
330
1D
100
AcDbEntity
  8
BLACK
  6
Continuous
100
AcDbLine
 10
40.819975
 20
-26.05
 30
0.0
 11
54.419975
 21
-26.05
 31
0.0
  0
ARC
  5
57B
330
1D
100
AcDbEntity
  8
BLACK
100
AcDbCircle
 10
54.419975
 20
-25.55
 30
0.0
 40
0.5
100
AcDbArc
 50
270.0
 51
0.0
  0
LINE
  5
57C
330
1D
100
AcDbEntity
  8
BLACK
  6
Continuous
100
AcDbLine
 10
54.919975
 20
-25.55
 30
0.0
 11
54.919975
 21
-12.55
 31
0.0
  0
ARC
  5
57D
330
1D
100
AcDbEntity
  8
BLACK
100
AcDbCircle
 10
54.419975
 20
-12.55
 30
0.0
 40
0.5
100
AcDbArc
 50
0.0
 51
90.0
  0
LINE
  5
57E
330
1D
100
AcDbEntity
  8
BLACK
  6
Continuous
100
AcDbLine
 10
54.419975
 20
-12.05
 30
0.0
 11
40.819975
 21
-12.05
 31
0.0
  0
ARC
  5
57F
330
1D
100
AcDbEntity
  8
BLACK
100
AcDbCircle
 10
40.819975
 20
-12.55
 30
0.0
 40
0.5
100
AcDbArc
 50
90.0
 51
180.0
  0
LINE
  5
580
330
1D
100
AcDbEntity
  8
BLACK
  6
Continuous
100
AcDbLine
 10
40.319975
 20
-12.55
 30
0.0
 11
40.319975
 21
-25.55
 31
0.0
  0
ARC
  5
581
330
1D
100
AcDbEntity
  8
BLACK
100
AcDbCircle
 10
40.819975
 20
-25.55
 30
0.0
 40
0.5
100
AcDbArc
 50
180.0
 51
270.0
  0
ARC
  5
582
330
1D
100
AcDbEntity
  8
BLACK
100
AcDbCircle
 10
206.819975
 20
-25.55
 30
0.0
 40
0.5
100
AcDbArc
 50
270.0
 51
0.0
  0
LINE
  5
583
330
1D
100
AcDbEntity
  8
BLACK
  6
Continuous
100
AcDbLine
 10
207.319975
 20
-25.55
 30
0.0
 11
207.319975
 21
-12.55
 31
0.0
  0
ARC
  5
584
330
1D
100
AcDbEntity
  8
BLACK
100
AcDbCircle
 10
206.819975
 20
-12.55
 30
0.0
 40
0.5
100
AcDbArc
 50
0.0
 51
90.0
  0
LINE
  5
585
330
1D
100
AcDbEntity
  8
BLACK
  6
Continuous
100
AcDbLine
 10
206.819975
 20
-12.05
 30
0.0
 11
193.219975
 21
-12.05
 31
0.0
  0
ARC
  5
586
330
1D
100
AcDbEntity
  8
BLACK
100
AcDbCircle
 10
193.219975
 20
-12.55
 30
0.0
 40
0.5
100
AcDbArc
 50
90.0
 51
180.0
  0
LINE
  5
587
330
1D
100
AcDbEntity
  8
BLACK
  6
Continuous
100
AcDbLine
 10
192.719975
 20
-12.55
 30
0.0
 11
192.719975
 21
-25.55
 31
0.0
  0
ARC
  5
588
330
1D
100
AcDbEntity
  8
BLACK
100
AcDbCircle
 10
193.219975
 20
-25.55
 30
0.0
 40
0.5
100
AcDbArc
 50
180.0
 51
270.0
  0
LINE
  5
589
330
1D
100
AcDbEntity
  8
BLACK
  6
Continuous
100
AcDbLine
 10
193.219975
 20
-26.05
 30
0.0
 11
206.819975
 21
-26.05
 31
0.0
  0
LINE
  5
58A
330
1D
100
AcDbEntity
  8
BLACK
  6
Continuous
100
AcDbLine
 10
11.744975
 20
6.5
 30
0.0
 11
11.744975
 21
-6.5
 31
0.0
  0
ARC
  5
58B
330
1D
100
AcDbEntity
  8
BLACK
100
AcDbCircle
 10
12.244975
 20
-6.5
 30
0.0
 40
0.5
100
AcDbArc
 50
180.0
 51
270.0
  0
LINE
  5
58C
330
1D
100
AcDbEntity
  8
BLACK
  6
Continuous
100
AcDbLine
 10
12.244975
 20
-7.0
 30
0.0
 11
25.844975
 21
-7.0
 31
0.0
  0
ARC
  5
58D
330
1D
100
AcDbEntity
  8
BLACK
100
AcDbCircle
 10
25.844975
 20
-6.5
 30
0.0
 40
0.5
100
AcDbArc
 50
270.0
 51
0.0
  0
LINE
  5
58E
330
1D
100
AcDbEntity
  8
BLACK
  6
Continuous
100
AcDbLine
 10
26.344975
 20
-6.5
 30
0.0
 11
26.344975
 21
6.5
 31
0.0
  0
ARC
  5
58F
330
1D
100
AcDbEntity
  8
BLACK
100
AcDbCircle
 10
25.844975
 20
6.5
 30
0.0
 40
0.5
100
AcDbArc
 50
0.0
 51
90.0
  0
LINE
  5
590
330
1D
100
AcDbEntity
  8
BLACK
  6
Continuous
100
AcDbLine
 10
25.844975
 20
7.0
 30
0.0
 11
12.244975
 21
7.0
 31
0.0
  0
ARC
  5
591
330
1D
100
AcDbEntity
  8
BLACK
100
AcDbCircle
 10
12.244975
 20
6.5
 30
0.0
 40
0.5
100
AcDbArc
 50
90.0
 51
180.0
  0
ARC
  5
592
330
1D
100
AcDbEntity
  8
BLACK
100
AcDbCircle
 10
159.882475
 20
-31.6
 30
0.0
 40
0.5
100
AcDbArc
 50
90.0
 51
180.0
  0
LINE
  5
593
330
1D
100
AcDbEntity
  8
BLACK
  6
Continuous
100
AcDbLine
 10
159.382475
 20
-31.6
 30
0.0
 11
159.382475
 21
-44.6
 31
0.0
  0
ARC
  5
594
330
1D
100
AcDbEntity
  8
BLACK
100
AcDbCircle
 10
159.882475
 20
-44.6
 30
0.0
 40
0.5
100
AcDbArc
 50
180.0
 51
270.0
  0
LINE
  5
595
330
1D
100
AcDbEntity
  8
BLACK
  6
Continuous
100
AcDbLine
 10
159.882475
 20
-45.1
 30
0.0
 11
173.482475
 21
-45.1
 31
0.0
  0
ARC
  5
596
330
1D
100
AcDbEntity
  8
BLACK
100
AcDbCircle
 10
173.482475
 20
-44.6
 30
0.0
 40
0.5
100
AcDbArc
 50
270.0
 51
0.0
  0
LINE
  5
597
330
1D
100
AcDbEntity
  8
BLACK
  6
Continuous
100
AcDbLine
 10
173.982475
 20
-44.6
 30
0.0
 11
173.982475
 21
-31.6
 31
0.0
  0
ARC
  5
598
330
1D
100
AcDbEntity
  8
BLACK
100
AcDbCircle
 10
173.482475
 20
-31.6
 30
0.0
 40
0.5
100
AcDbArc
 50
0.0
 51
90.0
  0
LINE
  5
599
330
1D
100
AcDbEntity
  8
BLACK
  6
Continuous
100
AcDbLine
 10
173.482475
 20
-31.1
 30
0.0
 11
159.882475
 21
-31.1
 31
0.0
  0
ARC
  5
59A
330
1D
100
AcDbEntity
  8
BLACK
100
AcDbCircle
 10
145.594975
 20
6.5
 30
0.0
 40
0.5
100
AcDbArc
 50
90.0
 51
180.0
  0
LINE
  5
59B
330
1D
100
AcDbEntity
  8
BLACK
  6
Continuous
100
AcDbLine
 10
145.094975
 20
6.5
 30
0.0
 11
145.094975
 21
-6.5
 31
0.0
  0
ARC
  5
59C
330
1D
100
AcDbEntity
  8
BLACK
100
AcDbCircle
 10
145.594975
 20
-6.5
 30
0.0
 40
0.5
100
AcDbArc
 50
180.0
 51
270.0
  0
LINE
  5
59D
330
1D
100
AcDbEntity
  8
BLACK
  6
Continuous
100
AcDbLine
 10
145.594975
 20
-7.0
 30
0.0
 11
159.194975
 21
-7.0
 31
0.0
  0
ARC
  5
59E
330
1D
100
AcDbEntity
  8
BLACK
100
AcDbCircle
 10
159.194975
 20
-6.5
 30
0.0
 40
0.5
100
AcDbArc
 50
270.0
 51
0.0
  0
LINE
  5
59F
330
1D
100
AcDbEntity
  8
BLACK
  6
Continuous
100
AcDbLine
 10
159.694975
 20
-6.5
 30
0.0
 11
159.694975
 21
6.5
 31
0.0
  0
ARC
  5
5A0
330
1D
100
AcDbEntity
  8
BLACK
100
AcDbCircle
 10
159.194975
 20
6.5
 30
0.0
 40
0.5
100
AcDbArc
 50
0.0
 51
90.0
  0
LINE
  5
5A1
330
1D
100
AcDbEntity
  8
BLACK
  6
Continuous
100
AcDbLine
 10
159.194975
 20
7.0
 30
0.0
 11
145.594975
 21
7.0
 31
0.0
  0
ARC
  5
5A2
330
1D
100
AcDbEntity
  8
BLACK
100
AcDbCircle
 10
154.432475
 20
-44.6
 30
0.0
 40
0.5
100
AcDbArc
 50
270.0
 51
0.0
  0
LINE
  5
5A3
330
1D
100
AcDbEntity
  8
BLACK
  6
Continuous
100
AcDbLine
 10
154.932475
 20
-44.6
 30
0.0
 11
154.932475
 21
-31.6
 31
0.0
  0
ARC
  5
5A4
330
1D
100
AcDbEntity
  8
BLACK
100
AcDbCircle
 10
154.432475
 20
-31.6
 30
0.0
 40
0.5
100
AcDbArc
 50
0.0
 51
90.0
  0
LINE
  5
5A5
330
1D
100
AcDbEntity
  8
BLACK
  6
Continuous
100
AcDbLine
 10
154.432475
 20
-31.1
 30
0.0
 11
140.832475
 21
-31.1
 31
0.0
  0
ARC
  5
5A6
330
1D
100
AcDbEntity
  8
BLACK
100
AcDbCircle
 10
140.832475
 20
-31.6
 30
0.0
 40
0.5
100
AcDbArc
 50
90.0
 51
180.0
  0
LINE
  5
5A7
330
1D
100
AcDbEntity
  8
BLACK
  6
Continuous
100
AcDbLine
 10
140.332475
 20
-31.6
 30
0.0
 11
140.332475
 21
-44.6
 31
0.0
  0
ARC
  5
5A8
330
1D
100
AcDbEntity
  8
BLACK
100
AcDbCircle
 10
140.832475
 20
-44.6
 30
0.0
 40
0.5
100
AcDbArc
 50
180.0
 51
270.0
  0
LINE
  5
5A9
330
1D
100
AcDbEntity
  8
BLACK
  6
Continuous
100
AcDbLine
 10
140.832475
 20
-45.1
 30
0.0
 11
154.432475
 21
-45.1
 31
0.0
  0
ARC
  5
5AA
330
1D
100
AcDbEntity
  8
BLACK
100
AcDbCircle
 10
59.869975
 20
-25.55
 30
0.0
 40
0.5
100
AcDbArc
 50
180.0
 51
270.0
  0
LINE
  5
5AB
330
1D
100
AcDbEntity
  8
BLACK
  6
Continuous
100
AcDbLine
 10
59.869975
 20
-26.05
 30
0.0
 11
73.46997499999999
 21
-26.05
 31
0.0
  0
ARC
  5
5AC
330
1D
100
AcDbEntity
  8
BLACK
100
AcDbCircle
 10
73.46997499999999
 20
-25.55
 30
0.0
 40
0.5
100
AcDbArc
 50
270.0
 51
0.0
  0
LINE
  5
5AD
330
1D
100
AcDbEntity
  8
BLACK
  6
Continuous
100
AcDbLine
 10
73.96997499999999
 20
-25.55
 30
0.0
 11
73.96997499999999
 21
-12.55
 31
0.0
  0
ARC
  5
5AE
330
1D
100
AcDbEntity
  8
BLACK
100
AcDbCircle
 10
73.46997499999999
 20
-12.55
 30
0.0
 40
0.5
100
AcDbArc
 50
0.0
 51
90.0
  0
LINE
  5
5AF
330
1D
100
AcDbEntity
  8
BLACK
  6
Continuous
100
AcDbLine
 10
73.46997499999999
 20
-12.05
 30
0.0
 11
59.869975
 21
-12.05
 31
0.0
  0
ARC
  5
5B0
330
1D
100
AcDbEntity
  8
BLACK
100
AcDbCircle
 10
59.869975
 20
-12.55
 30
0.0
 40
0.5
100
AcDbArc
 50
90.0
 51
180.0
  0
LINE
  5
5B1
330
1D
100
AcDbEntity
  8
BLACK
  6
Continuous
100
AcDbLine
 10
59.369975
 20
-12.55
 30
0.0
 11
59.369975
 21
-25.55
 31
0.0
  0
ARC
  5
5B2
330
1D
100
AcDbEntity
  8
BLACK
100
AcDbCircle
 10
69.394975
 20
6.5
 30
0.0
 40
0.5
100
AcDbArc
 50
90.0
 51
180.0
  0
LINE
  5
5B3
330
1D
100
AcDbEntity
  8
BLACK
  6
Continuous
100
AcDbLine
 10
68.894975
 20
6.5
 30
0.0
 11
68.894975
 21
-6.5
 31
0.0
  0
ARC
  5
5B4
330
1D
100
AcDbEntity
  8
BLACK
100
AcDbCircle
 10
69.394975
 20
-6.5
 30
0.0
 40
0.5
100
AcDbArc
 50
180.0
 51
270.0
  0
LINE
  5
5B5
330
1D
100
AcDbEntity
  8
BLACK
  6
Continuous
100
AcDbLine
 10
69.394975
 20
-7.0
 30
0.0
 11
82.994975
 21
-7.0
 31
0.0
  0
ARC
  5
5B6
330
1D
100
AcDbEntity
  8
BLACK
100
AcDbCircle
 10
82.994975
 20
-6.5
 30
0.0
 40
0.5
100
AcDbArc
 50
270.0
 51
0.0
  0
LINE
  5
5B7
330
1D
100
AcDbEntity
  8
BLACK
  6
Continuous
100
AcDbLine
 10
83.494975
 20
-6.5
 30
0.0
 11
83.494975
 21
6.5
 31
0.0
  0
ARC
  5
5B8
330
1D
100
AcDbEntity
  8
BLACK
100
AcDbCircle
 10
82.994975
 20
6.5
 30
0.0
 40
0.5
100
AcDbArc
 50
0.0
 51
90.0
  0
LINE
  5
5B9
330
1D
100
AcDbEntity
  8
BLACK
  6
Continuous
100
AcDbLine
 10
82.994975
 20
7.0
 30
0.0
 11
69.394975
 21
7.0
 31
0.0
  0
LINE
  5
5BA
330
1D
100
AcDbEntity
  8
BLACK
  6
Continuous
100
AcDbLine
 10
150.357475
 20
-64.14999999999999
 30
0.0
 11
163.957475
 21
-64.14999999999999
 31
0.0
  0
ARC
  5
5BB
330
1D
100
AcDbEntity
  8
BLACK
100
AcDbCircle
 10
163.957475
 20
-63.65
 30
0.0
 40
0.5
100
AcDbArc
 50
270.0
 51
0.0
  0
LINE
  5
5BC
330
1D
100
AcDbEntity
  8
BLACK
  6
Continuous
100
AcDbLine
 10
164.457475
 20
-63.65
 30
0.0
 11
164.457475
 21
-50.65
 31
0.0
  0
ARC
  5
5BD
330
1D
100
AcDbEntity
  8
BLACK
100
AcDbCircle
 10
163.957475
 20
-50.65
 30
0.0
 40
0.5
100
AcDbArc
 50
0.0
 51
90.0
  0
LINE
  5
5BE
330
1D
100
AcDbEntity
  8
BLACK
  6
Continuous
100
AcDbLine
 10
163.957475
 20
-50.15
 30
0.0
 11
150.357475
 21
-50.15
 31
0.0
  0
ARC
  5
5BF
330
1D
100
AcDbEntity
  8
BLACK
100
AcDbCircle
 10
150.357475
 20
-50.65
 30
0.0
 40
0.5
100
AcDbArc
 50
90.0
 51
180.0
  0
LINE
  5
5C0
330
1D
100
AcDbEntity
  8
BLACK
  6
Continuous
100
AcDbLine
 10
149.857475
 20
-50.65
 30
0.0
 11
149.857475
 21
-63.65
 31
0.0
  0
ARC
  5
5C1
330
1D
100
AcDbEntity
  8
BLACK
100
AcDbCircle
 10
150.357475
 20
-63.65
 30
0.0
 40
0.5
100
AcDbArc
 50
180.0
 51
270.0
  0
LINE
  5
5C6
330
1D
100
AcDbEntity
  8
BLACK
  6
Continuous
100
AcDbLine
 10
-2.042524
 20
-26.05
 30
0.0
 11
11.557475
 21
-26.05
 31
0.0
  0
ARC
  5
5C7
330
1D
100
AcDbEntity
  8
BLACK
100
AcDbCircle
 10
11.557475
 20
-25.55
 30
0.0
 40
0.5
100
AcDbArc
 50
270.0
 51
0.0
  0
LINE
  5
5C8
330
1D
100
AcDbEntity
  8
BLACK
  6
Continuous
100
AcDbLine
 10
12.057475
 20
-25.55
 30
0.0
 11
12.057475
 21
-12.55
 31
0.0
  0
ARC
  5
5C9
330
1D
100
AcDbEntity
  8
BLACK
100
AcDbCircle
 10
11.557475
 20
-12.55
 30
0.0
 40
0.5
100
AcDbArc
 50
0.0
 51
90.0
  0
LINE
  5
5CA
330
1D
100
AcDbEntity
  8
BLACK
  6
Continuous
100
AcDbLine
 10
11.557475
 20
-12.05
 30
0.0
 11
-2.042524
 21
-12.05
 31
0.0
  0
ARC
  5
5CB
330
1D
100
AcDbEntity
  8
BLACK
100
AcDbCircle
 10
-2.042524
 20
-12.550001
 30
0.0
 40
0.500001
100
AcDbArc
 50
90.0
 51
180.0
  0
LINE
  5
5CC
330
1D
100
AcDbEntity
  8
BLACK
  6
Continuous
100
AcDbLine
 10
-2.542525
 20
-12.550001
 30
0.0
 11
-2.542525
 21
-25.55
 31
0.0
  0
ARC
  5
5CD
330
1D
100
AcDbEntity
  8
BLACK
100
AcDbCircle
 10
-2.042524
 20
-25.549999
 30
0.0
 40
0.500001
100
AcDbArc
 50
180.00011459
 51
270.0
  0
ARC
  5
5CF
330
1D
100
AcDbEntity
  8
BLACK
100
AcDbCircle
 10
144.907475
 20
-63.65
 30
0.0
 40
0.5
100
AcDbArc
 50
270.0
 51
0.0
  0
LINE
  5
5D0
330
1D
100
AcDbEntity
  8
BLACK
  6
Continuous
100
AcDbLine
 10
145.407475
 20
-63.65
 30
0.0
 11
145.407475
 21
-50.65
 31
0.0
  0
ARC
  5
5D1
330
1D
100
AcDbEntity
  8
BLACK
100
AcDbCircle
 10
144.907475
 20
-50.65
 30
0.0
 40
0.5
100
AcDbArc
 50
0.0
 51
90.0
  0
LINE
  5
5D2
330
1D
100
AcDbEntity
  8
BLACK
  6
Continuous
100
AcDbLine
 10
144.907475
 20
-50.15
 30
0.0
 11
131.307475
 21
-50.15
 31
0.0
  0
ARC
  5
5D3
330
1D
100
AcDbEntity
  8
BLACK
100
AcDbCircle
 10
131.307475
 20
-50.65
 30
0.0
 40
0.5
100
AcDbArc
 50
90.0
 51
180.0
  0
LINE
  5
5D4
330
1D
100
AcDbEntity
  8
BLACK
  6
Continuous
100
AcDbLine
 10
130.807475
 20
-50.65
 30
0.0
 11
130.807475
 21
-63.65
 31
0.0
  0
ARC
  5
5D5
330
1D
100
AcDbEntity
  8
BLACK
100
AcDbCircle
 10
131.307475
 20
-63.65
 30
0.0
 40
0.5
100
AcDbArc
 50
180.0
 51
270.0
  0
LINE
  5
5D6
330
1D
100
AcDbEntity
  8
BLACK
  6
Continuous
100
AcDbLine
 10
131.307475
 20
-64.14999999999999
 30
0.0
 11
144.907475
 21
-64.14999999999999
 31
0.0
  0
ARC
  5
5D8
330
1D
100
AcDbEntity
  8
BLACK
100
AcDbCircle
 10
112.257475
 20
-63.65
 30
0.0
 40
0.5
100
AcDbArc
 50
180.0
 51
270.0
  0
LINE
  5
5D9
330
1D
100
AcDbEntity
  8
BLACK
  6
Continuous
100
AcDbLine
 10
112.257475
 20
-64.14999999999999
 30
0.0
 11
125.857475
 21
-64.14999999999999
 31
0.0
  0
ARC
  5
5DA
330
1D
100
AcDbEntity
  8
BLACK
100
AcDbCircle
 10
125.857475
 20
-63.65
 30
0.0
 40
0.5
100
AcDbArc
 50
270.0
 51
0.0
  0
LINE
  5
5DB
330
1D
100
AcDbEntity
  8
BLACK
  6
Continuous
100
AcDbLine
 10
126.357475
 20
-63.65
 30
0.0
 11
126.357475
 21
-50.65
 31
0.0
  0
ARC
  5
5DC
330
1D
100
AcDbEntity
  8
BLACK
100
AcDbCircle
 10
125.857475
 20
-50.65
 30
0.0
 40
0.5
100
AcDbArc
 50
0.0
 51
90.0
  0
LINE
  5
5DD
330
1D
100
AcDbEntity
  8
BLACK
  6
Continuous
100
AcDbLine
 10
125.857475
 20
-50.15
 30
0.0
 11
112.257475
 21
-50.15
 31
0.0
  0
ARC
  5
5DE
330
1D
100
AcDbEntity
  8
BLACK
100
AcDbCircle
 10
112.257475
 20
-50.65
 30
0.0
 40
0.5
100
AcDbArc
 50
90.0
 51
180.0
  0
LINE
  5
5DF
330
1D
100
AcDbEntity
  8
BLACK
  6
Continuous
100
AcDbLine
 10
111.757475
 20
-50.65
 30
0.0
 11
111.757475
 21
-63.65
 31
0.0
  0
LINE
  5
5E0
330
1D
100
AcDbEntity
  8
BLACK
  6
Continuous
100
AcDbLine
 10
107.307475
 20
-63.65
 30
0.0
 11
107.307475
 21
-50.65
 31
0.0
  0
ARC
  5
5E1
330
1D
100
AcDbEntity
  8
BLACK
100
AcDbCircle
 10
106.807475
 20
-50.65
 30
0.0
 40
0.5
100
AcDbArc
 50
0.0
 51
90.0
  0
LINE
  5
5E2
330
1D
100
AcDbEntity
  8
BLACK
  6
Continuous
100
AcDbLine
 10
106.807475
 20
-50.15
 30
0.0
 11
93.207475
 21
-50.15
 31
0.0
  0
ARC
  5
5E3
330
1D
100
AcDbEntity
  8
BLACK
100
AcDbCircle
 10
93.207475
 20
-50.65
 30
0.0
 40
0.5
100
AcDbArc
 50
90.0
 51
180.0
  0
LINE
  5
5E4
330
1D
100
AcDbEntity
  8
BLACK
  6
Continuous
100
AcDbLine
 10
92.707475
 20
-50.65
 30
0.0
 11
92.707475
 21
-63.65
 31
0.0
  0
ARC
  5
5E5
330
1D
100
AcDbEntity
  8
BLACK
100
AcDbCircle
 10
93.207475
 20
-63.65
 30
0.0
 40
0.5
100
AcDbArc
 50
180.0
 51
270.0
  0
LINE
  5
5E6
330
1D
100
AcDbEntity
  8
BLACK
  6
Continuous
100
AcDbLine
 10
93.207475
 20
-64.14999999999999
 30
0.0
 11
106.807475
 21
-64.14999999999999
 31
0.0
  0
ARC
  5
5E7
330
1D
100
AcDbEntity
  8
BLACK
100
AcDbCircle
 10
106.807475
 20
-63.65
 30
0.0
 40
0.5
100
AcDbArc
 50
270.0
 51
0.0
  0
LINE
  5
5E8
330
1D
100
AcDbEntity
  8
BLACK
  6
Continuous
100
AcDbLine
 10
273.494975
 20
-69.2
 30
0.0
 11
259.894975
 21
-69.2
 31
0.0
  0
ARC
  5
5E9
330
1D
100
AcDbEntity
  8
BLACK
100
AcDbCircle
 10
259.894975
 20
-69.7
 30
0.0
 40
0.5
100
AcDbArc
 50
90.0
 51
180.0
  0
LINE
  5
5EA
330
1D
100
AcDbEntity
  8
BLACK
  6
Continuous
100
AcDbLine
 10
259.394975
 20
-69.7
 30
0.0
 11
259.394975
 21
-82.7
 31
0.0
  0
ARC
  5
5EB
330
1D
100
AcDbEntity
  8
BLACK
100
AcDbCircle
 10
259.894975
 20
-82.7
 30
0.0
 40
0.5
100
AcDbArc
 50
180.0
 51
270.0
  0
LINE
  5
5EC
330
1D
100
AcDbEntity
  8
BLACK
  6
Continuous
100
AcDbLine
 10
259.894975
 20
-83.2
 30
0.0
 11
273.494975
 21
-83.2
 31
0.0
  0
ARC
  5
5ED
330
1D
100
AcDbEntity
  8
BLACK
100
AcDbCircle
 10
273.494975
 20
-82.7
 30
0.0
 40
0.5
100
AcDbArc
 50
270.0
 51
0.0
  0
LINE
  5
5EE
330
1D
100
AcDbEntity
  8
BLACK
  6
Continuous
100
AcDbLine
 10
273.994975
 20
-82.7
 30
0.0
 11
273.994975
 21
-69.7
 31
0.0
  0
ARC
  5
5EF
330
1D
100
AcDbEntity
  8
BLACK
100
AcDbCircle
 10
273.494975
 20
-69.7
 30
0.0
 40
0.5
100
AcDbArc
 50
0.0
 51
90.0
  0
LINE
  5
5F0
330
1D
100
AcDbEntity
  8
BLACK
  6
Continuous
100
AcDbLine
 10
247.301075
 20
-50.15
 30
0.0
 11
233.701225
 21
-50.15
 31
0.0
  0
ARC
  5
5F1
330
1D
100
AcDbEntity
  8
BLACK
100
AcDbCircle
 10
233.701175
 20
-50.65
 30
0.0
 40
0.4999499999999999
100
AcDbArc
 50
89.99426985
 51
180.0
  0
LINE
  5
5F2
330
1D
100
AcDbEntity
  8
BLACK
  6
Continuous
100
AcDbLine
 10
233.201225
 20
-50.65
 30
0.0
 11
233.201225
 21
-63.65680099999999
 31
0.0
  0
ARC
  5
5F3
330
1D
100
AcDbEntity
  8
BLACK
100
AcDbCircle
 10
233.701375
 20
-63.6498
 30
0.0
 40
0.5002
100
AcDbArc
 50
180.80196252
 51
270.0
  0
LINE
  5
5F4
330
1D
100
AcDbEntity
  8
BLACK
  6
Continuous
100
AcDbLine
 10
233.701375
 20
-64.14999999999999
 30
0.0
 11
247.301225
 21
-64.14999999999999
 31
0.0
  0
ARC
  5
5F5
330
1D
100
AcDbEntity
  8
BLACK
100
AcDbCircle
 10
247.301275
 20
-63.65
 30
0.0
 40
0.4999499999999999
100
AcDbArc
 50
269.99426985
 51
0.0
  0
LINE
  5
5F6
330
1D
100
AcDbEntity
  8
BLACK
  6
Continuous
100
AcDbLine
 10
247.801225
 20
-63.65
 30
0.0
 11
247.801225
 21
-50.643128
 31
0.0
  0
ARC
  5
5F7
330
1D
100
AcDbEntity
  8
BLACK
100
AcDbCircle
 10
247.301075
 20
-50.6502
 30
0.0
 40
0.5002
100
AcDbArc
 50
0.8100944800000001
 51
90.0
  0
LINE
  5
5F8
330
1D
100
AcDbEntity
  8
BLACK
  6
Continuous
100
AcDbLine
 10
273.494975
 20
-50.15
 30
0.0
 11
259.894975
 21
-50.15
 31
0.0
  0
ARC
  5
5F9
330
1D
100
AcDbEntity
  8
BLACK
100
AcDbCircle
 10
259.894975
 20
-50.65
 30
0.0
 40
0.5
100
AcDbArc
 50
90.0
 51
180.0
  0
LINE
  5
5FA
330
1D
100
AcDbEntity
  8
BLACK
  6
Continuous
100
AcDbLine
 10
259.394975
 20
-50.65
 30
0.0
 11
259.394975
 21
-63.65
 31
0.0
  0
ARC
  5
5FB
330
1D
100
AcDbEntity
  8
BLACK
100
AcDbCircle
 10
259.894975
 20
-63.65
 30
0.0
 40
0.5
100
AcDbArc
 50
180.0
 51
270.0
  0
LINE
  5
5FC
330
1D
100
AcDbEntity
  8
BLACK
  6
Continuous
100
AcDbLine
 10
259.894975
 20
-64.14999999999999
 30
0.0
 11
273.494975
 21
-64.14999999999999
 31
0.0
  0
ARC
  5
5FD
330
1D
100
AcDbEntity
  8
BLACK
100
AcDbCircle
 10
273.494975
 20
-63.65
 30
0.0
 40
0.5
100
AcDbArc
 50
270.0
 51
0.0
  0
LINE
  5
5FE
330
1D
100
AcDbEntity
  8
BLACK
  6
Continuous
100
AcDbLine
 10
273.994975
 20
-63.65
 30
0.0
 11
273.994975
 21
-50.65
 31
0.0
  0
ARC
  5
5FF
330
1D
100
AcDbEntity
  8
BLACK
100
AcDbCircle
 10
273.494975
 20
-50.65
 30
0.0
 40
0.5
100
AcDbArc
 50
0.0
 51
90.0
  0
ARC
  5
600
330
1D
100
AcDbEntity
  8
BLACK
100
AcDbCircle
 10
116.332475
 20
-44.6
 30
0.0
 40
0.5
100
AcDbArc
 50
270.0
 51
0.0
  0
LINE
  5
601
330
1D
100
AcDbEntity
  8
BLACK
  6
Continuous
100
AcDbLine
 10
116.832475
 20
-44.6
 30
0.0
 11
116.832475
 21
-31.6
 31
0.0
  0
ARC
  5
602
330
1D
100
AcDbEntity
  8
BLACK
100
AcDbCircle
 10
116.332475
 20
-31.6
 30
0.0
 40
0.5
100
AcDbArc
 50
0.0
 51
90.0
  0
LINE
  5
603
330
1D
100
AcDbEntity
  8
BLACK
  6
Continuous
100
AcDbLine
 10
116.332475
 20
-31.1
 30
0.0
 11
102.732475
 21
-31.1
 31
0.0
  0
ARC
  5
604
330
1D
100
AcDbEntity
  8
BLACK
100
AcDbCircle
 10
102.732475
 20
-31.6
 30
0.0
 40
0.5
100
AcDbArc
 50
90.0
 51
180.0
  0
LINE
  5
605
330
1D
100
AcDbEntity
  8
BLACK
  6
Continuous
100
AcDbLine
 10
102.232475
 20
-31.6
 30
0.0
 11
102.232475
 21
-44.6
 31
0.0
  0
ARC
  5
606
330
1D
100
AcDbEntity
  8
BLACK
100
AcDbCircle
 10
102.732475
 20
-44.6
 30
0.0
 40
0.5
100
AcDbArc
 50
180.0
 51
270.0
  0
LINE
  5
607
330
1D
100
AcDbEntity
  8
BLACK
  6
Continuous
100
AcDbLine
 10
102.732475
 20
-45.1
 30
0.0
 11
116.332475
 21
-45.1
 31
0.0
  0
ARC
  5
60A
330
1D
100
AcDbEntity
  8
BLACK
100
AcDbCircle
 10
135.382475
 20
-44.6
 30
0.0
 40
0.5
100
AcDbArc
 50
270.0
 51
0.0
  0
LINE
  5
60B
330
1D
100
AcDbEntity
  8
BLACK
  6
Continuous
100
AcDbLine
 10
135.882475
 20
-44.6
 30
0.0
 11
135.882475
 21
-31.6
 31
0.0
  0
ARC
  5
60C
330
1D
100
AcDbEntity
  8
BLACK
100
AcDbCircle
 10
135.382475
 20
-31.6
 30
0.0
 40
0.5
100
AcDbArc
 50
0.0
 51
90.0
  0
LINE
  5
60D
330
1D
100
AcDbEntity
  8
BLACK
  6
Continuous
100
AcDbLine
 10
135.382475
 20
-31.1
 30
0.0
 11
121.782475
 21
-31.1
 31
0.0
  0
ARC
  5
60E
330
1D
100
AcDbEntity
  8
BLACK
100
AcDbCircle
 10
121.782475
 20
-31.6
 30
0.0
 40
0.5
100
AcDbArc
 50
90.0
 51
180.0
  0
LINE
  5
60F
330
1D
100
AcDbEntity
  8
BLACK
  6
Continuous
100
AcDbLine
 10
121.282475
 20
-31.6
 30
0.0
 11
121.282475
 21
-44.6
 31
0.0
  0
ARC
  5
610
330
1D
100
AcDbEntity
  8
BLACK
100
AcDbCircle
 10
121.782475
 20
-44.6
 30
0.0
 40
0.5
100
AcDbArc
 50
180.0
 51
270.0
  0
LINE
  5
611
330
1D
100
AcDbEntity
  8
BLACK
  6
Continuous
100
AcDbLine
 10
121.782475
 20
-45.1
 30
0.0
 11
135.382475
 21
-45.1
 31
0.0
  0
LINE
  5
613
330
1D
100
AcDbEntity
  8
BLACK
  6
Continuous
100
AcDbLine
 10
278.944975
 20
-83.2
 30
0.0
 11
292.544975
 21
-83.2
 31
0.0
  0
ARC
  5
614
330
1D
100
AcDbEntity
  8
BLACK
100
AcDbCircle
 10
292.544975
 20
-82.7
 30
0.0
 40
0.5
100
AcDbArc
 50
270.0
 51
0.0
  0
LINE
  5
615
330
1D
100
AcDbEntity
  8
BLACK
  6
Continuous
100
AcDbLine
 10
293.044975
 20
-82.7
 30
0.0
 11
293.044975
 21
-69.7
 31
0.0
  0
ARC
  5
616
330
1D
100
AcDbEntity
  8
BLACK
100
AcDbCircle
 10
292.544975
 20
-69.7
 30
0.0
 40
0.5
100
AcDbArc
 50
0.0
 51
90.0
  0
LINE
  5
617
330
1D
100
AcDbEntity
  8
BLACK
  6
Continuous
100
AcDbLine
 10
292.544975
 20
-69.2
 30
0.0
 11
278.944975
 21
-69.2
 31
0.0
  0
ARC
  5
618
330
1D
100
AcDbEntity
  8
BLACK
100
AcDbCircle
 10
278.944975
 20
-69.7
 30
0.0
 40
0.5
100
AcDbArc
 50
90.0
 51
180.0
  0
LINE
  5
619
330
1D
100
AcDbEntity
  8
BLACK
  6
Continuous
100
AcDbLine
 10
278.444975
 20
-69.7
 30
0.0
 11
278.444975
 21
-82.7
 31
0.0
  0
ARC
  5
61A
330
1D
100
AcDbEntity
  8
BLACK
100
AcDbCircle
 10
278.944975
 20
-82.7
 30
0.0
 40
0.5
100
AcDbArc
 50
180.0
 51
270.0
  0
ARC
  5
61C
330
1D
100
AcDbEntity
  8
BLACK
100
AcDbCircle
 10
87.757475
 20
-63.65
 30
0.0
 40
0.5
100
AcDbArc
 50
270.0
 51
0.0
  0
LINE
  5
61D
330
1D
100
AcDbEntity
  8
BLACK
  6
Continuous
100
AcDbLine
 10
88.257475
 20
-63.65
 30
0.0
 11
88.257475
 21
-50.65
 31
0.0
  0
ARC
  5
61E
330
1D
100
AcDbEntity
  8
BLACK
100
AcDbCircle
 10
87.757475
 20
-50.65
 30
0.0
 40
0.5
100
AcDbArc
 50
0.0
 51
90.0
  0
LINE
  5
61F
330
1D
100
AcDbEntity
  8
BLACK
  6
Continuous
100
AcDbLine
 10
87.757475
 20
-50.15
 30
0.0
 11
74.15747499999999
 21
-50.15
 31
0.0
  0
ARC
  5
620
330
1D
100
AcDbEntity
  8
BLACK
100
AcDbCircle
 10
74.15747499999999
 20
-50.65
 30
0.0
 40
0.5
100
AcDbArc
 50
90.0
 51
180.0
  0
LINE
  5
621
330
1D
100
AcDbEntity
  8
BLACK
  6
Continuous
100
AcDbLine
 10
73.65747499999999
 20
-50.65
 30
0.0
 11
73.65747499999999
 21
-63.65
 31
0.0
  0
ARC
  5
622
330
1D
100
AcDbEntity
  8
BLACK
100
AcDbCircle
 10
74.15747499999999
 20
-63.65
 30
0.0
 40
0.5
100
AcDbArc
 50
180.0
 51
270.0
  0
LINE
  5
623
330
1D
100
AcDbEntity
  8
BLACK
  6
Continuous
100
AcDbLine
 10
74.15747499999999
 20
-64.14999999999999
 30
0.0
 11
87.757475
 21
-64.14999999999999
 31
0.0
  0
ARC
  5
624
330
1D
100
AcDbEntity
  8
BLACK
100
AcDbCircle
 10
97.28247499999999
 20
-44.6
 30
0.0
 40
0.5
100
AcDbArc
 50
270.0
 51
0.0
  0
LINE
  5
625
330
1D
100
AcDbEntity
  8
BLACK
  6
Continuous
100
AcDbLine
 10
97.78247499999999
 20
-44.6
 30
0.0
 11
97.78247499999999
 21
-31.6
 31
0.0
  0
ARC
  5
626
330
1D
100
AcDbEntity
  8
BLACK
100
AcDbCircle
 10
97.28247499999999
 20
-31.6
 30
0.0
 40
0.5
100
AcDbArc
 50
0.0
 51
90.0
  0
LINE
  5
627
330
1D
100
AcDbEntity
  8
BLACK
  6
Continuous
100
AcDbLine
 10
97.28247499999999
 20
-31.1
 30
0.0
 11
83.682475
 21
-31.1
 31
0.0
  0
ARC
  5
628
330
1D
100
AcDbEntity
  8
BLACK
100
AcDbCircle
 10
83.682475
 20
-31.6
 30
0.0
 40
0.5
100
AcDbArc
 50
90.0
 51
180.0
  0
LINE
  5
629
330
1D
100
AcDbEntity
  8
BLACK
  6
Continuous
100
AcDbLine
 10
83.182475
 20
-31.6
 30
0.0
 11
83.182475
 21
-44.6
 31
0.0
  0
ARC
  5
62A
330
1D
100
AcDbEntity
  8
BLACK
100
AcDbCircle
 10
83.682475
 20
-44.6
 30
0.0
 40
0.5
100
AcDbArc
 50
180.0
 51
270.0
  0
LINE
  5
62B
330
1D
100
AcDbEntity
  8
BLACK
  6
Continuous
100
AcDbLine
 10
83.682475
 20
-45.1
 30
0.0
 11
97.28247499999999
 21
-45.1
 31
0.0
  0
ARC
  5
62E
330
1D
100
AcDbEntity
  8
BLACK
100
AcDbCircle
 10
117.019975
 20
-12.55
 30
0.0
 40
0.5
100
AcDbArc
 50
90.0
 51
180.0
  0
LINE
  5
62F
330
1D
100
AcDbEntity
  8
BLACK
  6
Continuous
100
AcDbLine
 10
116.519975
 20
-12.55
 30
0.0
 11
116.519975
 21
-25.55
 31
0.0
  0
ARC
  5
630
330
1D
100
AcDbEntity
  8
BLACK
100
AcDbCircle
 10
117.019975
 20
-25.55
 30
0.0
 40
0.5
100
AcDbArc
 50
180.0
 51
270.0
  0
LINE
  5
631
330
1D
100
AcDbEntity
  8
BLACK
  6
Continuous
100
AcDbLine
 10
117.019975
 20
-26.05
 30
0.0
 11
130.619975
 21
-26.05
 31
0.0
  0
ARC
  5
632
330
1D
100
AcDbEntity
  8
BLACK
100
AcDbCircle
 10
130.619975
 20
-25.55
 30
0.0
 40
0.5
100
AcDbArc
 50
270.0
 51
0.0
  0
LINE
  5
633
330
1D
100
AcDbEntity
  8
BLACK
  6
Continuous
100
AcDbLine
 10
131.119975
 20
-25.55
 30
0.0
 11
131.119975
 21
-12.55
 31
0.0
  0
ARC
  5
634
330
1D
100
AcDbEntity
  8
BLACK
100
AcDbCircle
 10
130.619975
 20
-12.55
 30
0.0
 40
0.5
100
AcDbArc
 50
0.0
 51
90.0
  0
LINE
  5
635
330
1D
100
AcDbEntity
  8
BLACK
  6
Continuous
100
AcDbLine
 10
130.619975
 20
-12.05
 30
0.0
 11
117.019975
 21
-12.05
 31
0.0
  0
LINE
  5
636
330
1D
100
AcDbEntity
  8
BLACK
  6
Continuous
100
AcDbLine
 10
112.069975
 20
-25.55
 30
0.0
 11
112.069975
 21
-12.55
 31
0.0
  0
ARC
  5
637
330
1D
100
AcDbEntity
  8
BLACK
100
AcDbCircle
 10
111.569975
 20
-12.55
 30
0.0
 40
0.5
100
AcDbArc
 50
0.0
 51
90.0
  0
LINE
  5
638
330
1D
100
AcDbEntity
  8
BLACK
  6
Continuous
100
AcDbLine
 10
111.569975
 20
-12.05
 30
0.0
 11
97.96997499999999
 21
-12.05
 31
0.0
  0
ARC
  5
639
330
1D
100
AcDbEntity
  8
BLACK
100
AcDbCircle
 10
97.96997499999999
 20
-12.55
 30
0.0
 40
0.5
100
AcDbArc
 50
90.0
 51
180.0
  0
LINE
  5
63A
330
1D
100
AcDbEntity
  8
BLACK
  6
Continuous
100
AcDbLine
 10
97.46997499999999
 20
-12.55
 30
0.0
 11
97.46997499999999
 21
-25.55
 31
0.0
  0
ARC
  5
63B
330
1D
100
AcDbEntity
  8
BLACK
100
AcDbCircle
 10
97.96997499999999
 20
-25.55
 30
0.0
 40
0.5
100
AcDbArc
 50
180.0
 51
270.0
  0
LINE
  5
63C
330
1D
100
AcDbEntity
  8
BLACK
  6
Continuous
100
AcDbLine
 10
97.96997499999999
 20
-26.05
 30
0.0
 11
111.569975
 21
-26.05
 31
0.0
  0
ARC
  5
63D
330
1D
100
AcDbEntity
  8
BLACK
100
AcDbCircle
 10
111.569975
 20
-25.55
 30
0.0
 40
0.5
100
AcDbArc
 50
270.0
 51
0.0
  0
ARC
  5
63E
330
1D
100
AcDbEntity
  8
BLACK
100
AcDbCircle
 10
126.544975
 20
6.5
 30
0.0
 40
0.5
100
AcDbArc
 50
90.0
 51
180.0
  0
LINE
  5
63F
330
1D
100
AcDbEntity
  8
BLACK
  6
Continuous
100
AcDbLine
 10
126.044975
 20
6.5
 30
0.0
 11
126.044975
 21
-6.5
 31
0.0
  0
ARC
  5
640
330
1D
100
AcDbEntity
  8
BLACK
100
AcDbCircle
 10
126.544975
 20
-6.5
 30
0.0
 40
0.5
100
AcDbArc
 50
180.0
 51
270.0
  0
LINE
  5
641
330
1D
100
AcDbEntity
  8
BLACK
  6
Continuous
100
AcDbLine
 10
126.544975
 20
-7.0
 30
0.0
 11
140.144975
 21
-7.0
 31
0.0
  0
ARC
  5
642
330
1D
100
AcDbEntity
  8
BLACK
100
AcDbCircle
 10
140.144975
 20
-6.5
 30
0.0
 40
0.5
100
AcDbArc
 50
270.0
 51
0.0
  0
LINE
  5
643
330
1D
100
AcDbEntity
  8
BLACK
  6
Continuous
100
AcDbLine
 10
140.644975
 20
-6.5
 30
0.0
 11
140.644975
 21
6.5
 31
0.0
  0
ARC
  5
644
330
1D
100
AcDbEntity
  8
BLACK
100
AcDbCircle
 10
140.144975
 20
6.5
 30
0.0
 40
0.5
100
AcDbArc
 50
0.0
 51
90.0
  0
LINE
  5
645
330
1D
100
AcDbEntity
  8
BLACK
  6
Continuous
100
AcDbLine
 10
140.144975
 20
7.0
 30
0.0
 11
126.544975
 21
7.0
 31
0.0
  0
ARC
  5
646
330
1D
100
AcDbEntity
  8
BLACK
100
AcDbCircle
 10
121.094975
 20
-6.5
 30
0.0
 40
0.5
100
AcDbArc
 50
270.0
 51
0.0
  0
LINE
  5
647
330
1D
100
AcDbEntity
  8
BLACK
  6
Continuous
100
AcDbLine
 10
121.594975
 20
-6.5
 30
0.0
 11
121.594975
 21
6.5
 31
0.0
  0
ARC
  5
648
330
1D
100
AcDbEntity
  8
BLACK
100
AcDbCircle
 10
121.094975
 20
6.5
 30
0.0
 40
0.5
100
AcDbArc
 50
0.0
 51
90.0
  0
LINE
  5
649
330
1D
100
AcDbEntity
  8
BLACK
  6
Continuous
100
AcDbLine
 10
121.094975
 20
7.0
 30
0.0
 11
107.494975
 21
7.0
 31
0.0
  0
ARC
  5
64A
330
1D
100
AcDbEntity
  8
BLACK
100
AcDbCircle
 10
107.494975
 20
6.5
 30
0.0
 40
0.5
100
AcDbArc
 50
90.0
 51
180.0
  0
LINE
  5
64B
330
1D
100
AcDbEntity
  8
BLACK
  6
Continuous
100
AcDbLine
 10
106.994975
 20
6.5
 30
0.0
 11
106.994975
 21
-6.5
 31
0.0
  0
ARC
  5
64C
330
1D
100
AcDbEntity
  8
BLACK
100
AcDbCircle
 10
107.494975
 20
-6.5
 30
0.0
 40
0.5
100
AcDbArc
 50
180.0
 51
270.0
  0
LINE
  5
64D
330
1D
100
AcDbEntity
  8
BLACK
  6
Continuous
100
AcDbLine
 10
107.494975
 20
-7.0
 30
0.0
 11
121.094975
 21
-7.0
 31
0.0
  0
ARC
  5
64F
330
1D
100
AcDbEntity
  8
BLACK
100
AcDbCircle
 10
102.044975
 20
6.5
 30
0.0
 40
0.5
100
AcDbArc
 50
0.0
 51
90.0
  0
LINE
  5
650
330
1D
100
AcDbEntity
  8
BLACK
  6
Continuous
100
AcDbLine
 10
102.044975
 20
7.0
 30
0.0
 11
88.444975
 21
7.0
 31
0.0
  0
ARC
  5
651
330
1D
100
AcDbEntity
  8
BLACK
100
AcDbCircle
 10
88.444975
 20
6.5
 30
0.0
 40
0.5
100
AcDbArc
 50
90.0
 51
180.0
  0
LINE
  5
652
330
1D
100
AcDbEntity
  8
BLACK
  6
Continuous
100
AcDbLine
 10
87.944975
 20
6.5
 30
0.0
 11
87.944975
 21
-6.5
 31
0.0
  0
ARC
  5
653
330
1D
100
AcDbEntity
  8
BLACK
100
AcDbCircle
 10
88.444975
 20
-6.5
 30
0.0
 40
0.5
100
AcDbArc
 50
180.0
 51
270.0
  0
LINE
  5
654
330
1D
100
AcDbEntity
  8
BLACK
  6
Continuous
100
AcDbLine
 10
88.444975
 20
-7.0
 30
0.0
 11
102.044975
 21
-7.0
 31
0.0
  0
ARC
  5
655
330
1D
100
AcDbEntity
  8
BLACK
100
AcDbCircle
 10
102.044975
 20
-6.5
 30
0.0
 40
0.5
100
AcDbArc
 50
270.0
 51
0.0
  0
LINE
  5
656
330
1D
100
AcDbEntity
  8
BLACK
  6
Continuous
100
AcDbLine
 10
102.544975
 20
-6.5
 30
0.0
 11
102.544975
 21
6.5
 31
0.0
  0
LINE
  5
657
330
1D
100
AcDbEntity
  8
BLACK
  6
Continuous
100
AcDbLine
 10
78.419975
 20
-12.55
 30
0.0
 11
78.419975
 21
-25.55
 31
0.0
  0
ARC
  5
658
330
1D
100
AcDbEntity
  8
BLACK
100
AcDbCircle
 10
78.919975
 20
-25.55
 30
0.0
 40
0.5
100
AcDbArc
 50
180.0
 51
270.0
  0
LINE
  5
659
330
1D
100
AcDbEntity
  8
BLACK
  6
Continuous
100
AcDbLine
 10
78.919975
 20
-26.05
 30
0.0
 11
92.519975
 21
-26.05
 31
0.0
  0
ARC
  5
65A
330
1D
100
AcDbEntity
  8
BLACK
100
AcDbCircle
 10
92.519975
 20
-25.55
 30
0.0
 40
0.5
100
AcDbArc
 50
270.0
 51
0.0
  0
LINE
  5
65B
330
1D
100
AcDbEntity
  8
BLACK
  6
Continuous
100
AcDbLine
 10
93.019975
 20
-25.55
 30
0.0
 11
93.019975
 21
-12.55
 31
0.0
  0
ARC
  5
65C
330
1D
100
AcDbEntity
  8
BLACK
100
AcDbCircle
 10
92.519975
 20
-12.55
 30
0.0
 40
0.5
100
AcDbArc
 50
0.0
 51
90.0
  0
LINE
  5
65D
330
1D
100
AcDbEntity
  8
BLACK
  6
Continuous
100
AcDbLine
 10
92.519975
 20
-12.05
 30
0.0
 11
78.919975
 21
-12.05
 31
0.0
  0
ARC
  5
65E
330
1D
100
AcDbEntity
  8
BLACK
100
AcDbCircle
 10
78.919975
 20
-12.55
 30
0.0
 40
0.5
100
AcDbArc
 50
90.0
 51
180.0
  0
ARC
  5
65F
330
1D
100
AcDbEntity
  8
BLACK
100
AcDbCircle
 10
278.944975
 20
-63.65
 30
0.0
 40
0.5
100
AcDbArc
 50
180.0
 51
270.0
  0
LINE
  5
660
330
1D
100
AcDbEntity
  8
BLACK
  6
Continuous
100
AcDbLine
 10
278.944975
 20
-64.14999999999999
 30
0.0
 11
292.544975
 21
-64.14999999999999
 31
0.0
  0
ARC
  5
661
330
1D
100
AcDbEntity
  8
BLACK
100
AcDbCircle
 10
292.544975
 20
-63.65
 30
0.0
 40
0.5
100
AcDbArc
 50
270.0
 51
0.0
  0
LINE
  5
662
330
1D
100
AcDbEntity
  8
BLACK
  6
Continuous
100
AcDbLine
 10
293.044975
 20
-63.65
 30
0.0
 11
293.044975
 21
-50.65
 31
0.0
  0
ARC
  5
663
330
1D
100
AcDbEntity
  8
BLACK
100
AcDbCircle
 10
292.544975
 20
-50.65
 30
0.0
 40
0.5
100
AcDbArc
 50
0.0
 51
90.0
  0
LINE
  5
664
330
1D
100
AcDbEntity
  8
BLACK
  6
Continuous
100
AcDbLine
 10
292.544975
 20
-50.15
 30
0.0
 11
278.944975
 21
-50.15
 31
0.0
  0
ARC
  5
665
330
1D
100
AcDbEntity
  8
BLACK
100
AcDbCircle
 10
278.944975
 20
-50.65
 30
0.0
 40
0.5
100
AcDbArc
 50
90.0
 51
180.0
  0
LINE
  5
666
330
1D
100
AcDbEntity
  8
BLACK
  6
Continuous
100
AcDbLine
 10
278.444975
 20
-50.65
 30
0.0
 11
278.444975
 21
-63.65
 31
0.0
  0
LINE
  5
66A
330
1D
100
AcDbEntity
  8
BLACK
  6
Continuous
100
AcDbLine
 10
240.344975
 20
-69.7
 30
0.0
 11
240.344975
 21
-82.7
 31
0.0
  0
ARC
  5
66B
330
1D
100
AcDbEntity
  8
BLACK
100
AcDbCircle
 10
240.844975
 20
-82.7
 30
0.0
 40
0.5
100
AcDbArc
 50
180.0
 51
270.0
  0
LINE
  5
66C
330
1D
100
AcDbEntity
  8
BLACK
  6
Continuous
100
AcDbLine
 10
240.844975
 20
-83.2
 30
0.0
 11
254.444975
 21
-83.2
 31
0.0
  0
ARC
  5
66D
330
1D
100
AcDbEntity
  8
BLACK
100
AcDbCircle
 10
254.444975
 20
-82.7
 30
0.0
 40
0.5
100
AcDbArc
 50
270.0
 51
0.0
  0
LINE
  5
66E
330
1D
100
AcDbEntity
  8
BLACK
  6
Continuous
100
AcDbLine
 10
254.944975
 20
-82.7
 30
0.0
 11
254.944975
 21
-69.7
 31
0.0
  0
ARC
  5
66F
330
1D
100
AcDbEntity
  8
BLACK
100
AcDbCircle
 10
254.444975
 20
-69.7
 30
0.0
 40
0.5
100
AcDbArc
 50
0.0
 51
90.0
  0
LINE
  5
670
330
1D
100
AcDbEntity
  8
BLACK
  6
Continuous
100
AcDbLine
 10
254.444975
 20
-69.2
 30
0.0
 11
240.844975
 21
-69.2
 31
0.0
  0
ARC
  5
671
330
1D
100
AcDbEntity
  8
BLACK
100
AcDbCircle
 10
240.844975
 20
-69.7
 30
0.0
 40
0.5
100
AcDbArc
 50
90.0
 51
180.0
  0
LINE
  5
675
330
1D
100
AcDbEntity
  8
BLACK
  6
Continuous
100
AcDbLine
 10
-40.330025
 20
-44.599998
 30
0.0
 11
-40.330025
 21
-31.600001
 31
0.0
  0
ARC
  5
676
330
1D
100
AcDbEntity
  8
BLACK
100
AcDbCircle
 10
-40.830026
 20
-31.600001
 30
0.0
 40
0.500001
100
AcDbArc
 50
0.0
 51
90.0
  0
LINE
  5
677
330
1D
100
AcDbEntity
  8
BLACK
  6
Continuous
100
AcDbLine
 10
-40.830026
 20
-31.1
 30
0.0
 11
-54.430024
 21
-31.1
 31
0.0
  0
ARC
  5
678
330
1D
100
AcDbEntity
  8
BLACK
100
AcDbCircle
 10
-54.430024
 20
-31.600001
 30
0.0
 40
0.500001
100
AcDbArc
 50
90.0
 51
180.0
  0
LINE
  5
679
330
1D
100
AcDbEntity
  8
BLACK
  6
Continuous
100
AcDbLine
 10
-54.930025
 20
-31.600001
 30
0.0
 11
-54.930025
 21
-44.599999
 31
0.0
  0
ARC
  5
67A
330
1D
100
AcDbEntity
  8
BLACK
100
AcDbCircle
 10
-54.430024
 20
-44.599999
 30
0.0
 40
0.500001000001
100
AcDbArc
 50
180.0
 51
269.99988541
  0
LINE
  5
67B
330
1D
100
AcDbEntity
  8
BLACK
  6
Continuous
100
AcDbLine
 10
-54.430025
 20
-45.1
 30
0.0
 11
-40.830025
 21
-45.1
 31
0.0
  0
ARC
  5
67C
330
1D
100
AcDbEntity
  8
BLACK
100
AcDbCircle
 10
-40.830026
 20
-44.599999
 30
0.0
 40
0.500001000001
100
AcDbArc
 50
270.00011459
 51
0.00011459
  0
LINE
  5
67D
330
1D
100
AcDbEntity
  8
BLACK
  6
Continuous
100
AcDbLine
 10
-40.830026
 20
-50.15
 30
0.0
 11
-54.430024
 21
-50.15
 31
0.0
  0
ARC
  5
67E
330
1D
100
AcDbEntity
  8
BLACK
100
AcDbCircle
 10
-54.430024
 20
-50.650001
 30
0.0
 40
0.500001
100
AcDbArc
 50
90.0
 51
180.0
  0
LINE
  5
67F
330
1D
100
AcDbEntity
  8
BLACK
  6
Continuous
100
AcDbLine
 10
-54.930025
 20
-50.650001
 30
0.0
 11
-54.930025
 21
-63.65
 31
0.0
  0
ARC
  5
680
330
1D
100
AcDbEntity
  8
BLACK
100
AcDbCircle
 10
-54.430024
 20
-63.64999899999999
 30
0.0
 40
0.500001
100
AcDbArc
 50
180.00011459
 51
270.0
  0
LINE
  5
681
330
1D
100
AcDbEntity
  8
BLACK
  6
Continuous
100
AcDbLine
 10
-54.430024
 20
-64.14999999999999
 30
0.0
 11
-40.830025
 21
-64.14999999999999
 31
0.0
  0
ARC
  5
682
330
1D
100
AcDbEntity
  8
BLACK
100
AcDbCircle
 10
-40.830026
 20
-63.64999899999999
 30
0.0
 40
0.500001000001
100
AcDbArc
 50
270.00011459
 51
0.00011459
  0
LINE
  5
683
330
1D
100
AcDbEntity
  8
BLACK
  6
Continuous
100
AcDbLine
 10
-40.330025
 20
-63.649998
 30
0.0
 11
-40.330025
 21
-50.650001
 31
0.0
  0
ARC
  5
684
330
1D
100
AcDbEntity
  8
BLACK
100
AcDbCircle
 10
-40.830026
 20
-50.650001
 30
0.0
 40
0.500001
100
AcDbArc
 50
0.0
 51
90.0
  0
ARC
  5
685
330
1D
100
AcDbEntity
  8
BLACK
100
AcDbCircle
 10
-40.830026
 20
-82.69999899999999
 30
0.0
 40
0.500001000001
100
AcDbArc
 50
270.00011459
 51
0.00011459
  0
LINE
  5
686
330
1D
100
AcDbEntity
  8
BLACK
  6
Continuous
100
AcDbLine
 10
-40.330025
 20
-82.699998
 30
0.0
 11
-40.330025
 21
-69.700001
 31
0.0
  0
ARC
  5
687
330
1D
100
AcDbEntity
  8
BLACK
100
AcDbCircle
 10
-40.830026
 20
-69.700001
 30
0.0
 40
0.500001
100
AcDbArc
 50
0.0
 51
90.0
  0
LINE
  5
688
330
1D
100
AcDbEntity
  8
BLACK
  6
Continuous
100
AcDbLine
 10
-40.830026
 20
-69.2
 30
0.0
 11
-54.430024
 21
-69.2
 31
0.0
  0
ARC
  5
689
330
1D
100
AcDbEntity
  8
BLACK
100
AcDbCircle
 10
-54.430024
 20
-69.700001
 30
0.0
 40
0.500001
100
AcDbArc
 50
90.0
 51
180.0
  0
LINE
  5
68A
330
1D
100
AcDbEntity
  8
BLACK
  6
Continuous
100
AcDbLine
 10
-54.930025
 20
-69.700001
 30
0.0
 11
-54.930025
 21
-82.7
 31
0.0
  0
ARC
  5
68B
330
1D
100
AcDbEntity
  8
BLACK
100
AcDbCircle
 10
-54.430024
 20
-82.69999899999999
 30
0.0
 40
0.500001
100
AcDbArc
 50
180.00011459
 51
270.0
  0
LINE
  5
68C
330
1D
100
AcDbEntity
  8
BLACK
  6
Continuous
100
AcDbLine
 10
-54.430024
 20
-83.2
 30
0.0
 11
-40.830025
 21
-83.2
 31
0.0
  0
ARC
  5
68D
330
1D
100
AcDbEntity
  8
BLACK
100
AcDbCircle
 10
-40.830026
 20
-25.549999
 30
0.0
 40
0.500001000001
100
AcDbArc
 50
270.00011459
 51
0.00011459
  0
LINE
  5
68E
330
1D
100
AcDbEntity
  8
BLACK
  6
Continuous
100
AcDbLine
 10
-40.330025
 20
-25.549998
 30
0.0
 11
-40.330025
 21
-12.550001
 31
0.0
  0
ARC
  5
68F
330
1D
100
AcDbEntity
  8
BLACK
100
AcDbCircle
 10
-40.830026
 20
-12.550001
 30
0.0
 40
0.500001
100
AcDbArc
 50
0.0
 51
90.0
  0
LINE
  5
690
330
1D
100
AcDbEntity
  8
BLACK
  6
Continuous
100
AcDbLine
 10
-40.830026
 20
-12.05
 30
0.0
 11
-54.430024
 21
-12.05
 31
0.0
  0
ARC
  5
691
330
1D
100
AcDbEntity
  8
BLACK
100
AcDbCircle
 10
-54.430024
 20
-12.550001
 30
0.0
 40
0.500001
100
AcDbArc
 50
90.0
 51
180.0
  0
LINE
  5
692
330
1D
100
AcDbEntity
  8
BLACK
  6
Continuous
100
AcDbLine
 10
-54.930025
 20
-12.550001
 30
0.0
 11
-54.930025
 21
-25.55
 31
0.0
  0
ARC
  5
693
330
1D
100
AcDbEntity
  8
BLACK
100
AcDbCircle
 10
-54.430024
 20
-25.549999
 30
0.0
 40
0.500001
100
AcDbArc
 50
180.00011459
 51
270.0
  0
LINE
  5
694
330
1D
100
AcDbEntity
  8
BLACK
  6
Continuous
100
AcDbLine
 10
-54.430024
 20
-26.05
 30
0.0
 11
-40.830025
 21
-26.05
 31
0.0
  0
LINE
  5
695
330
1D
100
AcDbEntity
  8
BLACK
  6
Continuous
100
AcDbLine
 10
-54.430024
 20
-7.0
 30
0.0
 11
-40.830025
 21
-7.0
 31
0.0
  0
ARC
  5
696
330
1D
100
AcDbEntity
  8
BLACK
100
AcDbCircle
 10
-40.830026
 20
-6.499999
 30
0.0
 40
0.500001000001
100
AcDbArc
 50
270.00011459
 51
0.00011459
  0
LINE
  5
697
330
1D
100
AcDbEntity
  8
BLACK
  6
Continuous
100
AcDbLine
 10
-40.330025
 20
-6.499998
 30
0.0
 11
-40.330025
 21
6.499999
 31
0.0
  0
ARC
  5
698
330
1D
100
AcDbEntity
  8
BLACK
100
AcDbCircle
 10
-40.830026
 20
6.499999
 30
0.0
 40
0.500001
100
AcDbArc
 50
0.0
 51
90.0
  0
LINE
  5
699
330
1D
100
AcDbEntity
  8
BLACK
  6
Continuous
100
AcDbLine
 10
-40.830026
 20
7.0
 30
0.0
 11
-54.430025
 21
7.0
 31
0.0
  0
ARC
  5
69A
330
1D
100
AcDbEntity
  8
BLACK
100
AcDbCircle
 10
-54.430024
 20
6.499999
 30
0.0
 40
0.500001
100
AcDbArc
 50
90.00011459
 51
180.0
  0
LINE
  5
69B
330
1D
100
AcDbEntity
  8
BLACK
  6
Continuous
100
AcDbLine
 10
-54.930025
 20
6.499999
 30
0.0
 11
-54.930025
 21
-6.5
 31
0.0
  0
ARC
  5
69C
330
1D
100
AcDbEntity
  8
BLACK
100
AcDbCircle
 10
-54.430024
 20
-6.499999
 30
0.0
 40
0.500001
100
AcDbArc
 50
180.00011459
 51
270.0
  0
ARC
  5
69D
330
1D
100
AcDbEntity
  8
BLACK
100
AcDbCircle
 10
-35.380024
 20
-12.550001
 30
0.0
 40
0.500001
100
AcDbArc
 50
90.0
 51
180.0
  0
LINE
  5
69E
330
1D
100
AcDbEntity
  8
BLACK
  6
Continuous
100
AcDbLine
 10
-35.880025
 20
-12.550001
 30
0.0
 11
-35.880025
 21
-25.55
 31
0.0
  0
ARC
  5
69F
330
1D
100
AcDbEntity
  8
BLACK
100
AcDbCircle
 10
-35.380024
 20
-25.549999
 30
0.0
 40
0.500001
100
AcDbArc
 50
180.00011459
 51
270.0
  0
LINE
  5
6A0
330
1D
100
AcDbEntity
  8
BLACK
  6
Continuous
100
AcDbLine
 10
-35.380024
 20
-26.05
 30
0.0
 11
-21.780025
 21
-26.05
 31
0.0
  0
ARC
  5
6A1
330
1D
100
AcDbEntity
  8
BLACK
100
AcDbCircle
 10
-21.780026
 20
-25.549999
 30
0.0
 40
0.500001000001
100
AcDbArc
 50
270.00011459
 51
0.00011459
  0
LINE
  5
6A2
330
1D
100
AcDbEntity
  8
BLACK
  6
Continuous
100
AcDbLine
 10
-21.280025
 20
-25.549998
 30
0.0
 11
-21.280025
 21
-12.550001
 31
0.0
  0
ARC
  5
6A3
330
1D
100
AcDbEntity
  8
BLACK
100
AcDbCircle
 10
-21.780026
 20
-12.550001
 30
0.0
 40
0.500001
100
AcDbArc
 50
0.0
 51
90.0
  0
LINE
  5
6A4
330
1D
100
AcDbEntity
  8
BLACK
  6
Continuous
100
AcDbLine
 10
-21.780026
 20
-12.05
 30
0.0
 11
-35.380024
 21
-12.05
 31
0.0
  0
LINE
  5
6A5
330
1D
100
AcDbEntity
  8
BLACK
  6
Continuous
100
AcDbLine
 10
-21.780026
 20
7.0
 30
0.0
 11
-35.380024
 21
7.0
 31
0.0
  0
ARC
  5
6A6
330
1D
100
AcDbEntity
  8
BLACK
100
AcDbCircle
 10
-35.380024
 20
6.499999
 30
0.0
 40
0.500001000001
100
AcDbArc
 50
90.0
 51
179.99988541
  0
LINE
  5
6A7
330
1D
100
AcDbEntity
  8
BLACK
  6
Continuous
100
AcDbLine
 10
-35.880025
 20
6.5
 30
0.0
 11
-35.880025
 21
-6.499999
 31
0.0
  0
ARC
  5
6A8
330
1D
100
AcDbEntity
  8
BLACK
100
AcDbCircle
 10
-35.380024
 20
-6.499999
 30
0.0
 40
0.500001000001
100
AcDbArc
 50
180.0
 51
269.99988541
  0
LINE
  5
6A9
330
1D
100
AcDbEntity
  8
BLACK
  6
Continuous
100
AcDbLine
 10
-35.380025
 20
-7.0
 30
0.0
 11
-21.780026
 21
-7.0
 31
0.0
  0
ARC
  5
6AA
330
1D
100
AcDbEntity
  8
BLACK
100
AcDbCircle
 10
-21.780026
 20
-6.499999
 30
0.0
 40
0.500001000001
100
AcDbArc
 50
270.0
 51
359.99988541
  0
LINE
  5
6AB
330
1D
100
AcDbEntity
  8
BLACK
  6
Continuous
100
AcDbLine
 10
-21.280025
 20
-6.5
 30
0.0
 11
-21.280025
 21
6.499999
 31
0.0
  0
ARC
  5
6AC
330
1D
100
AcDbEntity
  8
BLACK
100
AcDbCircle
 10
-21.780026
 20
6.499999
 30
0.0
 40
0.500001
100
AcDbArc
 50
0.0
 51
90.0
  0
LINE
  5
6AD
330
1D
100
AcDbEntity
  8
BLACK
  6
Continuous
100
AcDbLine
 10
-35.880025
 20
-69.700001
 30
0.0
 11
-35.880025
 21
-82.7
 31
0.0
  0
ARC
  5
6AE
330
1D
100
AcDbEntity
  8
BLACK
100
AcDbCircle
 10
-35.380024
 20
-82.69999899999999
 30
0.0
 40
0.500001
100
AcDbArc
 50
180.00011459
 51
270.0
  0
LINE
  5
6AF
330
1D
100
AcDbEntity
  8
BLACK
  6
Continuous
100
AcDbLine
 10
-35.380024
 20
-83.2
 30
0.0
 11
-21.780026
 21
-83.2
 31
0.0
  0
ARC
  5
6B0
330
1D
100
AcDbEntity
  8
BLACK
100
AcDbCircle
 10
-21.780026
 20
-82.69999899999999
 30
0.0
 40
0.500001000001
100
AcDbArc
 50
270.0
 51
359.99988541
  0
LINE
  5
6B1
330
1D
100
AcDbEntity
  8
BLACK
  6
Continuous
100
AcDbLine
 10
-21.280025
 20
-82.7
 30
0.0
 11
-21.280025
 21
-69.700001
 31
0.0
  0
ARC
  5
6B2
330
1D
100
AcDbEntity
  8
BLACK
100
AcDbCircle
 10
-21.780026
 20
-69.700001
 30
0.0
 40
0.500001
100
AcDbArc
 50
0.0
 51
90.0
  0
LINE
  5
6B3
330
1D
100
AcDbEntity
  8
BLACK
  6
Continuous
100
AcDbLine
 10
-21.780026
 20
-69.2
 30
0.0
 11
-35.380024
 21
-69.2
 31
0.0
  0
ARC
  5
6B4
330
1D
100
AcDbEntity
  8
BLACK
100
AcDbCircle
 10
-35.380024
 20
-69.700001
 30
0.0
 40
0.500001
100
AcDbArc
 50
90.0
 51
180.0
  0
ARC
  5
6B5
330
1D
100
AcDbEntity
  8
BLACK
100
AcDbCircle
 10
-21.780026
 20
-44.599999
 30
0.0
 40
0.500001000001
100
AcDbArc
 50
270.00011459
 51
0.00011459
  0
LINE
  5
6B6
330
1D
100
AcDbEntity
  8
BLACK
  6
Continuous
100
AcDbLine
 10
-21.280025
 20
-44.599998
 30
0.0
 11
-21.280025
 21
-31.600001
 31
0.0
  0
ARC
  5
6B7
330
1D
100
AcDbEntity
  8
BLACK
100
AcDbCircle
 10
-21.780026
 20
-31.600001
 30
0.0
 40
0.500001
100
AcDbArc
 50
0.0
 51
90.0
  0
LINE
  5
6B8
330
1D
100
AcDbEntity
  8
BLACK
  6
Continuous
100
AcDbLine
 10
-21.780026
 20
-31.1
 30
0.0
 11
-35.380024
 21
-31.1
 31
0.0
  0
ARC
  5
6B9
330
1D
100
AcDbEntity
  8
BLACK
100
AcDbCircle
 10
-35.380024
 20
-31.600001
 30
0.0
 40
0.500001
100
AcDbArc
 50
90.0
 51
180.0
  0
LINE
  5
6BA
330
1D
100
AcDbEntity
  8
BLACK
  6
Continuous
100
AcDbLine
 10
-35.880025
 20
-31.600001
 30
0.0
 11
-35.880025
 21
-44.6
 31
0.0
  0
ARC
  5
6BB
330
1D
100
AcDbEntity
  8
BLACK
100
AcDbCircle
 10
-35.380024
 20
-44.599999
 30
0.0
 40
0.500001
100
AcDbArc
 50
180.00011459
 51
270.0
  0
LINE
  5
6BC
330
1D
100
AcDbEntity
  8
BLACK
  6
Continuous
100
AcDbLine
 10
-35.380024
 20
-45.1
 30
0.0
 11
-21.780025
 21
-45.1
 31
0.0
  0
ARC
  5
6BD
330
1D
100
AcDbEntity
  8
BLACK
100
AcDbCircle
 10
-35.380024
 20
-50.650001
 30
0.0
 40
0.500001
100
AcDbArc
 50
90.0
 51
180.0
  0
LINE
  5
6BE
330
1D
100
AcDbEntity
  8
BLACK
  6
Continuous
100
AcDbLine
 10
-35.880025
 20
-50.650001
 30
0.0
 11
-35.880025
 21
-63.64999899999999
 31
0.0
  0
ARC
  5
6BF
330
1D
100
AcDbEntity
  8
BLACK
100
AcDbCircle
 10
-35.380024
 20
-63.64999899999999
 30
0.0
 40
0.500001000001
100
AcDbArc
 50
180.0
 51
269.99988541
  0
LINE
  5
6C0
330
1D
100
AcDbEntity
  8
BLACK
  6
Continuous
100
AcDbLine
 10
-35.380025
 20
-64.14999999999999
 30
0.0
 11
-21.780026
 21
-64.14999999999999
 31
0.0
  0
ARC
  5
6C1
330
1D
100
AcDbEntity
  8
BLACK
100
AcDbCircle
 10
-21.780026
 20
-63.64999899999999
 30
0.0
 40
0.500001000001
100
AcDbArc
 50
270.0
 51
359.99988541
  0
LINE
  5
6C2
330
1D
100
AcDbEntity
  8
BLACK
  6
Continuous
100
AcDbLine
 10
-21.280025
 20
-63.65
 30
0.0
 11
-21.280025
 21
-50.650001
 31
0.0
  0
ARC
  5
6C3
330
1D
100
AcDbEntity
  8
BLACK
100
AcDbCircle
 10
-21.780026
 20
-50.650001
 30
0.0
 40
0.500001
100
AcDbArc
 50
0.0
 51
90.0
  0
LINE
  5
6C4
330
1D
100
AcDbEntity
  8
BLACK
  6
Continuous
100
AcDbLine
 10
-21.780026
 20
-50.15
 30
0.0
 11
-35.380024
 21
-50.15
 31
0.0
  0
LINE
  5
6C8
330
1D
100
AcDbEntity
  8
BLACK
  6
Continuous
100
AcDbLine
 10
65.408275
 20
-91.527067
 30
0.0
 11
65.408275
 21
-91.527062
 31
0.0
  0
LWPOLYLINE
  5
714
330
1D
100
AcDbEntity
  8
0
100
AcDbPolyline
 90
        8
 70
     1
 43
0.0
 10
241.175
 20
6.475
 10
241.175
 20
-5.243
 10
244.175
 20
-6.975
 10
270.175
 20
-6.975
 10
273.175
 20
-5.243
 10
273.175
 20
6.475
 42
0.4142135623730951
 10
272.675
 20
6.975
 10
241.675
 20
6.975
 42
0.4142123908030625
  0
LWPOLYLINE
  5
716
330
1D
100
AcDbEntity
  8
0
100
AcDbPolyline
 90
        8
 70
     1
 43
0.0
 10
9.181249999999999
 20
-64.15
 42
0.4142135623730951
 10
9.681249999999997
 20
-63.65000000000001
 10
9.681249999999997
 20
-50.65000000000001
 42
0.4142135623730951
 10
9.181249999999999
 20
-50.15000000000001
 10
-4.418749999988396
 20
-50.15000000000001
 42
0.4142123908166451
 10
-4.918750000000003
 20
-50.65000000001162
 10
-4.918750000000003
 20
-63.6499999999884
 42
0.4142123908166451
 10
-4.418749999988396
 20
-64.15
  0
LWPOLYLINE
  5
717
330
1D
100
AcDbEntity
  8
0
100
AcDbPolyline
 90
        8
 70
     1
 43
0.0
 10
30.6125
 20
-64.15
 42
0.4142135623730951
 10
31.1125
 20
-63.65000000000001
 10
31.1125
 20
-50.65000000000001
 42
0.4142135623730951
 10
30.6125
 20
-50.15000000000001
 10
17.01250000001161
 20
-50.15000000000001
 42
0.4142123908166451
 10
16.5125
 20
-50.65000000001162
 10
16.5125
 20
-63.6499999999884
 42
0.4142123908166451
 10
17.01250000001161
 20
-64.15
  0
LWPOLYLINE
  5
71A
330
1D
100
AcDbEntity
  8
0
100
AcDbPolyline
 90
        8
 70
     1
 43
0.0
 10
257.84375
 20
-44.575
 10
269.56175
 20
-44.575
 10
271.29375
 20
-41.575
 10
271.29375
 20
-15.575
 10
269.56175
 20
-12.575
 10
257.84375
 20
-12.575
 42
0.4142135623730951
 10
257.3437500000001
 20
-13.075
 10
257.3437500000001
 20
-44.075
 42
0.4142123908030449
  0
LWPOLYLINE
  5
71B
330
1D
100
AcDbEntity
  8
0
100
AcDbPolyline
 90
        8
 70
     1
 43
0.0
 10
249.6875
 20
-45.09999999999999
 42
0.4142135623730951
 10
250.1875000000001
 20
-44.6
 10
250.1875000000001
 20
-31.6
 42
0.4142135623730951
 10
249.6875
 20
-31.1
 10
236.0875000000116
 20
-31.1
 42
0.4142123908166451
 10
235.5875
 20
-31.6000000000116
 10
235.5875
 20
-44.59999999998839
 42
0.4142123908166451
 10
236.0875000000116
 20
-45.09999999999999
  0
LWPOLYLINE
  5
71F
330
1D
100
AcDbEntity
  8
0
100
AcDbPolyline
 90
        8
 70
     1
 43
0.0
 10
64.63724999999998
 20
-82.64994999999999
 10
64.63724999999998
 20
-69.74995
 42
-0.4142123908030345
 10
65.13724999999998
 20
-69.24994999999998
 10
77.73725
 20
-69.24995
 42
-0.4142123908030345
 10
78.23725
 20
-69.74995
 10
78.23724999999999
 20
-82.64994999999999
 42
-0.4142123908030449
 10
77.73725
 20
-83.14994999999999
 10
65.13724999999998
 20
-83.14994999999999
 42
-0.4142123908030449
  0
LWPOLYLINE
  5
720
330
1D
100
AcDbEntity
  8
0
100
AcDbPolyline
 90
        8
 70
     1
 43
0.0
 10
164.65025
 20
-82.64994999999999
 10
164.65025
 20
-69.74995
 42
-0.4142135623730951
 10
165.15025
 20
-69.24994999999998
 10
177.75025
 20
-69.24994999999998
 42
-0.4142135623730951
 10
178.25025
 20
-69.74995
 10
178.25025
 20
-82.64994999999999
 42
-0.4142135623730951
 10
177.75025
 20
-83.14994999999999
 10
165.15025
 20
-83.14994999999999
 42
-0.4142135623730951
  0
LWPOLYLINE
  5
721
330
1D
100
AcDbEntity
  8
0
100
AcDbPolyline
 90
        8
 70
     1
 43
0.0
 10
209.39375
 20
-69.69994999999999
 10
209.39375
 20
-82.69994999999997
 42
0.4142123908030449
 10
209.89375
 20
-83.19994999999999
 10
223.49375
 20
-83.19994999999999
 42
0.4142135623730951
 10
223.99375
 20
-82.69994999999997
 10
223.99375
 20
-69.69994999999999
 42
0.4142135623730951
 10
223.49375
 20
-69.19995
 10
209.89375
 20
-69.19995
 42
0.4142123908030449
  0
LWPOLYLINE
  5
722
330
1D
100
AcDbEntity
  8
0
100
AcDbPolyline
 90
        8
 70
     1
 43
0.0
 10
185.58125
 20
-69.69994999999999
 10
185.58125
 20
-82.69994999999997
 42
0.4142123908030449
 10
186.08125
 20
-83.19994999999999
 10
199.68125
 20
-83.19994999999999
 42
0.4142135623730951
 10
200.18125
 20
-82.69994999999997
 10
200.18125
 20
-69.69994999999999
 42
0.4142135623730951
 10
199.68125
 20
-69.19995
 10
186.08125
 20
-69.19995
 42
0.4142123908030449
  0
LWPOLYLINE
  5
723
330
1D
100
AcDbEntity
  8
0
100
AcDbPolyline
 90
        8
 70
     1
 43
0.0
 10
114.14375
 20
-69.69994999999999
 10
114.14375
 20
-82.69994999999997
 42
0.4142123908030554
 10
114.64375
 20
-83.19994999999999
 10
128.24375
 20
-83.19994999999999
 42
0.4142135623730951
 10
128.74375
 20
-82.69994999999997
 10
128.74375
 20
-69.69994999999999
 42
0.4142135623730951
 10
128.24375
 20
-69.19995
 10
114.64375
 20
-69.19995
 42
0.4142123908030554
  0
LWPOLYLINE
  5
724
330
1D
100
AcDbEntity
  8
0
100
AcDbPolyline
 90
        8
 70
     1
 43
0.0
 10
42.70625
 20
-69.69994999999999
 10
42.70625
 20
-82.69994999999997
 42
0.4142123908030501
 10
43.20625
 20
-83.19994999999999
 10
56.80625
 20
-83.19994999999999
 42
0.4142135623730951
 10
57.30625
 20
-82.69994999999997
 10
57.30625
 20
-69.69994999999999
 42
0.4142135623730951
 10
56.80625
 20
-69.19995
 10
43.20625
 20
-69.19995
 42
0.4142123908030501
  0
LWPOLYLINE
  5
725
330
1D
100
AcDbEntity
  8
0
100
AcDbPolyline
 90
        8
 70
     1
 43
0.0
 10
-4.918750000000001
 20
-69.69994999999999
 10
-4.918750000000001
 20
-82.69994999999997
 42
0.4142123908030518
 10
-4.41875
 20
-83.19994999999999
 10
9.18125
 20
-83.19994999999999
 42
0.4142135623730951
 10
9.681250000000002
 20
-82.69994999999997
 10
9.681250000000002
 20
-69.69994999999999
 42
0.4142135623730951
 10
9.18125
 20
-69.19995
 10
-4.41875
 20
-69.19995
 42
0.4142123908030518
  0
LWPOLYLINE
  5
726
330
1D
100
AcDbEntity
  8
0
100
AcDbPolyline
 90
        8
 70
     1
 43
0.0
 10
18.89375
 20
-69.69994999999999
 10
18.89375
 20
-82.69994999999997
 42
0.4142123908030501
 10
19.39375
 20
-83.19994999999999
 10
32.99375
 20
-83.19994999999999
 42
0.4142135623730951
 10
33.49375000000001
 20
-82.69994999999997
 10
33.49375000000001
 20
-69.69994999999999
 42
0.4142135623730951
 10
32.99375
 20
-69.19995
 10
19.39375
 20
-69.19995
 42
0.4142123908030501
  0
CIRCLE
  5
727
330
1D
100
AcDbEntity
  8
BLACK
100
AcDbCircle
 10
15.473064
 20
-76.2
 30
0.0
 40
1.325
  0
CIRCLE
  5
728
330
1D
100
AcDbEntity
  8
BLACK
100
AcDbCircle
 10
15.473064
 20
-76.2
 30
0.0
 40
1.775
  0
CIRCLE
  5
729
330
1D
100
AcDbEntity
  8
BLACK
100
AcDbCircle
 10
-7.148810999999999
 20
-76.2
 30
0.0
 40
1.325
  0
CIRCLE
  5
72A
330
1D
100
AcDbEntity
  8
BLACK
100
AcDbCircle
 10
-7.148810999999999
 20
-76.2
 30
0.0
 40
1.775
  0
CIRCLE
  5
72B
330
1D
100
AcDbEntity
  8
BLACK
100
AcDbCircle
 10
33.332475
 20
-57.15
 30
0.0
 40
1.325
  0
CIRCLE
  5
72C
330
1D
100
AcDbEntity
  8
BLACK
100
AcDbCircle
 10
33.332475
 20
-57.15
 30
0.0
 40
1.775
  0
CIRCLE
  5
72D
330
1D
100
AcDbEntity
  8
BLACK
100
AcDbCircle
 10
195.257439
 20
-38.1
 30
0.0
 40
1.325
  0
CIRCLE
  5
72E
330
1D
100
AcDbEntity
  8
BLACK
100
AcDbCircle
 10
195.257439
 20
-38.1
 30
0.0
 40
1.775
  0
CIRCLE
  5
72F
330
1D
100
AcDbEntity
  8
BLACK
100
AcDbCircle
 10
42.857475
 20
-38.1
 30
0.0
 40
1.325
  0
CIRCLE
  5
730
330
1D
100
AcDbEntity
  8
BLACK
100
AcDbCircle
 10
42.857475
 20
-38.1
 30
0.0
 40
1.775
  0
CIRCLE
  5
731
330
1D
100
AcDbEntity
  8
BLACK
100
AcDbCircle
 10
276.219975
 20
-28.575
 30
0.0
 40
1.325
  0
CIRCLE
  5
732
330
1D
100
AcDbEntity
  8
BLACK
100
AcDbCircle
 10
276.219975
 20
-28.575
 30
0.0
 40
1.775
  0
CIRCLE
  5
733
330
1D
100
AcDbEntity
  8
BLACK
100
AcDbCircle
 10
250.184975
 20
-19.050016
 30
0.0
 40
1.325
  0
CIRCLE
  5
734
330
1D
100
AcDbEntity
  8
BLACK
100
AcDbCircle
 10
250.184975
 20
-19.050016
 30
0.0
 40
1.775
  0
CIRCLE
  5
735
330
1D
100
AcDbEntity
  8
BLACK
100
AcDbCircle
 10
-7.148775
 20
-38.1
 30
0.0
 40
1.325
  0
CIRCLE
  5
736
330
1D
100
AcDbEntity
  8
BLACK
100
AcDbCircle
 10
-7.148775
 20
-38.1
 30
0.0
 40
1.775
  0
CIRCLE
  5
737
330
1D
100
AcDbEntity
  8
BLACK
100
AcDbCircle
 10
180.969975
 20
0.0
 30
0.0
 40
1.325
  0
CIRCLE
  5
738
330
1D
100
AcDbEntity
  8
BLACK
100
AcDbCircle
 10
180.969975
 20
0.0
 30
0.0
 40
1.775
  0
CIRCLE
  5
739
330
1D
100
AcDbEntity
  8
BLACK
100
AcDbCircle
 10
166.682439
 20
-57.15
 30
0.0
 40
1.325
  0
CIRCLE
  5
73A
330
1D
100
AcDbEntity
  8
BLACK
100
AcDbCircle
 10
166.682439
 20
-57.15
 30
0.0
 40
1.775
  0
CIRCLE
  5
73B
330
1D
100
AcDbEntity
  8
BLACK
100
AcDbCircle
 10
171.444974
 20
-19.05
 30
0.0
 40
1.325
  0
CIRCLE
  5
73C
330
1D
100
AcDbEntity
  8
BLACK
100
AcDbCircle
 10
171.444974
 20
-19.05
 30
0.0
 40
1.775
  0
CIRCLE
  5
73D
330
1D
100
AcDbEntity
  8
BLACK
100
AcDbCircle
 10
9.518839
 20
0.0
 30
0.0
 40
1.325
  0
CIRCLE
  5
73E
330
1D
100
AcDbEntity
  8
BLACK
100
AcDbCircle
 10
9.518839
 20
0.0
 30
0.0
 40
1.775
  0
CIRCLE
  5
73F
330
1D
100
AcDbEntity
  8
BLACK
100
AcDbCircle
 10
66.669975
 20
0.0
 30
0.0
 40
1.325
  0
CIRCLE
  5
740
330
1D
100
AcDbEntity
  8
BLACK
100
AcDbCircle
 10
66.669975
 20
0.0
 30
0.0
 40
1.775
  0
CIRCLE
  5
741
330
1D
100
AcDbEntity
  8
BLACK
100
AcDbCircle
 10
16.663739
 20
-19.05
 30
0.0
 40
1.325
  0
CIRCLE
  5
742
330
1D
100
AcDbEntity
  8
BLACK
100
AcDbCircle
 10
16.663739
 20
-19.05
 30
0.0
 40
1.775
  0
CIRCLE
  5
743
330
1D
100
AcDbEntity
  8
BLACK
100
AcDbCircle
 10
61.907475
 20
-76.2
 30
0.0
 40
1.325
  0
CIRCLE
  5
744
330
1D
100
AcDbEntity
  8
BLACK
100
AcDbCircle
 10
61.907475
 20
-76.2
 30
0.0
 40
1.775
  0
CIRCLE
  5
745
330
1D
100
AcDbEntity
  8
BLACK
100
AcDbCircle
 10
38.094975
 20
-76.2
 30
0.0
 40
1.325
  0
CIRCLE
  5
746
330
1D
100
AcDbEntity
  8
BLACK
100
AcDbCircle
 10
38.094975
 20
-76.2
 30
0.0
 40
1.775
  0
CIRCLE
  5
747
330
1D
100
AcDbEntity
  8
BLACK
100
AcDbCircle
 10
138.107439
 20
-38.1
 30
0.0
 40
1.325
  0
CIRCLE
  5
748
330
1D
100
AcDbEntity
  8
BLACK
100
AcDbCircle
 10
138.107439
 20
-38.1
 30
0.0
 40
1.775
  0
CIRCLE
  5
749
330
1D
100
AcDbEntity
  8
BLACK
100
AcDbCircle
 10
276.220207
 20
-76.2
 30
0.0
 40
1.325
  0
CIRCLE
  5
74A
330
1D
100
AcDbEntity
  8
BLACK
100
AcDbCircle
 10
276.220207
 20
-76.2
 30
0.0
 40
1.775
  0
CIRCLE
  5
74B
330
1D
100
AcDbEntity
  8
BLACK
100
AcDbCircle
 10
90.482475
 20
-57.15
 30
0.0
 40
1.325
  0
CIRCLE
  5
74C
330
1D
100
AcDbEntity
  8
BLACK
100
AcDbCircle
 10
90.482475
 20
-57.15
 30
0.0
 40
1.775
  0
CIRCLE
  5
74D
330
1D
100
AcDbEntity
  8
BLACK
100
AcDbCircle
 10
104.768839
 20
-76.2
 30
0.0
 40
1.325
  0
CIRCLE
  5
74E
330
1D
100
AcDbEntity
  8
BLACK
100
AcDbCircle
 10
104.768839
 20
-76.2
 30
0.0
 40
1.775
  0
CIRCLE
  5
74F
330
1D
100
AcDbEntity
  8
BLACK
100
AcDbCircle
 10
123.819975
 20
0.0
 30
0.0
 40
1.325
  0
CIRCLE
  5
750
330
1D
100
AcDbEntity
  8
BLACK
100
AcDbCircle
 10
123.819975
 20
0.0
 30
0.0
 40
1.775
  0
CIRCLE
  5
751
330
1D
100
AcDbEntity
  8
BLACK
100
AcDbCircle
 10
276.220207
 20
-57.150048
 30
0.0
 40
1.325
  0
CIRCLE
  5
752
330
1D
100
AcDbEntity
  8
BLACK
100
AcDbCircle
 10
276.220207
 20
-57.150048
 30
0.0
 40
1.775
  0
CIRCLE
  5
753
330
1D
100
AcDbEntity
  8
BLACK
100
AcDbCircle
 10
95.244975
 20
-19.05
 30
0.0
 40
1.325
  0
CIRCLE
  5
754
330
1D
100
AcDbEntity
  8
BLACK
100
AcDbCircle
 10
95.244975
 20
-19.05
 30
0.0
 40
1.775
  0
CIRCLE
  5
755
330
1D
100
AcDbEntity
  8
BLACK
100
AcDbCircle
 10
226.212589
 20
-76.2
 30
0.0
 40
1.325
  0
CIRCLE
  5
756
330
1D
100
AcDbEntity
  8
BLACK
100
AcDbCircle
 10
226.212589
 20
-76.2
 30
0.0
 40
1.775
  0
CIRCLE
  5
757
330
1D
100
AcDbEntity
  8
BLACK
100
AcDbCircle
 10
257.168839
 20
-76.2
 30
0.0
 40
1.325
  0
CIRCLE
  5
758
330
1D
100
AcDbEntity
  8
BLACK
100
AcDbCircle
 10
257.168839
 20
-76.2
 30
0.0
 40
1.775
  0
CIRCLE
  5
759
330
1D
100
AcDbEntity
  8
BLACK
100
AcDbCircle
 10
253.598313
 20
-57.150048
 30
0.0
 40
1.325
  0
CIRCLE
  5
75A
330
1D
100
AcDbEntity
  8
BLACK
100
AcDbCircle
 10
253.598313
 20
-57.150048
 30
0.0
 40
1.775
  0
CIRCLE
  5
75B
330
1D
100
AcDbEntity
  8
BLACK
100
AcDbCircle
 10
223.832439
 20
-57.15
 30
0.0
 40
1.325
  0
CIRCLE
  5
75C
330
1D
100
AcDbEntity
  8
BLACK
100
AcDbCircle
 10
223.832439
 20
-57.15
 30
0.0
 40
1.775
  0
CIRCLE
  5
75D
330
1D
100
AcDbEntity
  8
BLACK
100
AcDbCircle
 10
-38.105025
 20
0.0
 30
0.0
 40
1.325
  0
CIRCLE
  5
75E
330
1D
100
AcDbEntity
  8
BLACK
100
AcDbCircle
 10
-38.105025
 20
0.0
 30
0.0
 40
1.775
  0
CIRCLE
  5
75F
330
1D
100
AcDbEntity
  8
BLACK
100
AcDbCircle
 10
-38.105025
 20
-38.1
 30
0.0
 40
1.325
  0
CIRCLE
  5
760
330
1D
100
AcDbEntity
  8
BLACK
100
AcDbCircle
 10
-38.105025
 20
-38.1
 30
0.0
 40
1.775
  0
CIRCLE
  5
761
330
1D
100
AcDbEntity
  8
BLACK
100
AcDbCircle
 10
-38.105025
 20
-76.2
 30
0.0
 40
1.325
  0
CIRCLE
  5
762
330
1D
100
AcDbEntity
  8
BLACK
100
AcDbCircle
 10
-38.105025
 20
-76.2
 30
0.0
 40
1.775
  0
CIRCLE
  5
763
330
1D
100
AcDbEntity
  8
BLACK
100
AcDbCircle
 10
16.663675
 20
-38.156249
 30
0.0
 40
1.325
  0
CIRCLE
  5
764
330
1D
100
AcDbEntity
  8
BLACK
100
AcDbCircle
 10
16.663675
 20
-38.156249
 30
0.0
 40
1.775
  0
CIRCLE
  5
765
330
1D
100
AcDbEntity
  8
0
100
AcDbCircle
 10
240.8
 20
-7.199999999999999
 30
0.0
 40
1.325
  0
CIRCLE
  5
766
330
1D
100
AcDbEntity
  8
0
100
AcDbCircle
 10
240.8
 20
-7.199999999999999
 30
0.0
 40
1.775
  0
CIRCLE
  5
767
330
1D
100
AcDbEntity
  8
0
100
AcDbCircle
 10
273.599999
 20
-7.199999999999999
 30
0.0
 40
1.325
  0
CIRCLE
  5
768
330
1D
100
AcDbEntity
  8
0
100
AcDbCircle
 10
273.599999
 20
-7.199999999999999
 30
0.0
 40
1.775
  0
CIRCLE
  5
769
330
1D
100
AcDbEntity
  8
0
100
AcDbCircle
 10
-7.143749999999995
 20
-57.15
 30
0.0
 40
1.325
  0
CIRCLE
  5
76A
330
1D
100
AcDbEntity
  8
0
100
AcDbCircle
 10
-7.143749999999995
 20
-57.15
 30
0.0
 40
1.775
  0
CIRCLE
  5
76B
330
1D
100
AcDbEntity
  8
0
100
AcDbCircle
 10
271.51875
 20
-44.97500000000001
 30
0.0
 40
1.325
  0
CIRCLE
  5
76C
330
1D
100
AcDbEntity
  8
0
100
AcDbCircle
 10
271.51875
 20
-44.97500000000001
 30
0.0
 40
1.775
  0
CIRCLE
  5
76D
330
1D
100
AcDbEntity
  8
0
100
AcDbCircle
 10
233.3625
 20
-38.10000000000001
 30
0.0
 40
1.325
  0
CIRCLE
  5
76E
330
1D
100
AcDbEntity
  8
0
100
AcDbCircle
 10
233.3625
 20
-38.10000000000001
 30
0.0
 40
1.775
  0
CIRCLE
  5
76F
330
1D
100
AcDbEntity
  8
0
100
AcDbCircle
 10
142.873864
 20
-76.20000000000002
 30
0.0
 40
1.325
  0
CIRCLE
  5
770
330
1D
100
AcDbEntity
  8
0
100
AcDbCircle
 10
142.873864
 20
-76.20000000000002
 30
0.0
 40
1.775
  0
CIRCLE
  5
771
330
1D
100
AcDbEntity
  8
0
100
AcDbCircle
 10
202.405114
 20
-76.20000000000002
 30
0.0
 40
1.325
  0
CIRCLE
  5
772
330
1D
100
AcDbEntity
  8
0
100
AcDbCircle
 10
202.405114
 20
-76.20000000000002
 30
0.0
 40
1.775
  0
CIRCLE
  5
773
330
1D
100
AcDbEntity
  8
0
100
AcDbCircle
 10
180.975
 20
-76.20000000000002
 30
0.0
 40
1.325
  0
CIRCLE
  5
774
330
1D
100
AcDbEntity
  8
0
100
AcDbCircle
 10
180.975
 20
-76.20000000000002
 30
0.0
 40
1.775
  0
ENDSEC
  0
SECTION
  2
OBJECTS
  0
DICTIONARY
  5
C
330
0
100
AcDbDictionary
281
     1
  3
ACAD_COLOR
350
70B
  3
ACAD_DETAILVIEWSTYLE
350
709
  3
ACAD_GROUP
350
D
  3
ACAD_LAYOUT
350
1A
  3
ACAD_MATERIAL
350
6F9
  3
ACAD_MLEADERSTYLE
350
6FF
  3
ACAD_MLINESTYLE
350
17
  3
ACAD_PLOTSETTINGS
350
19
  3
ACAD_PLOTSTYLENAME
350
E
  3
ACAD_SCALELIST
350
6CA
  3
ACAD_SECTIONVIEWSTYLE
350
70A
  3
ACAD_TABLESTYLE
350
6FD
  3
ACAD_VISUALSTYLE
350
6E0
  3
AcDbVariableDictionary
350
701
  3
ACDB_RECOMPOSE_DATA
350
777
  3
EZDXF_META
350
710
  0
DICTIONARY
  5
70B
330
C
100
AcDbDictionary
281
     1
  0
DICTIONARY
  5
709
102
{ACAD_REACTORS
330
C
102
}
330
C
100
AcDbDictionary
281
     1
  0
DICTIONARY
  5
D
102
{ACAD_REACTORS
330
C
102
}
330
C
100
AcDbDictionary
281
     1
  0
DICTIONARY
  5
1A
102
{ACAD_REACTORS
330
C
102
}
330
C
100
AcDbDictionary
281
     1
  3
Layout1
350
1C
  3
Model
350
1E
  0
DICTIONARY
  5
6F9
102
{ACAD_REACTORS
330
C
102
}
330
C
100
AcDbDictionary
281
     1
  3
ByBlock
350
6FB
  3
ByLayer
350
6FA
  3
Global
350
6FC
  0
DICTIONARY
  5
6FF
102
{ACAD_REACTORS
330
C
102
}
330
C
100
AcDbDictionary
281
     1
  3
Standard
350
700
  0
DICTIONARY
  5
17
102
{ACAD_REACTORS
330
C
102
}
330
C
100
AcDbDictionary
281
     1
  3
Standard
350
18
  0
DICTIONARY
  5
19
102
{ACAD_REACTORS
330
C
102
}
330
C
100
AcDbDictionary
281
     1
  0
ACDBDICTIONARYWDFLT
  5
E
102
{ACAD_REACTORS
330
C
102
}
330
C
100
AcDbDictionary
281
     1
  3
Normal
350
F
100
AcDbDictionaryWithDefault
340
F
  0
DICTIONARY
  5
6CA
102
{ACAD_REACTORS
330
C
102
}
330
C
100
AcDbDictionary
281
     1
  3
A0
350
6CB
  3
A1
350
6CC
  3
A2
350
6CD
  3
A3
350
6CE
  3
A4
350
6CF
  3
A5
350
6D0
  3
A6
350
6D1
  3
A7
350
6D2
  3
A8
350
6D3
  3
A9
350
6D4
  3
B0
350
6D5
  3
B1
350
6D6
  3
B2
350
6D7
  3
B3
350
6D8
  3
B4
350
6D9
  3
B5
350
6DA
  3
B6
350
6DB
  0
DICTIONARY
  5
70A
102
{ACAD_REACTORS
330
C
102
}
330
C
100
AcDbDictionary
281
     1
  0
DICTIONARY
  5
6FD
102
{ACAD_REACTORS
330
C
102
}
330
C
100
AcDbDictionary
281
     1
  3
Standard
350
6FE
  0
DICTIONARY
  5
6E0
102
{ACAD_REACTORS
330
C
102
}
330
C
100
AcDbDictionary
281
     1
  3
2dWireframe
350
6E5
  3
Basic
350
6E8
  3
Brighten
350
6EC
  3
ColorChange
350
6F0
  3
Conceptual
350
6EA
  3
Dim
350
6EB
  3
EdgeColorOff
350
6F3
  3
Facepattern
350
6EF
  3
Flat
350
6E1
  3
FlatWithEdges
350
6E2
  3
Gouraud
350
6E3
  3
GouraudWithEdges
350
6E4
  3
Hidden
350
6E7
  3
JitterOff
350
6F1
  3
Linepattern
350
6EE
  3
OverhangOff
350
6F2
  3
Realistic
350
6E9
  3
Shaded
350
6F8
  3
Shaded with edges
350
6F7
  3
Shades of Gray
350
6F4
  3
Sketchy
350
6F5
  3
Thicken
350
6ED
  3
Wireframe
350
6E6
  3
X-Ray
350
6F6
  0
DICTIONARY
  5
701
102
{ACAD_REACTORS
330
C
102
}
330
C
100
AcDbDictionary
281
     1
  3
CANNOSCALE
350
702
  3
CMLEADERSTYLE
350
707
  3
CTABLESTYLE
350
706
  3
MSLTSCALE
350
708
  0
XRECORD
  5
777
102
{ACAD_REACTORS
330
C
102
}
330
C
100
AcDbXrecord
280
     1
 90
        1
330
6FE
  0
DICTIONARY
  5
710
330
C
100
AcDbDictionary
280
     1
281
     1
  3
WRITTEN_BY_EZDXF
360
711
  0
LAYOUT
  5
1C
102
{ACAD_REACTORS
330
1A
102
}
330
1A
100
AcDbPlotSettings
  1

  2
none_device
  4

  6

 40
0.0
 41
0.0
 42
0.0
 43
0.0
 44
0.0
 45
0.0
 46
0.0
 47
0.0
 48
0.0
 49
0.0
140
0.0
141
0.0
142
1.0
143
1.0
 70
   688
 72
     0
 73
     0
 74
     5
  7

 75
    16
 76
     0
 77
     2
 78
   300
147
1.0
148
0.0
149
0.0
100
AcDbLayout
  1
Layout1
 70
     1
 71
     1
 10
0.0
 20
0.0
 11
12.0
 21
9.0
 12
0.0
 22
0.0
 32
0.0
 14
1.000000000000000E+20
 24
1.000000000000000E+20
 34
1.000000000000000E+20
 15
-1.000000000000000E+20
 25
-1.000000000000000E+20
 35
-1.000000000000000E+20
146
0.0
 13
0.0
 23
0.0
 33
0.0
 16
1.0
 26
0.0
 36
0.0
 17
0.0
 27
1.0
 37
0.0
 76
     0
330
1B
  0
LAYOUT
  5
1E
102
{ACAD_REACTORS
330
1A
102
}
330
1A
100
AcDbPlotSettings
  1

  2
none_device
  4
Letter_(8.50_x_11.00_Inches)
  6

 40
6.35
 41
6.35
 42
6.35000508
 43
6.35000508
 44
215.9
 45
279.4
 46
0.0
 47
0.0
 48
0.0
 49
0.0
140
0.0
141
0.0
142
1.0
143
1.0
 70
  1712
 72
     0
 73
     0
 74
     0
  7

 75
     0
 76
     0
 77
     2
 78
   300
147
1.0
148
0.0
149
0.0
100
AcDbLayout
  1
Model
 70
     1
 71
     0
 10
0.0
 20
0.0
 11
12.0
 21
9.0
 12
0.0
 22
0.0
 32
0.0
 14
1.000000000000000E+20
 24
1.000000000000000E+20
 34
1.000000000000000E+20
 15
-1.000000000000000E+20
 25
-1.000000000000000E+20
 35
-1.000000000000000E+20
146
0.0
 13
0.0
 23
0.0
 33
0.0
 16
1.0
 26
0.0
 36
0.0
 17
0.0
 27
1.0
 37
0.0
 76
     0
330
1D
331
442
  0
MATERIAL
  5
6FB
102
{ACAD_REACTORS
330
6F9
102
}
330
6F9
100
AcDbMaterial
  1
ByBlock
 72
     1
273
     1
 94
      127
  0
MATERIAL
  5
6FA
102
{ACAD_REACTORS
330
6F9
102
}
330
6F9
100
AcDbMaterial
  1
ByLayer
 72
     1
273
     1
 94
      127
  0
MATERIAL
  5
6FC
102
{ACAD_REACTORS
330
6F9
102
}
330
6F9
100
AcDbMaterial
  1
Global
 72
     1
273
     1
 94
      127
  0
MLEADERSTYLE
  5
700
102
{ACAD_REACTORS
330
6FF
102
}
330
6FF
100
AcDbMLeaderStyle
179
     2
170
     2
171
     1
172
     0
 90
        2
 40
0.0
 41
0.0
173
     1
 91
-1056964608
340
14
 92
       -2
290
     1
 42
2.0
291
     1
 43
8.0
  3
Standard
341
0
 44
4.0
300

342
11
174
     1
178
     6
175
     1
176
     0
 93
-1056964608
 45
4.0
292
     0
297
     0
 46
4.0
343
0
 94
-1056964608
 47
1.0
 49
1.0
140
1.0
293
     1
141
0.0
294
     1
177
     0
142
1.0
295
     0
296
     0
143
3.75
271
     0
272
     9
273
     9
298
     0
  0
MLINESTYLE
  5
18
102
{ACAD_REACTORS
330
17
102
}
330
17
100
AcDbMlineStyle
  2
Standard
 70
     0
  3

 62
   256
 51
90.0
 52
90.0
 71
     2
 49
0.5
 62
   256
  6
BYLAYER
 49
-0.5
 62
   256
  6
BYLAYER
  0
ACDBPLACEHOLDER
  5
F
102
{ACAD_REACTORS
330
E
102
}
330
E
  0
SCALE
  5
6CB
102
{ACAD_REACTORS
330
6CA
102
}
330
6CA
100
AcDbScale
 70
     0
300
1:1
140
1.0
141
1.0
290
     1
  0
SCALE
  5
6CC
102
{ACAD_REACTORS
330
6CA
102
}
330
6CA
100
AcDbScale
 70
     0
300
1:2
140
1.0
141
2.0
290
     0
  0
SCALE
  5
6CD
102
{ACAD_REACTORS
330
6CA
102
}
330
6CA
100
AcDbScale
 70
     0
300
1:4
140
1.0
141
4.0
290
     0
  0
SCALE
  5
6CE
102
{ACAD_REACTORS
330
6CA
102
}
330
6CA
100
AcDbScale
 70
     0
300
1:5
140
1.0
141
5.0
290
     0
  0
SCALE
  5
6CF
102
{ACAD_REACTORS
330
6CA
102
}
330
6CA
100
AcDbScale
 70
     0
300
1:8
140
1.0
141
8.0
290
     0
  0
SCALE
  5
6D0
102
{ACAD_REACTORS
330
6CA
102
}
330
6CA
100
AcDbScale
 70
     0
300
1:10
140
1.0
141
10.0
290
     0
  0
SCALE
  5
6D1
102
{ACAD_REACTORS
330
6CA
102
}
330
6CA
100
AcDbScale
 70
     0
300
1:16
140
1.0
141
16.0
290
     0
  0
SCALE
  5
6D2
102
{ACAD_REACTORS
330
6CA
102
}
330
6CA
100
AcDbScale
 70
     0
300
1:20
140
1.0
141
20.0
290
     0
  0
SCALE
  5
6D3
102
{ACAD_REACTORS
330
6CA
102
}
330
6CA
100
AcDbScale
 70
     0
300
1:30
140
1.0
141
30.0
290
     0
  0
SCALE
  5
6D4
102
{ACAD_REACTORS
330
6CA
102
}
330
6CA
100
AcDbScale
 70
     0
300
1:40
140
1.0
141
40.0
290
     0
  0
SCALE
  5
6D5
102
{ACAD_REACTORS
330
6CA
102
}
330
6CA
100
AcDbScale
 70
     0
300
1:50
140
1.0
141
50.0
290
     0
  0
SCALE
  5
6D6
102
{ACAD_REACTORS
330
6CA
102
}
330
6CA
100
AcDbScale
 70
     0
300
1:100
140
1.0
141
100.0
290
     0
  0
SCALE
  5
6D7
102
{ACAD_REACTORS
330
6CA
102
}
330
6CA
100
AcDbScale
 70
     0
300
2:1
140
2.0
141
1.0
290
     0
  0
SCALE
  5
6D8
102
{ACAD_REACTORS
330
6CA
102
}
330
6CA
100
AcDbScale
 70
     0
300
4:1
140
4.0
141
1.0
290
     0
  0
SCALE
  5
6D9
102
{ACAD_REACTORS
330
6CA
102
}
330
6CA
100
AcDbScale
 70
     0
300
8:1
140
8.0
141
1.0
290
     0
  0
SCALE
  5
6DA
102
{ACAD_REACTORS
330
6CA
102
}
330
6CA
100
AcDbScale
 70
     0
300
10:1
140
10.0
141
1.0
290
     0
  0
SCALE
  5
6DB
102
{ACAD_REACTORS
330
6CA
102
}
330
6CA
100
AcDbScale
 70
     0
300
100:1
140
100.0
141
1.0
290
     0
  0
TABLESTYLE
  5
6FE
102
{ACAD_REACTORS
330
6FD
102
}
102
{ACAD_XDICTIONARY
360
775
102
}
330
6FD
100
AcDbTableStyle
  3
Standard
 70
     0
 71
     0
 40
0.06
 41
0.06
280
     0
281
     0
  7
Standard
140
4.5
170
     2
 62
     0
 63
   257
283
     0
 90
        4
 91
        0
  1

274
    -2
284
     1
 64
     0
275
    -2
285
     1
 65
     0
276
    -2
286
     1
 66
     0
277
    -2
287
     1
 67
     0
278
    -2
288
     1
 68
     0
279
    -2
289
     1
 69
     0
  7
Standard
140
6.0
170
     5
 62
     0
 63
   257
283
     0
 90
        4
 91
        0
  1

274
    -2
284
     1
 64
     0
275
    -2
285
     1
 65
     0
276
    -2
286
     1
 66
     0
277
    -2
287
     1
 67
     0
278
    -2
288
     1
 68
     0
279
    -2
289
     1
 69
     0
  7
Standard
140
4.5
170
     5
 62
     0
 63
   257
283
     0
 90
        4
 91
        0
  1

274
    -2
284
     1
 64
     0
275
    -2
285
     1
 65
     0
276
    -2
286
     1
 66
     0
277
    -2
287
     1
 67
     0
278
    -2
288
     1
 68
     0
279
    -2
289
     1
 69
     0
  0
VISUALSTYLE
  5
6E5
102
{ACAD_REACTORS
330
6E0
102
}
330
6E0
100
AcDbVisualStyle
  2
2dWireframe
 70
     4
177
     3
291
     0
 70
    58
 90
        0
176
     1
 90
        2
176
     1
 90
        0
176
     1
 90
        0
176
     1
 40
0.6
176
     1
 40
30.0
176
     1
 62
     7
420
 16777215
176
     1
 90
        1
176
     1
 90
        4
176
     1
 62
     7
176
     1
 62
   257
176
     1
 90
        1
176
     1
 90
        1
176
     1
 40
1.0
176
     1
 90
        0
176
     1
 62
   257
176
     1
 40
1.0
176
     1
 90
        1
176
     1
 90
        6
176
     1
 90
        2
176
     1
 62
     7
176
     1
 90
        5
176
     1
 90
        0
176
     1
 90
        0
176
     1
290
     0
176
     1
 90
        1
176
     1
 40
0.0
176
     1
 90
        0
176
     1
290
     1
176
     1
290
     1
176
     1
290
     0
176
     1
290
     0
176
     1
290
     0
176
     1
290
     0
176
     1
290
     0
176
     1
290
     0
176
     1
290
     0
176
     1
 90
       50
176
     1
 40
0.0
176
     1
 40
1.0
176
     1
 90
        0
176
     1
 62
    18
420
        0
176
     1
 90
       50
176
     1
 90
        3
176
     1
 62
     5
420
      255
176
     1
290
     0
176
     1
 90
       50
176
     1
 90
       50
176
     1
 90
       50
176
     1
290
     0
176
     1
 90
       50
176
     1
 62
   256
176
     0
 40
1.0
176
     0
 90
        2
176
     1
  1
strokes_ogs.tif
176
     1
290
     0
176
     1
 40
1.0
176
     1
 40
1.0
176
     1
  0
VISUALSTYLE
  5
6E8
102
{ACAD_REACTORS
330
6E0
102
}
330
6E0
100
AcDbVisualStyle
  2
Basic
 70
     7
177
     3
291
     1
 70
    58
 90
        1
176
     1
 90
        0
176
     1
 90
        1
176
     1
 90
        0
176
     1
 40
0.6
176
     1
 40
30.0
176
     1
 62
     7
420
 16777215
176
     1
 90
        0
176
     1
 90
        4
176
     1
 62
     7
176
     1
 62
   257
176
     1
 90
        1
176
     1
 90
        1
176
     1
 40
1.0
176
     1
 90
        8
176
     1
 62
     7
176
     1
 40
1.0
176
     1
 90
        1
176
     1
 90
        6
176
     1
 90
        2
176
     1
 62
     7
176
     1
 90
        5
176
     1
 90
        0
176
     1
 90
        0
176
     1
290
     0
176
     1
 90
        1
176
     1
 40
0.0
176
     1
 90
        0
176
     1
290
     0
176
     1
290
     1
176
     1
290
     1
176
     1
290
     0
176
     1
290
     0
176
     1
290
     0
176
     1
290
     0
176
     1
290
     0
176
     1
290
     0
176
     1
 90
       50
176
     1
 40
0.0
176
     1
 40
1.0
176
     1
 90
        0
176
     1
 62
    18
420
        0
176
     1
 90
       50
176
     1
 90
        3
176
     1
 62
     5
420
      255
176
     1
290
     0
176
     1
 90
       50
176
     1
 90
       50
176
     1
 90
       50
176
     1
290
     0
176
     1
 90
       50
176
     1
 62
   256
176
     0
 40
1.0
176
     0
 90
        2
176
     1
  1
strokes_ogs.tif
176
     1
290
     0
176
     1
 40
1.0
176
     1
 40
1.0
176
     1
  0
VISUALSTYLE
  5
6EC
102
{ACAD_REACTORS
330
6E0
102
}
330
6E0
100
AcDbVisualStyle
  2
Brighten
 70
    12
177
     3
291
     1
 70
    58
 90
        2
176
     1
 90
        2
176
     1
 90
        0
176
     1
 90
        0
176
     1
 40
0.6
176
     1
 40
30.0
176
     1
 62
     7
420
 16777215
176
     1
 90
        1
176
     1
 90
        4
176
     1
 62
     7
176
     1
 62
   257
176
     1
 90
        1
176
     1
 90
        1
176
     1
 40
1.0
176
     1
 90
        8
176
     1
 62
     7
176
     1
 40
1.0
176
     1
 90
        1
176
     1
 90
        6
176
     1
 90
        2
176
     1
 62
     7
176
     1
 90
        5
176
     1
 90
        0
176
     1
 90
        0
176
     1
290
     0
176
     1
 90
        1
176
     1
 40
50.0
176
     1
 90
        0
176
     1
290
     0
176
     1
290
     1
176
     1
290
     1
176
     1
290
     0
176
     1
290
     0
176
     1
290
     0
176
     1
290
     0
176
     1
290
     0
176
     1
290
     0
176
     1
 90
       50
176
     1
 40
0.0
176
     1
 40
1.0
176
     1
 90
        0
176
     1
 62
    18
420
        0
176
     1
 90
       50
176
     1
 90
        3
176
     1
 62
     5
420
      255
176
     1
290
     0
176
     1
 90
       50
176
     1
 90
       50
176
     1
 90
       50
176
     1
290
     0
176
     1
 90
       50
176
     1
 62
   256
176
     0
 40
1.0
176
     0
 90
        2
176
     1
  1
strokes_ogs.tif
176
     1
290
     0
176
     1
 40
1.0
176
     1
 40
1.0
176
     1
  0
VISUALSTYLE
  5
6F0
102
{ACAD_REACTORS
330
6E0
102
}
330
6E0
100
AcDbVisualStyle
  2
ColorChange
 70
    16
177
     3
291
     1
 70
    58
 90
        2
176
     1
 90
        2
176
     1
 90
        3
176
     1
 90
        0
176
     1
 40
0.6
176
     1
 40
30.0
176
     1
 62
     8
420
  8421504
176
     1
 90
        1
176
     1
 90
        4
176
     1
 62
     7
176
     1
 62
   257
176
     1
 90
        1
176
     1
 90
        1
176
     1
 40
1.0
176
     1
 90
        8
176
     1
 62
     8
420
  8421504
176
     1
 40
1.0
176
     1
 90
        1
176
     1
 90
        6
176
     1
 90
        2
176
     1
 62
     7
176
     1
 90
        5
176
     1
 90
        0
176
     1
 90
        0
176
     1
290
     0
176
     1
 90
        1
176
     1
 40
0.0
176
     1
 90
        0
176
     1
290
     0
176
     1
290
     1
176
     1
290
     1
176
     1
290
     0
176
     1
290
     0
176
     1
290
     0
176
     1
290
     0
176
     1
290
     0
176
     1
290
     0
176
     1
 90
       50
176
     1
 40
0.0
176
     1
 40
1.0
176
     1
 90
        0
176
     1
 62
    18
420
        0
176
     1
 90
       50
176
     1
 90
        3
176
     1
 62
     5
420
      255
176
     1
290
     0
176
     1
 90
       50
176
     1
 90
       50
176
     1
 90
       50
176
     1
290
     0
176
     1
 90
       50
176
     1
 62
   256
176
     0
 40
1.0
176
     0
 90
        2
176
     1
  1
strokes_ogs.tif
176
     1
290
     0
176
     1
 40
1.0
176
     1
 40
1.0
176
     1
  0
VISUALSTYLE
  5
6EA
102
{ACAD_REACTORS
330
6E0
102
}
330
6E0
100
AcDbVisualStyle
  2
Conceptual
 70
     9
177
     3
291
     0
 70
    58
 90
        3
176
     1
 90
        2
176
     1
 90
        0
176
     1
 90
        0
176
     1
 40
0.6
176
     1
 40
30.0
176
     1
 62
     7
420
 16777215
176
     1
 90
        2
176
     1
 90
        2
176
     1
 62
     7
176
     1
 62
   257
176
     1
 90
        1
176
     1
 90
        1
176
     1
 40
179.0
176
     1
 90
        8
176
     1
 62
     7
176
     1
 40
1.0
176
     1
 90
        1
176
     1
 90
        6
176
     1
 90
        2
176
     1
 62
     7
176
     1
 90
        3
176
     1
 90
        0
176
     1
 90
        0
176
     1
290
     0
176
     1
 90
        1
176
     1
 40
0.0
176
     1
 90
        0
176
     1
290
     0
176
     1
290
     1
176
     1
290
     1
176
     1
290
     0
176
     1
290
     0
176
     1
290
     0
176
     1
290
     0
176
     1
290
     0
176
     1
290
     0
176
     1
 90
       50
176
     1
 40
0.0
176
     1
 40
1.0
176
     1
 90
        0
176
     1
 62
    18
420
        0
176
     1
 90
       50
176
     1
 90
        3
176
     1
 62
     5
420
      255
176
     1
290
     0
176
     1
 90
       50
176
     1
 90
       50
176
     1
 90
       50
176
     1
290
     0
176
     1
 90
       50
176
     1
 62
   256
176
     0
 40
1.0
176
     0
 90
        2
176
     1
  1
strokes_ogs.tif
176
     1
290
     0
176
     1
 40
1.0
176
     1
 40
1.0
176
     1
  0
VISUALSTYLE
  5
6EB
102
{ACAD_REACTORS
330
6E0
102
}
330
6E0
100
AcDbVisualStyle
  2
Dim
 70
    11
177
     3
291
     1
 70
    58
 90
        2
176
     1
 90
        2
176
     1
 90
        0
176
     1
 90
        0
176
     1
 40
0.6
176
     1
 40
30.0
176
     1
 62
     7
420
 16777215
176
     1
 90
        1
176
     1
 90
        4
176
     1
 62
     7
176
     1
 62
   257
176
     1
 90
        1
176
     1
 90
        1
176
     1
 40
1.0
176
     1
 90
        8
176
     1
 62
     7
176
     1
 40
1.0
176
     1
 90
        1
176
     1
 90
        6
176
     1
 90
        2
176
     1
 62
     7
176
     1
 90
        5
176
     1
 90
        0
176
     1
 90
        0
176
     1
290
     0
176
     1
 90
        1
176
     1
 40
-50.0
176
     1
 90
        0
176
     1
290
     0
176
     1
290
     1
176
     1
290
     1
176
     1
290
     0
176
     1
290
     0
176
     1
290
     0
176
     1
290
     0
176
     1
290
     0
176
     1
290
     0
176
     1
 90
       50
176
     1
 40
0.0
176
     1
 40
1.0
176
     1
 90
        0
176
     1
 62
    18
420
        0
176
     1
 90
       50
176
     1
 90
        3
176
     1
 62
     5
420
      255
176
     1
290
     0
176
     1
 90
       50
176
     1
 90
       50
176
     1
 90
       50
176
     1
290
     0
176
     1
 90
       50
176
     1
 62
   256
176
     0
 40
1.0
176
     0
 90
        2
176
     1
  1
strokes_ogs.tif
176
     1
290
     0
176
     1
 40
1.0
176
     1
 40
1.0
176
     1
  0
VISUALSTYLE
  5
6F3
102
{ACAD_REACTORS
330
6E0
102
}
330
6E0
100
AcDbVisualStyle
  2
EdgeColorOff
 70
    22
177
     3
291
     1
 70
    58
 90
        2
176
     0
 90
        2
176
     0
 90
        0
176
     0
 90
        0
176
     0
 40
0.6
176
     0
 40
30.0
176
     0
 62
     7
420
 16777215
176
     0
 90
        1
176
     0
 90
        4
176
     0
 62
     7
176
     0
 62
   257
176
     0
 90
        1
176
     0
 90
        1
176
     0
 40
1.0
176
     0
 90
        8
176
     2
 62
     7
176
     0
 40
1.0
176
     0
 90
        1
176
     0
 90
        6
176
     0
 90
        2
176
     0
 62
     7
176
     0
 90
        5
176
     0
 90
        0
176
     0
 90
        0
176
     0
290
     0
176
     0
 90
        1
176
     0
 40
0.0
176
     0
 90
        0
176
     0
290
     0
176
     0
290
     1
176
     0
290
     1
176
     0
290
     0
176
     0
290
     0
176
     0
290
     0
176
     0
290
     0
176
     0
290
     0
176
     0
290
     0
176
     0
 90
       50
176
     0
 40
0.0
176
     0
 40
1.0
176
     0
 90
        0
176
     0
 62
    18
420
        0
176
     0
 90
       50
176
     0
 90
        3
176
     0
 62
     5
420
      255
176
     0
290
     0
176
     0
 90
       50
176
     0
 90
       50
176
     0
 90
       50
176
     0
290
     0
176
     0
 90
       50
176
     0
 62
   256
176
     0
 40
1.0
176
     0
 90
        2
176
     0
  1
strokes_ogs.tif
176
     0
290
     0
176
     0
 40
1.0
176
     0
 40
1.0
176
     0
  0
VISUALSTYLE
  5
6EF
102
{ACAD_REACTORS
330
6E0
102
}
330
6E0
100
AcDbVisualStyle
  2
Facepattern
 70
    15
177
     3
291
     1
 70
    58
 90
        2
176
     1
 90
        2
176
     1
 90
        0
176
     1
 90
        0
176
     1
 40
0.6
176
     1
 40
30.0
176
     1
 62
     7
420
 16777215
176
     1
 90
        1
176
     1
 90
        4
176
     1
 62
     7
176
     1
 62
   257
176
     1
 90
        1
176
     1
 90
        1
176
     1
 40
1.0
176
     1
 90
        8
176
     1
 62
     7
176
     1
 40
1.0
176
     1
 90
        1
176
     1
 90
        6
176
     1
 90
        2
176
     1
 62
     7
176
     1
 90
        5
176
     1
 90
        0
176
     1
 90
        0
176
     1
290
     0
176
     1
 90
        1
176
     1
 40
0.0
176
     1
 90
        0
176
     1
290
     0
176
     1
290
     1
176
     1
290
     1
176
     1
290
     0
176
     1
290
     0
176
     1
290
     0
176
     1
290
     0
176
     1
290
     0
176
     1
290
     0
176
     1
 90
       50
176
     1
 40
0.0
176
     1
 40
1.0
176
     1
 90
        0
176
     1
 62
    18
420
        0
176
     1
 90
       50
176
     1
 90
        3
176
     1
 62
     5
420
      255
176
     1
290
     0
176
     1
 90
       50
176
     1
 90
       50
176
     1
 90
       50
176
     1
290
     0
176
     1
 90
       50
176
     1
 62
   256
176
     0
 40
1.0
176
     0
 90
        2
176
     1
  1
strokes_ogs.tif
176
     1
290
     0
176
     1
 40
1.0
176
     1
 40
1.0
176
     1
  0
VISUALSTYLE
  5
6E1
102
{ACAD_REACTORS
330
6E0
102
}
330
6E0
100
AcDbVisualStyle
  2
Flat
 70
     0
177
     3
291
     1
 70
    58
 90
        2
176
     1
 90
        1
176
     1
 90
        1
176
     1
 90
        2
176
     1
 40
0.6
176
     1
 40
30.0
176
     1
 62
     7
420
 16777215
176
     1
 90
        0
176
     1
 90
        0
176
     1
 62
     7
176
     1
 62
   257
176
     1
 90
        1
176
     1
 90
        1
176
     1
 40
1.0
176
     1
 90
        8
176
     1
 62
     7
176
     1
 40
1.0
176
     1
 90
        1
176
     1
 90
        6
176
     1
 90
        2
176
     1
 62
     7
176
     1
 90
        5
176
     1
 90
        0
176
     1
 90
        0
176
     1
290
     0
176
     1
 90
       13
176
     1
 40
0.0
176
     1
 90
        0
176
     1
290
     0
176
     1
290
     1
176
     1
290
     1
176
     1
290
     0
176
     1
290
     0
176
     1
290
     0
176
     1
290
     0
176
     1
290
     0
176
     1
290
     0
176
     1
 90
       50
176
     1
 40
0.0
176
     1
 40
1.0
176
     1
 90
        0
176
     1
 62
    18
420
        0
176
     1
 90
       50
176
     1
 90
        3
176
     1
 62
     5
420
      255
176
     1
290
     0
176
     1
 90
       50
176
     1
 90
       50
176
     1
 90
       50
176
     1
290
     0
176
     1
 90
       50
176
     1
 62
   256
176
     0
 40
1.0
176
     0
 90
        2
176
     1
  1
strokes_ogs.tif
176
     1
290
     0
176
     1
 40
1.0
176
     1
 40
1.0
176
     1
  0
VISUALSTYLE
  5
6E2
102
{ACAD_REACTORS
330
6E0
102
}
330
6E0
100
AcDbVisualStyle
  2
FlatWithEdges
 70
     1
177
     3
291
     1
 70
    58
 90
        2
176
     1
 90
        1
176
     1
 90
        1
176
     1
 90
        2
176
     1
 40
0.6
176
     1
 40
30.0
176
     1
 62
     7
420
 16777215
176
     1
 90
        1
176
     1
 90
        0
176
     1
 62
     7
176
     1
 62
   257
176
     1
 90
        1
176
     1
 90
        1
176
     1
 40
1.0
176
     1
 90
        0
176
     1
 62
   257
176
     1
 40
1.0
176
     1
 90
        1
176
     1
 90
        6
176
     1
 90
        2
176
     1
 62
     7
176
     1
 90
        5
176
     1
 90
        0
176
     1
 90
        0
176
     1
290
     0
176
     1
 90
       13
176
     1
 40
0.0
176
     1
 90
        0
176
     1
290
     0
176
     1
290
     1
176
     1
290
     1
176
     1
290
     0
176
     1
290
     0
176
     1
290
     0
176
     1
290
     0
176
     1
290
     0
176
     1
290
     0
176
     1
 90
       50
176
     1
 40
0.0
176
     1
 40
1.0
176
     1
 90
        0
176
     1
 62
    18
420
        0
176
     1
 90
       50
176
     1
 90
        3
176
     1
 62
     5
420
      255
176
     1
290
     0
176
     1
 90
       50
176
     1
 90
       50
176
     1
 90
       50
176
     1
290
     0
176
     1
 90
       50
176
     1
 62
   256
176
     0
 40
1.0
176
     0
 90
        2
176
     1
  1
strokes_ogs.tif
176
     1
290
     0
176
     1
 40
1.0
176
     1
 40
1.0
176
     1
  0
VISUALSTYLE
  5
6E3
102
{ACAD_REACTORS
330
6E0
102
}
330
6E0
100
AcDbVisualStyle
  2
Gouraud
 70
     2
177
     3
291
     1
 70
    58
 90
        2
176
     1
 90
        2
176
     1
 90
        1
176
     1
 90
        2
176
     1
 40
0.6
176
     1
 40
30.0
176
     1
 62
     7
420
 16777215
176
     1
 90
        0
176
     1
 90
        0
176
     1
 62
     7
176
     1
 62
   257
176
     1
 90
        1
176
     1
 90
        1
176
     1
 40
1.0
176
     1
 90
        0
176
     1
 62
     7
176
     1
 40
1.0
176
     1
 90
        1
176
     1
 90
        6
176
     1
 90
        2
176
     1
 62
     7
176
     1
 90
        5
176
     1
 90
        0
176
     1
 90
        0
176
     1
290
     0
176
     1
 90
       13
176
     1
 40
0.0
176
     1
 90
        0
176
     1
290
     0
176
     1
290
     1
176
     1
290
     1
176
     1
290
     0
176
     1
290
     0
176
     1
290
     0
176
     1
290
     0
176
     1
290
     0
176
     1
290
     0
176
     1
 90
       50
176
     1
 40
0.0
176
     1
 40
1.0
176
     1
 90
        0
176
     1
 62
    18
420
        0
176
     1
 90
       50
176
     1
 90
        3
176
     1
 62
     5
420
      255
176
     1
290
     0
176
     1
 90
       50
176
     1
 90
       50
176
     1
 90
       50
176
     1
290
     0
176
     1
 90
       50
176
     1
 62
   256
176
     0
 40
1.0
176
     0
 90
        2
176
     1
  1
strokes_ogs.tif
176
     1
290
     0
176
     1
 40
1.0
176
     1
 40
1.0
176
     1
  0
VISUALSTYLE
  5
6E4
102
{ACAD_REACTORS
330
6E0
102
}
330
6E0
100
AcDbVisualStyle
  2
GouraudWithEdges
 70
     3
177
     3
291
     1
 70
    58
 90
        2
176
     1
 90
        2
176
     1
 90
        1
176
     1
 90
        2
176
     1
 40
0.6
176
     1
 40
30.0
176
     1
 62
     7
420
 16777215
176
     1
 90
        1
176
     1
 90
        0
176
     1
 62
     7
176
     1
 62
   257
176
     1
 90
        1
176
     1
 90
        1
176
     1
 40
1.0
176
     1
 90
        0
176
     1
 62
   257
176
     1
 40
1.0
176
     1
 90
        1
176
     1
 90
        6
176
     1
 90
        2
176
     1
 62
     7
176
     1
 90
        5
176
     1
 90
        0
176
     1
 90
        0
176
     1
290
     0
176
     1
 90
       13
176
     1
 40
0.0
176
     1
 90
        0
176
     1
290
     0
176
     1
290
     1
176
     1
290
     1
176
     1
290
     0
176
     1
290
     0
176
     1
290
     0
176
     1
290
     0
176
     1
290
     0
176
     1
290
     0
176
     1
 90
       50
176
     1
 40
0.0
176
     1
 40
1.0
176
     1
 90
        0
176
     1
 62
    18
420
        0
176
     1
 90
       50
176
     1
 90
        3
176
     1
 62
     5
420
      255
176
     1
290
     0
176
     1
 90
       50
176
     1
 90
       50
176
     1
 90
       50
176
     1
290
     0
176
     1
 90
       50
176
     1
 62
   256
176
     0
 40
1.0
176
     0
 90
        2
176
     1
  1
strokes_ogs.tif
176
     1
290
     0
176
     1
 40
1.0
176
     1
 40
1.0
176
     1
  0
VISUALSTYLE
  5
6E7
102
{ACAD_REACTORS
330
6E0
102
}
330
6E0
100
AcDbVisualStyle
  2
Hidden
 70
     6
177
     3
291
     0
 70
    58
 90
        1
176
     1
 90
        2
176
     1
 90
        2
176
     1
 90
        0
176
     1
 40
0.6
176
     1
 40
30.0
176
     1
 62
     7
420
 16777215
176
     1
 90
        2
176
     1
 90
        2
176
     1
 62
     7
176
     1
 62
   257
176
     1
 90
        2
176
     1
 90
        1
176
     1
 40
40.0
176
     1
 90
        0
176
     1
 62
   257
176
     1
 40
1.0
176
     1
 90
        1
176
     1
 90
        6
176
     1
 90
        2
176
     1
 62
     7
176
     1
 90
        3
176
     1
 90
        0
176
     1
 90
        0
176
     1
290
     0
176
     1
 90
        1
176
     1
 40
0.0
176
     1
 90
        0
176
     1
290
     0
176
     1
290
     1
176
     1
290
     1
176
     1
290
     0
176
     1
290
     0
176
     1
290
     0
176
     1
290
     0
176
     1
290
     0
176
     1
290
     0
176
     1
 90
       50
176
     1
 40
0.0
176
     1
 40
1.0
176
     1
 90
        0
176
     1
 62
    18
420
        0
176
     1
 90
       50
176
     1
 90
        3
176
     1
 62
     5
420
      255
176
     1
290
     0
176
     1
 90
       50
176
     1
 90
       50
176
     1
 90
       50
176
     1
290
     0
176
     1
 90
       50
176
     1
 62
   256
176
     0
 40
1.0
176
     0
 90
        2
176
     1
  1
strokes_ogs.tif
176
     1
290
     0
176
     1
 40
1.0
176
     1
 40
1.0
176
     1
  0
VISUALSTYLE
  5
6F1
102
{ACAD_REACTORS
330
6E0
102
}
330
6E0
100
AcDbVisualStyle
  2
JitterOff
 70
    20
177
     3
291
     1
 70
    58
 90
        2
176
     0
 90
        2
176
     0
 90
        0
176
     0
 90
        0
176
     0
 40
0.6
176
     0
 40
30.0
176
     0
 62
     7
420
 16777215
176
     0
 90
        1
176
     0
 90
        4
176
     0
 62
     7
176
     0
 62
   257
176
     0
 90
        1
176
     0
 90
        1
176
     0
 40
1.0
176
     0
 90
       10
176
     2
 62
     7
176
     0
 40
1.0
176
     0
 90
        1
176
     0
 90
        6
176
     0
 90
        2
176
     0
 62
     7
176
     0
 90
        5
176
     0
 90
        0
176
     0
 90
        0
176
     0
290
     0
176
     0
 90
        1
176
     0
 40
0.0
176
     0
 90
        0
176
     0
290
     0
176
     0
290
     1
176
     0
290
     1
176
     0
290
     0
176
     0
290
     0
176
     0
290
     0
176
     0
290
     0
176
     0
290
     0
176
     0
290
     0
176
     0
 90
       50
176
     0
 40
0.0
176
     0
 40
1.0
176
     0
 90
        0
176
     0
 62
    18
420
        0
176
     0
 90
       50
176
     0
 90
        3
176
     0
 62
     5
420
      255
176
     0
290
     0
176
     0
 90
       50
176
     0
 90
       50
176
     0
 90
       50
176
     0
290
     0
176
     0
 90
       50
176
     0
 62
   256
176
     0
 40
1.0
176
     0
 90
        2
176
     0
  1
strokes_ogs.tif
176
     0
290
     0
176
     0
 40
1.0
176
     0
 40
1.0
176
     0
  0
VISUALSTYLE
  5
6EE
102
{ACAD_REACTORS
330
6E0
102
}
330
6E0
100
AcDbVisualStyle
  2
Linepattern
 70
    14
177
     3
291
     1
 70
    58
 90
        2
176
     1
 90
        2
176
     1
 90
        0
176
     1
 90
        0
176
     1
 40
0.6
176
     1
 40
30.0
176
     1
 62
     7
420
 16777215
176
     1
 90
        1
176
     1
 90
        4
176
     1
 62
     7
176
     1
 62
   257
176
     1
 90
        7
176
     1
 90
        7
176
     1
 40
1.0
176
     1
 90
        8
176
     1
 62
     7
176
     1
 40
1.0
176
     1
 90
        1
176
     1
 90
        6
176
     1
 90
        2
176
     1
 62
     7
176
     1
 90
        5
176
     1
 90
        0
176
     1
 90
        0
176
     1
290
     0
176
     1
 90
        1
176
     1
 40
0.0
176
     1
 90
        0
176
     1
290
     0
176
     1
290
     1
176
     1
290
     1
176
     1
290
     0
176
     1
290
     0
176
     1
290
     0
176
     1
290
     0
176
     1
290
     0
176
     1
290
     0
176
     1
 90
       50
176
     1
 40
0.0
176
     1
 40
1.0
176
     1
 90
        0
176
     1
 62
    18
420
        0
176
     1
 90
       50
176
     1
 90
        3
176
     1
 62
     5
420
      255
176
     1
290
     0
176
     1
 90
       50
176
     1
 90
       50
176
     1
 90
       50
176
     1
290
     0
176
     1
 90
       50
176
     1
 62
   256
176
     0
 40
1.0
176
     0
 90
        2
176
     1
  1
strokes_ogs.tif
176
     1
290
     0
176
     1
 40
1.0
176
     1
 40
1.0
176
     1
  0
VISUALSTYLE
  5
6F2
102
{ACAD_REACTORS
330
6E0
102
}
330
6E0
100
AcDbVisualStyle
  2
OverhangOff
 70
    21
177
     3
291
     1
 70
    58
 90
        2
176
     0
 90
        2
176
     0
 90
        0
176
     0
 90
        0
176
     0
 40
0.6
176
     0
 40
30.0
176
     0
 62
     7
420
 16777215
176
     0
 90
        1
176
     0
 90
        4
176
     0
 62
     7
176
     0
 62
   257
176
     0
 90
        1
176
     0
 90
        1
176
     0
 40
1.0
176
     0
 90
        9
176
     2
 62
     7
176
     0
 40
1.0
176
     0
 90
        1
176
     0
 90
        6
176
     0
 90
        2
176
     0
 62
     7
176
     0
 90
        5
176
     0
 90
        0
176
     0
 90
        0
176
     0
290
     0
176
     0
 90
        1
176
     0
 40
0.0
176
     0
 90
        0
176
     0
290
     0
176
     0
290
     1
176
     0
290
     1
176
     0
290
     0
176
     0
290
     0
176
     0
290
     0
176
     0
290
     0
176
     0
290
     0
176
     0
290
     0
176
     0
 90
       50
176
     0
 40
0.0
176
     0
 40
1.0
176
     0
 90
        0
176
     0
 62
    18
420
        0
176
     0
 90
       50
176
     0
 90
        3
176
     0
 62
     5
420
      255
176
     0
290
     0
176
     0
 90
       50
176
     0
 90
       50
176
     0
 90
       50
176
     0
290
     0
176
     0
 90
       50
176
     0
 62
   256
176
     0
 40
1.0
176
     0
 90
        2
176
     0
  1
strokes_ogs.tif
176
     0
290
     0
176
     0
 40
1.0
176
     0
 40
1.0
176
     0
  0
VISUALSTYLE
  5
6E9
102
{ACAD_REACTORS
330
6E0
102
}
330
6E0
100
AcDbVisualStyle
  2
Realistic
 70
     8
177
     3
291
     0
 70
    58
 90
        2
176
     1
 90
        3
176
     1
 90
        0
176
     1
 90
        2
176
     1
 40
0.6
176
     1
 40
30.0
176
     1
 62
     7
420
 16777215
176
     1
 90
        0
176
     1
 90
        0
176
     1
 62
     7
176
     1
 62
   257
176
     1
 90
        1
176
     1
 90
        1
176
     1
 40
1.0
176
     1
 90
        8
176
     1
 62
   257
176
     1
 40
1.0
176
     1
 90
        1
176
     1
 90
        6
176
     1
 90
        2
176
     1
 62
     7
176
     1
 90
        3
176
     1
 90
        0
176
     1
 90
        0
176
     1
290
     0
176
     1
 90
       13
176
     1
 40
0.0
176
     1
 90
        0
176
     1
290
     0
176
     1
290
     1
176
     1
290
     1
176
     1
290
     0
176
     1
290
     0
176
     1
290
     0
176
     1
290
     0
176
     1
290
     0
176
     1
290
     0
176
     1
 90
       50
176
     1
 40
0.0
176
     1
 40
1.0
176
     1
 90
        0
176
     1
 62
    18
420
        0
176
     1
 90
       50
176
     1
 90
        3
176
     1
 62
     5
420
      255
176
     1
290
     0
176
     1
 90
       50
176
     1
 90
       50
176
     1
 90
       50
176
     1
290
     0
176
     1
 90
       50
176
     1
 62
   256
176
     0
 40
1.0
176
     0
 90
        2
176
     1
  1
strokes_ogs.tif
176
     1
290
     0
176
     1
 40
1.0
176
     1
 40
1.0
176
     1
  0
VISUALSTYLE
  5
6F8
102
{ACAD_REACTORS
330
6E0
102
}
330
6E0
100
AcDbVisualStyle
  2
Shaded
 70
    27
177
     3
291
     0
 70
    58
 90
        2
176
     1
 90
        2
176
     1
 90
        1
176
     1
 90
        2
176
     1
 40
0.6
176
     1
 40
30.0
176
     1
 62
     7
420
 16777215
176
     1
 90
        0
176
     1
 90
        4
176
     1
 62
     7
176
     1
 62
   257
176
     1
 90
        1
176
     1
 90
        1
176
     1
 40
1.0
176
     1
 90
        8
176
     1
 62
   257
176
     1
 40
1.0
176
     1
 90
        1
176
     1
 90
        6
176
     1
 90
        2
176
     1
 62
     8
420
  7895160
176
     1
 90
        3
176
     1
 90
        0
176
     1
 90
        0
176
     1
290
     0
176
     1
 90
        5
176
     1
 40
0.0
176
     1
 90
        0
176
     1
290
     0
176
     1
290
     1
176
     1
290
     1
176
     1
290
     0
176
     1
290
     0
176
     1
290
     0
176
     1
290
     0
176
     1
290
     0
176
     1
290
     0
176
     1
 90
       50
176
     1
 40
0.0
176
     1
 40
1.0
176
     1
 90
        0
176
     1
 62
    18
420
        0
176
     1
 90
       50
176
     1
 90
        3
176
     1
 62
     5
420
      255
176
     1
290
     0
176
     1
 90
       50
176
     1
 90
       50
176
     1
 90
       50
176
     1
290
     0
176
     1
 90
       50
176
     1
 62
   256
176
     0
 40
1.0
176
     0
 90
        2
176
     1
  1
strokes_ogs.tif
176
     1
290
     0
176
     1
 40
1.0
176
     1
 40
1.0
176
     1
  0
VISUALSTYLE
  5
6F7
102
{ACAD_REACTORS
330
6E0
102
}
330
6E0
100
AcDbVisualStyle
  2
Shaded with edges
 70
    26
177
     3
291
     0
 70
    58
 90
        2
176
     1
 90
        2
176
     1
 90
        1
176
     1
 90
        2
176
     1
 40
0.6
176
     1
 40
30.0
176
     1
 62
     7
420
 16777215
176
     1
 90
        1
176
     1
 90
       10
176
     1
 62
     7
176
     1
 62
   257
176
     1
 90
        2
176
     1
 90
        1
176
     1
 40
1.0
176
     1
 90
        8
176
     1
 62
   257
176
     1
 40
1.0
176
     1
 90
        1
176
     1
 90
        6
176
     1
 90
        2
176
     1
 62
     7
176
     1
 90
        3
176
     1
 90
        0
176
     1
 90
        0
176
     1
290
     0
176
     1
 90
        5
176
     1
 40
0.0
176
     1
 90
        0
176
     1
290
     0
176
     1
290
     1
176
     1
290
     1
176
     1
290
     0
176
     1
290
     0
176
     1
290
     0
176
     1
290
     0
176
     1
290
     0
176
     1
290
     0
176
     1
 90
       50
176
     1
 40
0.0
176
     1
 40
1.0
176
     1
 90
        0
176
     1
 62
    18
420
        0
176
     1
 90
       50
176
     1
 90
        3
176
     1
 62
     5
420
      255
176
     1
290
     0
176
     1
 90
       50
176
     1
 90
       50
176
     1
 90
       50
176
     1
290
     0
176
     1
 90
       50
176
     1
 62
   256
176
     0
 40
1.0
176
     0
 90
        2
176
     1
  1
strokes_ogs.tif
176
     1
290
     0
176
     1
 40
1.0
176
     1
 40
1.0
176
     1
  0
VISUALSTYLE
  5
6F4
102
{ACAD_REACTORS
330
6E0
102
}
330
6E0
100
AcDbVisualStyle
  2
Shades of Gray
 70
    23
177
     3
291
     0
 70
    58
 90
        2
176
     1
 90
        2
176
     1
 90
        3
176
     1
 90
        0
176
     1
 40
0.6
176
     1
 40
30.0
176
     1
 62
     7
420
 16777215
176
     1
 90
        2
176
     1
 90
        2
176
     1
 62
     7
176
     1
 62
     7
176
     1
 90
        1
176
     1
 90
        1
176
     1
 40
40.0
176
     1
 90
        8
176
     1
 62
     7
176
     1
 40
1.0
176
     1
 90
        1
176
     1
 90
        6
176
     1
 90
        2
176
     1
 62
     7
176
     1
 90
        3
176
     1
 90
        0
176
     1
 90
        0
176
     1
290
     0
176
     1
 90
        1
176
     1
 40
0.0
176
     1
 90
        0
176
     1
290
     0
176
     1
290
     1
176
     1
290
     1
176
     1
290
     0
176
     1
290
     0
176
     1
290
     0
176
     1
290
     0
176
     1
290
     0
176
     1
290
     0
176
     1
 90
       50
176
     1
 40
0.0
176
     1
 40
1.0
176
     1
 90
        0
176
     1
 62
    18
420
        0
176
     1
 90
       50
176
     1
 90
        3
176
     1
 62
     5
420
      255
176
     1
290
     0
176
     1
 90
       50
176
     1
 90
       50
176
     1
 90
       50
176
     1
290
     0
176
     1
 90
       50
176
     1
 62
   256
176
     0
 40
1.0
176
     0
 90
        2
176
     1
  1
strokes_ogs.tif
176
     1
290
     0
176
     1
 40
1.0
176
     1
 40
1.0
176
     1
  0
VISUALSTYLE
  5
6F5
102
{ACAD_REACTORS
330
6E0
102
}
330
6E0
100
AcDbVisualStyle
  2
Sketchy
 70
    24
177
     3
291
     0
 70
    58
 90
        1
176
     1
 90
        2
176
     1
 90
        2
176
     1
 90
        0
176
     1
 40
0.6
176
     1
 40
30.0
176
     1
 62
     7
420
 16777215
176
     1
 90
        2
176
     1
 90
        2
176
     1
 62
     7
176
     1
 62
     7
176
     1
 90
        1
176
     1
 90
        1
176
     1
 40
40.0
176
     1
 90
       11
176
     1
 62
     7
176
     1
 40
1.0
176
     1
 90
        1
176
     1
 90
        6
176
     1
 90
        2
176
     1
 62
     7
176
     1
 90
        6
176
     1
 90
        0
176
     1
 90
        0
176
     1
290
     0
176
     1
 90
        1
176
     1
 40
0.0
176
     1
 90
        0
176
     1
290
     0
176
     1
290
     1
176
     1
290
     1
176
     1
290
     0
176
     1
290
     0
176
     1
290
     0
176
     1
290
     0
176
     1
290
     0
176
     1
290
     0
176
     1
 90
       50
176
     1
 40
0.0
176
     1
 40
1.0
176
     1
 90
        0
176
     1
 62
    18
420
        0
176
     1
 90
       50
176
     1
 90
        3
176
     1
 62
     5
420
      255
176
     1
290
     0
176
     1
 90
       50
176
     1
 90
       50
176
     1
 90
       50
176
     1
290
     0
176
     1
 90
       50
176
     1
 62
   256
176
     0
 40
1.0
176
     0
 90
        2
176
     1
  1
strokes_ogs.tif
176
     1
290
     0
176
     1
 40
1.0
176
     1
 40
1.0
176
     1
  0
VISUALSTYLE
  5
6ED
102
{ACAD_REACTORS
330
6E0
102
}
330
6E0
100
AcDbVisualStyle
  2
Thicken
 70
    13
177
     3
291
     1
 70
    58
 90
        2
176
     1
 90
        2
176
     1
 90
        0
176
     1
 90
        0
176
     1
 40
0.6
176
     1
 40
30.0
176
     1
 62
     7
420
 16777215
176
     1
 90
        1
176
     1
 90
        4
176
     1
 62
     7
176
     1
 62
   257
176
     1
 90
        1
176
     1
 90
        1
176
     1
 40
1.0
176
     1
 90
       12
176
     1
 62
     7
176
     1
 40
1.0
176
     1
 90
        1
176
     1
 90
        6
176
     1
 90
        2
176
     1
 62
     7
176
     1
 90
        5
176
     1
 90
        0
176
     1
 90
        0
176
     1
290
     0
176
     1
 90
        1
176
     1
 40
0.0
176
     1
 90
        0
176
     1
290
     0
176
     1
290
     1
176
     1
290
     1
176
     1
290
     0
176
     1
290
     0
176
     1
290
     0
176
     1
290
     0
176
     1
290
     0
176
     1
290
     0
176
     1
 90
       50
176
     1
 40
0.0
176
     1
 40
1.0
176
     1
 90
        0
176
     1
 62
    18
420
        0
176
     1
 90
       50
176
     1
 90
        3
176
     1
 62
     5
420
      255
176
     1
290
     0
176
     1
 90
       50
176
     1
 90
       50
176
     1
 90
       50
176
     1
290
     0
176
     1
 90
       50
176
     1
 62
   256
176
     0
 40
1.0
176
     0
 90
        2
176
     1
  1
strokes_ogs.tif
176
     1
290
     0
176
     1
 40
1.0
176
     1
 40
1.0
176
     1
  0
VISUALSTYLE
  5
6E6
102
{ACAD_REACTORS
330
6E0
102
}
330
6E0
100
AcDbVisualStyle
  2
Wireframe
 70
     5
177
     3
291
     0
 70
    58
 90
        0
176
     1
 90
        2
176
     1
 90
        0
176
     1
 90
        0
176
     1
 40
0.6
176
     1
 40
30.0
176
     1
 62
     7
420
 16777215
176
     1
 90
        1
176
     1
 90
        4
176
     1
 62
     7
176
     1
 62
   257
176
     1
 90
        1
176
     1
 90
        1
176
     1
 40
1.0
176
     1
 90
        0
176
     1
 62
   257
176
     1
 40
1.0
176
     1
 90
        1
176
     1
 90
        6
176
     1
 90
        2
176
     1
 62
     7
176
     1
 90
        3
176
     1
 90
        0
176
     1
 90
        0
176
     1
290
     0
176
     1
 90
        1
176
     1
 40
0.0
176
     1
 90
        0
176
     1
290
     0
176
     1
290
     1
176
     1
290
     1
176
     1
290
     0
176
     1
290
     0
176
     1
290
     0
176
     1
290
     0
176
     1
290
     0
176
     1
290
     0
176
     1
 90
       50
176
     1
 40
0.0
176
     1
 40
1.0
176
     1
 90
        0
176
     1
 62
    18
420
        0
176
     1
 90
       50
176
     1
 90
        3
176
     1
 62
     5
420
      255
176
     1
290
     0
176
     1
 90
       50
176
     1
 90
       50
176
     1
 90
       50
176
     1
290
     0
176
     1
 90
       50
176
     1
 62
   256
176
     0
 40
1.0
176
     0
 90
        2
176
     1
  1
strokes_ogs.tif
176
     1
290
     0
176
     1
 40
1.0
176
     1
 40
1.0
176
     1
  0
VISUALSTYLE
  5
6F6
102
{ACAD_REACTORS
330
6E0
102
}
330
6E0
100
AcDbVisualStyle
  2
X-Ray
 70
    25
177
     3
291
     0
 70
    58
 90
        2
176
     1
 90
        2
176
     1
 90
        1
176
     1
 90
        1
176
     1
 40
0.5
176
     1
 40
30.0
176
     1
 62
     7
420
 16777215
176
     1
 90
        1
176
     1
 90
        0
176
     1
 62
     7
176
     1
 62
   257
176
     1
 90
        1
176
     1
 90
        1
176
     1
 40
1.0
176
     1
 90
        8
176
     1
 62
     7
176
     1
 40
1.0
176
     1
 90
        1
176
     1
 90
        6
176
     1
 90
        2
176
     1
 62
     7
176
     1
 90
        3
176
     1
 90
        0
176
     1
 90
        0
176
     1
290
     0
176
     1
 90
       13
176
     1
 40
0.0
176
     1
 90
        0
176
     1
290
     0
176
     1
290
     1
176
     1
290
     1
176
     1
290
     0
176
     1
290
     0
176
     1
290
     0
176
     1
290
     0
176
     1
290
     0
176
     1
290
     0
176
     1
 90
       50
176
     1
 40
0.0
176
     1
 40
1.0
176
     1
 90
        0
176
     1
 62
    18
420
        0
176
     1
 90
       50
176
     1
 90
        3
176
     1
 62
     5
420
      255
176
     1
290
     0
176
     1
 90
       50
176
     1
 90
       50
176
     1
 90
       50
176
     1
290
     0
176
     1
 90
       50
176
     1
 62
   256
176
     0
 40
1.0
176
     0
 90
        2
176
     1
  1
strokes_ogs.tif
176
     1
290
     0
176
     1
 40
1.0
176
     1
 40
1.0
176
     1
  0
DICTIONARYVAR
  5
702
102
{ACAD_REACTORS
330
701
102
}
330
701
100
DictionaryVariables
280
     0
  1
1:1
  0
DICTIONARYVAR
  5
707
102
{ACAD_REACTORS
330
701
102
}
330
701
100
DictionaryVariables
280
     0
  1
Standard
  0
DICTIONARYVAR
  5
706
102
{ACAD_REACTORS
330
701
102
}
330
701
100
DictionaryVariables
280
     0
  1
Standard
  0
DICTIONARYVAR
  5
708
102
{ACAD_REACTORS
330
701
102
}
330
701
100
DictionaryVariables
280
     0
  1
0
  0
DICTIONARYVAR
  5
711
330
710
100
DictionaryVariables
280
     0
  1
1.4.2 @ 2025-10-15T15:33:25.387236+00:00
  0
DICTIONARY
  5
775
330
6FE
100
AcDbDictionary
280
     1
281
     1
  3
ACAD_ROUNDTRIP_2008_TABLESTYLE_CELLSTYLEMAP
360
776
  0
CELLSTYLEMAP
  5
776
102
{ACAD_REACTORS
330
775
102
}
330
775
100
AcDbCellStyleMap
 90
        3
300
CELLSTYLE
  1
TABLEFORMAT_BEGIN
 90
        5
170
     1
 91
        0
 92
    32768
 62
   257
 93
        1
300
CONTENTFORMAT
  1
CONTENTFORMAT_BEGIN
 90
        0
 91
        0
 92
        4
 93
        0
300

 40
0.0
140
1.0
 94
        5
 62
     0
340
11
144
6.0
309
CONTENTFORMAT_END
171
     1
301
MARGIN
  1
CELLMARGIN_BEGIN
 40
1.5
 40
1.5
 40
1.5
 40
1.5
 40
1.5
 40
1.5
309
CELLMARGIN_END
 94
        6
 95
        1
302
GRIDFORMAT
  1
GRIDFORMAT_BEGIN
 90
        0
 91
        1
 62
     0
 92
       -2
340
14
 93
        0
 40
0.045
309
GRIDFORMAT_END
 95
        2
302
GRIDFORMAT
  1
GRIDFORMAT_BEGIN
 90
        0
 91
        1
 62
     0
 92
       -2
340
14
 93
        0
 40
0.045
309
GRIDFORMAT_END
 95
        4
302
GRIDFORMAT
  1
GRIDFORMAT_BEGIN
 90
        0
 91
        1
 62
     0
 92
       -2
340
14
 93
        0
 40
0.045
309
GRIDFORMAT_END
 95
        8
302
GRIDFORMAT
  1
GRIDFORMAT_BEGIN
 90
        0
 91
        1
 62
     0
 92
       -2
340
14
 93
        0
 40
0.045
309
GRIDFORMAT_END
 95
       16
302
GRIDFORMAT
  1
GRIDFORMAT_BEGIN
 90
        0
 91
        1
 62
     0
 92
       -2
340
14
 93
        0
 40
0.045
309
GRIDFORMAT_END
 95
       32
302
GRIDFORMAT
  1
GRIDFORMAT_BEGIN
 90
        0
 91
        1
 62
     0
 92
       -2
340
14
 93
        0
 40
0.045
309
GRIDFORMAT_END
309
TABLEFORMAT_END
  1
CELLSTYLE_BEGIN
 90
        1
 91
        1
300
_TITLE
309
CELLSTYLE_END
300
CELLSTYLE
  1
TABLEFORMAT_BEGIN
 90
        5
170
     1
 91
        0
 92
        0
 62
   257
 93
        1
300
CONTENTFORMAT
  1
CONTENTFORMAT_BEGIN
 90
        0
 91
        0
 92
        4
 93
        0
300

 40
0.0
140
1.0
 94
        5
 62
     0
340
11
144
4.5
309
CONTENTFORMAT_END
171
     1
301
MARGIN
  1
CELLMARGIN_BEGIN
 40
1.5
 40
1.5
 40
1.5
 40
1.5
 40
1.5
 40
1.5
309
CELLMARGIN_END
 94
        6
 95
        1
302
GRIDFORMAT
  1
GRIDFORMAT_BEGIN
 90
        0
 91
        1
 62
     0
 92
       -2
340
14
 93
        0
 40
0.045
309
GRIDFORMAT_END
 95
        2
302
GRIDFORMAT
  1
GRIDFORMAT_BEGIN
 90
        0
 91
        1
 62
     0
 92
       -2
340
14
 93
        0
 40
0.045
309
GRIDFORMAT_END
 95
        4
302
GRIDFORMAT
  1
GRIDFORMAT_BEGIN
 90
        0
 91
        1
 62
     0
 92
       -2
340
14
 93
        0
 40
0.045
309
GRIDFORMAT_END
 95
        8
302
GRIDFORMAT
  1
GRIDFORMAT_BEGIN
 90
        0
 91
        1
 62
     0
 92
       -2
340
14
 93
        0
 40
0.045
309
GRIDFORMAT_END
 95
       16
302
GRIDFORMAT
  1
GRIDFORMAT_BEGIN
 90
        0
 91
        1
 62
     0
 92
       -2
340
14
 93
        0
 40
0.045
309
GRIDFORMAT_END
 95
       32
302
GRIDFORMAT
  1
GRIDFORMAT_BEGIN
 90
        0
 91
        1
 62
     0
 92
       -2
340
14
 93
        0
 40
0.045
309
GRIDFORMAT_END
309
TABLEFORMAT_END
  1
CELLSTYLE_BEGIN
 90
        2
 91
        1
300
_HEADER
309
CELLSTYLE_END
300
CELLSTYLE
  1
TABLEFORMAT_BEGIN
 90
        5
170
     1
 91
        0
 92
        0
 62
   257
 93
        1
300
CONTENTFORMAT
  1
CONTENTFORMAT_BEGIN
 90
        0
 91
        0
 92
        4
 93
        0
300

 40
0.0
140
1.0
 94
        2
 62
     0
340
11
144
4.5
309
CONTENTFORMAT_END
171
     1
301
MARGIN
  1
CELLMARGIN_BEGIN
 40
1.5
 40
1.5
 40
1.5
 40
1.5
 40
1.5
 40
1.5
309
CELLMARGIN_END
 94
        6
 95
        1
302
GRIDFORMAT
  1
GRIDFORMAT_BEGIN
 90
        0
 91
        1
 62
     0
 92
       -2
340
14
 93
        0
 40
0.045
309
GRIDFORMAT_END
 95
        2
302
GRIDFORMAT
  1
GRIDFORMAT_BEGIN
 90
        0
 91
        1
 62
     0
 92
       -2
340
14
 93
        0
 40
0.045
309
GRIDFORMAT_END
 95
        4
302
GRIDFORMAT
  1
GRIDFORMAT_BEGIN
 90
        0
 91
        1
 62
     0
 92
       -2
340
14
 93
        0
 40
0.045
309
GRIDFORMAT_END
 95
        8
302
GRIDFORMAT
  1
GRIDFORMAT_BEGIN
 90
        0
 91
        1
 62
     0
 92
       -2
340
14
 93
        0
 40
0.045
309
GRIDFORMAT_END
 95
       16
302
GRIDFORMAT
  1
GRIDFORMAT_BEGIN
 90
        0
 91
        1
 62
     0
 92
       -2
340
14
 93
        0
 40
0.045
309
GRIDFORMAT_END
 95
       32
302
GRIDFORMAT
  1
GRIDFORMAT_BEGIN
 90
        0
 91
        1
 62
     0
 92
       -2
340
14
 93
        0
 40
0.045
309
GRIDFORMAT_END
309
TABLEFORMAT_END
  1
CELLSTYLE_BEGIN
 90
        3
 91
        2
300
_DATA
309
CELLSTYLE_END
  0
ENDSEC
  0
EOF
